%TF.GenerationSoftware,KiCad,Pcbnew,10.0.4*%
%TF.CreationDate,2026-07-28T22:20:59+05:30*%
%TF.ProjectId,week2_q3,7765656b-325f-4713-932e-6b696361645f,rev?*%
%TF.SameCoordinates,Original*%
%TF.FileFunction,Legend,Top*%
%TF.FilePolarity,Positive*%
%FSLAX46Y46*%
G04 Gerber Fmt 4.6, Leading zero omitted, Abs format (unit mm)*
G04 Created by KiCad (PCBNEW 10.0.4) date 2026-07-28 22:20:59*
%MOMM*%
%LPD*%
G01*
G04 APERTURE LIST*
%ADD10C,0.150000*%
%ADD11C,0.100000*%
%ADD12C,0.120000*%
G04 APERTURE END LIST*
D10*
X253033890Y-147333333D02*
X253748175Y-147333333D01*
X253748175Y-147333333D02*
X253891032Y-147380952D01*
X253891032Y-147380952D02*
X253986271Y-147476190D01*
X253986271Y-147476190D02*
X254033890Y-147619047D01*
X254033890Y-147619047D02*
X254033890Y-147714285D01*
X254033890Y-146333333D02*
X254033890Y-146904761D01*
X254033890Y-146619047D02*
X253033890Y-146619047D01*
X253033890Y-146619047D02*
X253176747Y-146714285D01*
X253176747Y-146714285D02*
X253271985Y-146809523D01*
X253271985Y-146809523D02*
X253319604Y-146904761D01*
X223394354Y-147333333D02*
X224108639Y-147333333D01*
X224108639Y-147333333D02*
X224251496Y-147380952D01*
X224251496Y-147380952D02*
X224346735Y-147476190D01*
X224346735Y-147476190D02*
X224394354Y-147619047D01*
X224394354Y-147619047D02*
X224394354Y-147714285D01*
X223489592Y-146904761D02*
X223441973Y-146857142D01*
X223441973Y-146857142D02*
X223394354Y-146761904D01*
X223394354Y-146761904D02*
X223394354Y-146523809D01*
X223394354Y-146523809D02*
X223441973Y-146428571D01*
X223441973Y-146428571D02*
X223489592Y-146380952D01*
X223489592Y-146380952D02*
X223584830Y-146333333D01*
X223584830Y-146333333D02*
X223680068Y-146333333D01*
X223680068Y-146333333D02*
X223822925Y-146380952D01*
X223822925Y-146380952D02*
X224394354Y-146952380D01*
X224394354Y-146952380D02*
X224394354Y-146333333D01*
X193754819Y-147333333D02*
X194469104Y-147333333D01*
X194469104Y-147333333D02*
X194611961Y-147380952D01*
X194611961Y-147380952D02*
X194707200Y-147476190D01*
X194707200Y-147476190D02*
X194754819Y-147619047D01*
X194754819Y-147619047D02*
X194754819Y-147714285D01*
X193754819Y-146952380D02*
X193754819Y-146333333D01*
X193754819Y-146333333D02*
X194135771Y-146666666D01*
X194135771Y-146666666D02*
X194135771Y-146523809D01*
X194135771Y-146523809D02*
X194183390Y-146428571D01*
X194183390Y-146428571D02*
X194231009Y-146380952D01*
X194231009Y-146380952D02*
X194326247Y-146333333D01*
X194326247Y-146333333D02*
X194564342Y-146333333D01*
X194564342Y-146333333D02*
X194659580Y-146380952D01*
X194659580Y-146380952D02*
X194707200Y-146428571D01*
X194707200Y-146428571D02*
X194754819Y-146523809D01*
X194754819Y-146523809D02*
X194754819Y-146809523D01*
X194754819Y-146809523D02*
X194707200Y-146904761D01*
X194707200Y-146904761D02*
X194659580Y-146952380D01*
X164115283Y-147333333D02*
X164829568Y-147333333D01*
X164829568Y-147333333D02*
X164972425Y-147380952D01*
X164972425Y-147380952D02*
X165067664Y-147476190D01*
X165067664Y-147476190D02*
X165115283Y-147619047D01*
X165115283Y-147619047D02*
X165115283Y-147714285D01*
X164448616Y-146428571D02*
X165115283Y-146428571D01*
X164067664Y-146666666D02*
X164781949Y-146904761D01*
X164781949Y-146904761D02*
X164781949Y-146285714D01*
X134475747Y-147333333D02*
X135190032Y-147333333D01*
X135190032Y-147333333D02*
X135332889Y-147380952D01*
X135332889Y-147380952D02*
X135428128Y-147476190D01*
X135428128Y-147476190D02*
X135475747Y-147619047D01*
X135475747Y-147619047D02*
X135475747Y-147714285D01*
X134475747Y-146380952D02*
X134475747Y-146857142D01*
X134475747Y-146857142D02*
X134951937Y-146904761D01*
X134951937Y-146904761D02*
X134904318Y-146857142D01*
X134904318Y-146857142D02*
X134856699Y-146761904D01*
X134856699Y-146761904D02*
X134856699Y-146523809D01*
X134856699Y-146523809D02*
X134904318Y-146428571D01*
X134904318Y-146428571D02*
X134951937Y-146380952D01*
X134951937Y-146380952D02*
X135047175Y-146333333D01*
X135047175Y-146333333D02*
X135285270Y-146333333D01*
X135285270Y-146333333D02*
X135380508Y-146380952D01*
X135380508Y-146380952D02*
X135428128Y-146428571D01*
X135428128Y-146428571D02*
X135475747Y-146523809D01*
X135475747Y-146523809D02*
X135475747Y-146761904D01*
X135475747Y-146761904D02*
X135428128Y-146857142D01*
X135428128Y-146857142D02*
X135380508Y-146904761D01*
X104836211Y-147333333D02*
X105550496Y-147333333D01*
X105550496Y-147333333D02*
X105693353Y-147380952D01*
X105693353Y-147380952D02*
X105788592Y-147476190D01*
X105788592Y-147476190D02*
X105836211Y-147619047D01*
X105836211Y-147619047D02*
X105836211Y-147714285D01*
X104836211Y-146428571D02*
X104836211Y-146619047D01*
X104836211Y-146619047D02*
X104883830Y-146714285D01*
X104883830Y-146714285D02*
X104931449Y-146761904D01*
X104931449Y-146761904D02*
X105074306Y-146857142D01*
X105074306Y-146857142D02*
X105264782Y-146904761D01*
X105264782Y-146904761D02*
X105645734Y-146904761D01*
X105645734Y-146904761D02*
X105740972Y-146857142D01*
X105740972Y-146857142D02*
X105788592Y-146809523D01*
X105788592Y-146809523D02*
X105836211Y-146714285D01*
X105836211Y-146714285D02*
X105836211Y-146523809D01*
X105836211Y-146523809D02*
X105788592Y-146428571D01*
X105788592Y-146428571D02*
X105740972Y-146380952D01*
X105740972Y-146380952D02*
X105645734Y-146333333D01*
X105645734Y-146333333D02*
X105407639Y-146333333D01*
X105407639Y-146333333D02*
X105312401Y-146380952D01*
X105312401Y-146380952D02*
X105264782Y-146428571D01*
X105264782Y-146428571D02*
X105217163Y-146523809D01*
X105217163Y-146523809D02*
X105217163Y-146714285D01*
X105217163Y-146714285D02*
X105264782Y-146809523D01*
X105264782Y-146809523D02*
X105312401Y-146857142D01*
X105312401Y-146857142D02*
X105407639Y-146904761D01*
X44033890Y-147809523D02*
X44748175Y-147809523D01*
X44748175Y-147809523D02*
X44891032Y-147857142D01*
X44891032Y-147857142D02*
X44986271Y-147952380D01*
X44986271Y-147952380D02*
X45033890Y-148095237D01*
X45033890Y-148095237D02*
X45033890Y-148190475D01*
X45033890Y-146809523D02*
X45033890Y-147380951D01*
X45033890Y-147095237D02*
X44033890Y-147095237D01*
X44033890Y-147095237D02*
X44176747Y-147190475D01*
X44176747Y-147190475D02*
X44271985Y-147285713D01*
X44271985Y-147285713D02*
X44319604Y-147380951D01*
X45033890Y-145857142D02*
X45033890Y-146428570D01*
X45033890Y-146142856D02*
X44033890Y-146142856D01*
X44033890Y-146142856D02*
X44176747Y-146238094D01*
X44176747Y-146238094D02*
X44271985Y-146333332D01*
X44271985Y-146333332D02*
X44319604Y-146428570D01*
X127916666Y-57229819D02*
X127916666Y-57944104D01*
X127916666Y-57944104D02*
X127869047Y-58086961D01*
X127869047Y-58086961D02*
X127773809Y-58182200D01*
X127773809Y-58182200D02*
X127630952Y-58229819D01*
X127630952Y-58229819D02*
X127535714Y-58229819D01*
X128297619Y-57229819D02*
X128964285Y-57229819D01*
X128964285Y-57229819D02*
X128535714Y-58229819D01*
X141166666Y-58574819D02*
X141166666Y-59289104D01*
X141166666Y-59289104D02*
X141119047Y-59431961D01*
X141119047Y-59431961D02*
X141023809Y-59527200D01*
X141023809Y-59527200D02*
X140880952Y-59574819D01*
X140880952Y-59574819D02*
X140785714Y-59574819D01*
X141785714Y-59003390D02*
X141690476Y-58955771D01*
X141690476Y-58955771D02*
X141642857Y-58908152D01*
X141642857Y-58908152D02*
X141595238Y-58812914D01*
X141595238Y-58812914D02*
X141595238Y-58765295D01*
X141595238Y-58765295D02*
X141642857Y-58670057D01*
X141642857Y-58670057D02*
X141690476Y-58622438D01*
X141690476Y-58622438D02*
X141785714Y-58574819D01*
X141785714Y-58574819D02*
X141976190Y-58574819D01*
X141976190Y-58574819D02*
X142071428Y-58622438D01*
X142071428Y-58622438D02*
X142119047Y-58670057D01*
X142119047Y-58670057D02*
X142166666Y-58765295D01*
X142166666Y-58765295D02*
X142166666Y-58812914D01*
X142166666Y-58812914D02*
X142119047Y-58908152D01*
X142119047Y-58908152D02*
X142071428Y-58955771D01*
X142071428Y-58955771D02*
X141976190Y-59003390D01*
X141976190Y-59003390D02*
X141785714Y-59003390D01*
X141785714Y-59003390D02*
X141690476Y-59051009D01*
X141690476Y-59051009D02*
X141642857Y-59098628D01*
X141642857Y-59098628D02*
X141595238Y-59193866D01*
X141595238Y-59193866D02*
X141595238Y-59384342D01*
X141595238Y-59384342D02*
X141642857Y-59479580D01*
X141642857Y-59479580D02*
X141690476Y-59527200D01*
X141690476Y-59527200D02*
X141785714Y-59574819D01*
X141785714Y-59574819D02*
X141976190Y-59574819D01*
X141976190Y-59574819D02*
X142071428Y-59527200D01*
X142071428Y-59527200D02*
X142119047Y-59479580D01*
X142119047Y-59479580D02*
X142166666Y-59384342D01*
X142166666Y-59384342D02*
X142166666Y-59193866D01*
X142166666Y-59193866D02*
X142119047Y-59098628D01*
X142119047Y-59098628D02*
X142071428Y-59051009D01*
X142071428Y-59051009D02*
X141976190Y-59003390D01*
X154416666Y-58574819D02*
X154416666Y-59289104D01*
X154416666Y-59289104D02*
X154369047Y-59431961D01*
X154369047Y-59431961D02*
X154273809Y-59527200D01*
X154273809Y-59527200D02*
X154130952Y-59574819D01*
X154130952Y-59574819D02*
X154035714Y-59574819D01*
X154940476Y-59574819D02*
X155130952Y-59574819D01*
X155130952Y-59574819D02*
X155226190Y-59527200D01*
X155226190Y-59527200D02*
X155273809Y-59479580D01*
X155273809Y-59479580D02*
X155369047Y-59336723D01*
X155369047Y-59336723D02*
X155416666Y-59146247D01*
X155416666Y-59146247D02*
X155416666Y-58765295D01*
X155416666Y-58765295D02*
X155369047Y-58670057D01*
X155369047Y-58670057D02*
X155321428Y-58622438D01*
X155321428Y-58622438D02*
X155226190Y-58574819D01*
X155226190Y-58574819D02*
X155035714Y-58574819D01*
X155035714Y-58574819D02*
X154940476Y-58622438D01*
X154940476Y-58622438D02*
X154892857Y-58670057D01*
X154892857Y-58670057D02*
X154845238Y-58765295D01*
X154845238Y-58765295D02*
X154845238Y-59003390D01*
X154845238Y-59003390D02*
X154892857Y-59098628D01*
X154892857Y-59098628D02*
X154940476Y-59146247D01*
X154940476Y-59146247D02*
X155035714Y-59193866D01*
X155035714Y-59193866D02*
X155226190Y-59193866D01*
X155226190Y-59193866D02*
X155321428Y-59146247D01*
X155321428Y-59146247D02*
X155369047Y-59098628D01*
X155369047Y-59098628D02*
X155416666Y-59003390D01*
X244066666Y-119781009D02*
X243733333Y-119781009D01*
X243733333Y-120304819D02*
X243733333Y-119304819D01*
X243733333Y-119304819D02*
X244209523Y-119304819D01*
X244495238Y-119304819D02*
X245114285Y-119304819D01*
X245114285Y-119304819D02*
X244780952Y-119685771D01*
X244780952Y-119685771D02*
X244923809Y-119685771D01*
X244923809Y-119685771D02*
X245019047Y-119733390D01*
X245019047Y-119733390D02*
X245066666Y-119781009D01*
X245066666Y-119781009D02*
X245114285Y-119876247D01*
X245114285Y-119876247D02*
X245114285Y-120114342D01*
X245114285Y-120114342D02*
X245066666Y-120209580D01*
X245066666Y-120209580D02*
X245019047Y-120257200D01*
X245019047Y-120257200D02*
X244923809Y-120304819D01*
X244923809Y-120304819D02*
X244638095Y-120304819D01*
X244638095Y-120304819D02*
X244542857Y-120257200D01*
X244542857Y-120257200D02*
X244495238Y-120209580D01*
X44566666Y-114181009D02*
X44233333Y-114181009D01*
X44233333Y-114704819D02*
X44233333Y-113704819D01*
X44233333Y-113704819D02*
X44709523Y-113704819D01*
X45042857Y-113800057D02*
X45090476Y-113752438D01*
X45090476Y-113752438D02*
X45185714Y-113704819D01*
X45185714Y-113704819D02*
X45423809Y-113704819D01*
X45423809Y-113704819D02*
X45519047Y-113752438D01*
X45519047Y-113752438D02*
X45566666Y-113800057D01*
X45566666Y-113800057D02*
X45614285Y-113895295D01*
X45614285Y-113895295D02*
X45614285Y-113990533D01*
X45614285Y-113990533D02*
X45566666Y-114133390D01*
X45566666Y-114133390D02*
X44995238Y-114704819D01*
X44995238Y-114704819D02*
X45614285Y-114704819D01*
X44566666Y-106131009D02*
X44233333Y-106131009D01*
X44233333Y-106654819D02*
X44233333Y-105654819D01*
X44233333Y-105654819D02*
X44709523Y-105654819D01*
X45614285Y-106654819D02*
X45042857Y-106654819D01*
X45328571Y-106654819D02*
X45328571Y-105654819D01*
X45328571Y-105654819D02*
X45233333Y-105797676D01*
X45233333Y-105797676D02*
X45138095Y-105892914D01*
X45138095Y-105892914D02*
X45042857Y-105940533D01*
X244066666Y-111731009D02*
X243733333Y-111731009D01*
X243733333Y-112254819D02*
X243733333Y-111254819D01*
X243733333Y-111254819D02*
X244209523Y-111254819D01*
X245019047Y-111588152D02*
X245019047Y-112254819D01*
X244780952Y-111207200D02*
X244542857Y-111921485D01*
X244542857Y-111921485D02*
X245161904Y-111921485D01*
D11*
X217457419Y-52261904D02*
X218266942Y-52261904D01*
X218266942Y-52261904D02*
X218362180Y-52214285D01*
X218362180Y-52214285D02*
X218409800Y-52166666D01*
X218409800Y-52166666D02*
X218457419Y-52071428D01*
X218457419Y-52071428D02*
X218457419Y-51880952D01*
X218457419Y-51880952D02*
X218409800Y-51785714D01*
X218409800Y-51785714D02*
X218362180Y-51738095D01*
X218362180Y-51738095D02*
X218266942Y-51690476D01*
X218266942Y-51690476D02*
X217457419Y-51690476D01*
X217552657Y-51261904D02*
X217505038Y-51214285D01*
X217505038Y-51214285D02*
X217457419Y-51119047D01*
X217457419Y-51119047D02*
X217457419Y-50880952D01*
X217457419Y-50880952D02*
X217505038Y-50785714D01*
X217505038Y-50785714D02*
X217552657Y-50738095D01*
X217552657Y-50738095D02*
X217647895Y-50690476D01*
X217647895Y-50690476D02*
X217743133Y-50690476D01*
X217743133Y-50690476D02*
X217885990Y-50738095D01*
X217885990Y-50738095D02*
X218457419Y-51309523D01*
X218457419Y-51309523D02*
X218457419Y-50690476D01*
X62957419Y-52761904D02*
X63766942Y-52761904D01*
X63766942Y-52761904D02*
X63862180Y-52714285D01*
X63862180Y-52714285D02*
X63909800Y-52666666D01*
X63909800Y-52666666D02*
X63957419Y-52571428D01*
X63957419Y-52571428D02*
X63957419Y-52380952D01*
X63957419Y-52380952D02*
X63909800Y-52285714D01*
X63909800Y-52285714D02*
X63862180Y-52238095D01*
X63862180Y-52238095D02*
X63766942Y-52190476D01*
X63766942Y-52190476D02*
X62957419Y-52190476D01*
X63957419Y-51190476D02*
X63957419Y-51761904D01*
X63957419Y-51476190D02*
X62957419Y-51476190D01*
X62957419Y-51476190D02*
X63100276Y-51571428D01*
X63100276Y-51571428D02*
X63195514Y-51666666D01*
X63195514Y-51666666D02*
X63243133Y-51761904D01*
D10*
X70146676Y-136909523D02*
X70860961Y-136909523D01*
X70860961Y-136909523D02*
X71003818Y-136957142D01*
X71003818Y-136957142D02*
X71099057Y-137052380D01*
X71099057Y-137052380D02*
X71146676Y-137195237D01*
X71146676Y-137195237D02*
X71146676Y-137290475D01*
X71146676Y-135909523D02*
X71146676Y-136480951D01*
X71146676Y-136195237D02*
X70146676Y-136195237D01*
X70146676Y-136195237D02*
X70289533Y-136290475D01*
X70289533Y-136290475D02*
X70384771Y-136385713D01*
X70384771Y-136385713D02*
X70432390Y-136480951D01*
X70146676Y-135290475D02*
X70146676Y-135195237D01*
X70146676Y-135195237D02*
X70194295Y-135099999D01*
X70194295Y-135099999D02*
X70241914Y-135052380D01*
X70241914Y-135052380D02*
X70337152Y-135004761D01*
X70337152Y-135004761D02*
X70527628Y-134957142D01*
X70527628Y-134957142D02*
X70765723Y-134957142D01*
X70765723Y-134957142D02*
X70956199Y-135004761D01*
X70956199Y-135004761D02*
X71051437Y-135052380D01*
X71051437Y-135052380D02*
X71099057Y-135099999D01*
X71099057Y-135099999D02*
X71146676Y-135195237D01*
X71146676Y-135195237D02*
X71146676Y-135290475D01*
X71146676Y-135290475D02*
X71099057Y-135385713D01*
X71099057Y-135385713D02*
X71051437Y-135433332D01*
X71051437Y-135433332D02*
X70956199Y-135480951D01*
X70956199Y-135480951D02*
X70765723Y-135528570D01*
X70765723Y-135528570D02*
X70527628Y-135528570D01*
X70527628Y-135528570D02*
X70337152Y-135480951D01*
X70337152Y-135480951D02*
X70241914Y-135433332D01*
X70241914Y-135433332D02*
X70194295Y-135385713D01*
X70194295Y-135385713D02*
X70146676Y-135290475D01*
%TO.C,J1*%
D12*
X249879071Y-139150000D02*
X246729071Y-139150000D01*
X246729071Y-139150000D02*
X244129071Y-142000000D01*
X252429071Y-142000000D02*
X249879071Y-139150000D01*
X244129071Y-142000000D02*
X244129071Y-154850000D01*
X252429071Y-154850000D02*
X252429071Y-142000000D01*
X244129071Y-154850000D02*
X252429071Y-154850000D01*
%TO.C,J2*%
X220239535Y-139150000D02*
X217089535Y-139150000D01*
X217089535Y-139150000D02*
X214489535Y-142000000D01*
X222789535Y-142000000D02*
X220239535Y-139150000D01*
X214489535Y-142000000D02*
X214489535Y-154850000D01*
X222789535Y-154850000D02*
X222789535Y-142000000D01*
X214489535Y-154850000D02*
X222789535Y-154850000D01*
%TO.C,J3*%
X190600000Y-139150000D02*
X187450000Y-139150000D01*
X187450000Y-139150000D02*
X184850000Y-142000000D01*
X193150000Y-142000000D02*
X190600000Y-139150000D01*
X184850000Y-142000000D02*
X184850000Y-154850000D01*
X193150000Y-154850000D02*
X193150000Y-142000000D01*
X184850000Y-154850000D02*
X193150000Y-154850000D01*
%TO.C,J4*%
X160960464Y-139150000D02*
X157810464Y-139150000D01*
X157810464Y-139150000D02*
X155210464Y-142000000D01*
X163510464Y-142000000D02*
X160960464Y-139150000D01*
X155210464Y-142000000D02*
X155210464Y-154850000D01*
X163510464Y-154850000D02*
X163510464Y-142000000D01*
X155210464Y-154850000D02*
X163510464Y-154850000D01*
%TO.C,J5*%
X131320928Y-139150000D02*
X128170928Y-139150000D01*
X128170928Y-139150000D02*
X125570928Y-142000000D01*
X133870928Y-142000000D02*
X131320928Y-139150000D01*
X125570928Y-142000000D02*
X125570928Y-154850000D01*
X133870928Y-154850000D02*
X133870928Y-142000000D01*
X125570928Y-154850000D02*
X133870928Y-154850000D01*
%TO.C,J6*%
X101681392Y-139150000D02*
X98531392Y-139150000D01*
X98531392Y-139150000D02*
X95931392Y-142000000D01*
X104231392Y-142000000D02*
X101681392Y-139150000D01*
X95931392Y-142000000D02*
X95931392Y-154850000D01*
X104231392Y-154850000D02*
X104231392Y-142000000D01*
X95931392Y-154850000D02*
X104231392Y-154850000D01*
%TO.C,J11*%
X40879071Y-139150000D02*
X37729071Y-139150000D01*
X37729071Y-139150000D02*
X35129071Y-142000000D01*
X43429071Y-142000000D02*
X40879071Y-139150000D01*
X35129071Y-142000000D02*
X35129071Y-154850000D01*
X43429071Y-154850000D02*
X43429071Y-142000000D01*
X35129071Y-154850000D02*
X43429071Y-154850000D01*
%TO.C,J7*%
X126870000Y-60120000D02*
X128250000Y-60120000D01*
X126870000Y-61500000D02*
X126870000Y-60120000D01*
X126870000Y-62770000D02*
X126870000Y-65420000D01*
X126870000Y-62770000D02*
X129630000Y-62770000D01*
X126870000Y-65420000D02*
X129630000Y-65420000D01*
X129630000Y-62770000D02*
X129630000Y-65420000D01*
%TO.C,J8*%
X140120000Y-60120000D02*
X141500000Y-60120000D01*
X140120000Y-61500000D02*
X140120000Y-60120000D01*
X140120000Y-62770000D02*
X140120000Y-65420000D01*
X140120000Y-62770000D02*
X142880000Y-62770000D01*
X140120000Y-65420000D02*
X142880000Y-65420000D01*
X142880000Y-62770000D02*
X142880000Y-65420000D01*
%TO.C,J9*%
X153370000Y-60120000D02*
X154750000Y-60120000D01*
X153370000Y-61500000D02*
X153370000Y-60120000D01*
X153370000Y-62770000D02*
X153370000Y-65420000D01*
X153370000Y-62770000D02*
X156130000Y-62770000D01*
X153370000Y-65420000D02*
X156130000Y-65420000D01*
X156130000Y-62770000D02*
X156130000Y-65420000D01*
%TO.C,F3*%
X254710000Y-119110000D02*
X234090000Y-119110000D01*
X254710000Y-112490000D02*
X254710000Y-119110000D01*
X234090000Y-119110000D02*
X234090000Y-112490000D01*
X234090000Y-112490000D02*
X254710000Y-112490000D01*
%TO.C,F2*%
X34590000Y-114990000D02*
X55210000Y-114990000D01*
X34590000Y-121610000D02*
X34590000Y-114990000D01*
X55210000Y-114990000D02*
X55210000Y-121610000D01*
X55210000Y-121610000D02*
X34590000Y-121610000D01*
%TO.C,F1*%
X34590000Y-106940000D02*
X55210000Y-106940000D01*
X34590000Y-113560000D02*
X34590000Y-106940000D01*
X55210000Y-106940000D02*
X55210000Y-113560000D01*
X55210000Y-113560000D02*
X34590000Y-113560000D01*
%TO.C,F4*%
X254710000Y-111060000D02*
X234090000Y-111060000D01*
X254710000Y-104440000D02*
X254710000Y-111060000D01*
X234090000Y-111060000D02*
X234090000Y-104440000D01*
X234090000Y-104440000D02*
X254710000Y-104440000D01*
%TO.C,U2*%
D11*
X191000000Y-23500000D02*
X251000000Y-23500000D01*
X251000000Y-78500000D01*
X191000000Y-78500000D01*
X191000000Y-23500000D01*
%TO.C,U1*%
X34000000Y-24000000D02*
X94000000Y-24000000D01*
X94000000Y-79000000D01*
X34000000Y-79000000D01*
X34000000Y-24000000D01*
%TO.C,J10*%
D12*
X72041857Y-139150000D02*
X68891857Y-139150000D01*
X68891857Y-139150000D02*
X66291857Y-142000000D01*
X74591857Y-142000000D02*
X72041857Y-139150000D01*
X66291857Y-142000000D02*
X66291857Y-154850000D01*
X74591857Y-154850000D02*
X74591857Y-142000000D01*
X66291857Y-154850000D02*
X74591857Y-154850000D01*
%TD*%
M02*
