%TF.GenerationSoftware,KiCad,Pcbnew,10.0.4*%
%TF.CreationDate,2026-07-28T22:20:59+05:30*%
%TF.ProjectId,week2_q3,7765656b-325f-4713-932e-6b696361645f,rev?*%
%TF.SameCoordinates,Original*%
%TF.FileFunction,Copper,L2,Bot*%
%TF.FilePolarity,Positive*%
%FSLAX46Y46*%
G04 Gerber Fmt 4.6, Leading zero omitted, Abs format (unit mm)*
G04 Created by KiCad (PCBNEW 10.0.4) date 2026-07-28 22:20:59*
%MOMM*%
%LPD*%
G01*
G04 APERTURE LIST*
G04 Aperture macros list*
%AMRoundRect*
0 Rectangle with rounded corners*
0 $1 Rounding radius*
0 $2 $3 $4 $5 $6 $7 $8 $9 X,Y pos of 4 corners*
0 Add a 4 corners polygon primitive as box body*
4,1,4,$2,$3,$4,$5,$6,$7,$8,$9,$2,$3,0*
0 Add four circle primitives for the rounded corners*
1,1,$1+$1,$2,$3*
1,1,$1+$1,$4,$5*
1,1,$1+$1,$6,$7*
1,1,$1+$1,$8,$9*
0 Add four rect primitives between the rounded corners*
20,1,$1+$1,$2,$3,$4,$5,0*
20,1,$1+$1,$4,$5,$6,$7,0*
20,1,$1+$1,$6,$7,$8,$9,0*
20,1,$1+$1,$8,$9,$2,$3,0*%
G04 Aperture macros list end*
%TA.AperFunction,ComponentPad*%
%ADD10RoundRect,1.500000X-1.500000X1.500000X-1.500000X-1.500000X1.500000X-1.500000X1.500000X1.500000X0*%
%TD*%
%TA.AperFunction,ComponentPad*%
%ADD11C,6.000000*%
%TD*%
%TA.AperFunction,ComponentPad*%
%ADD12R,1.700000X1.700000*%
%TD*%
%TA.AperFunction,ComponentPad*%
%ADD13C,1.700000*%
%TD*%
%TA.AperFunction,ComponentPad*%
%ADD14C,2.200000*%
%TD*%
%TA.AperFunction,WasherPad*%
%ADD15RoundRect,0.190500X0.444500X-0.444500X0.444500X0.444500X-0.444500X0.444500X-0.444500X-0.444500X0*%
%TD*%
%TA.AperFunction,ComponentPad*%
%ADD16RoundRect,0.300000X0.700000X-0.700000X0.700000X0.700000X-0.700000X0.700000X-0.700000X-0.700000X0*%
%TD*%
%TA.AperFunction,Conductor*%
%ADD17C,2.000000*%
%TD*%
%TA.AperFunction,Conductor*%
%ADD18C,1.000000*%
%TD*%
%TA.AperFunction,Conductor*%
%ADD19C,3.000000*%
%TD*%
%TA.AperFunction,Conductor*%
%ADD20C,2.500000*%
%TD*%
G04 APERTURE END LIST*
D10*
%TO.P,J1,2,NEG_2*%
%TO.N,GND*%
X248279071Y-143400000D03*
D11*
%TO.P,J1,1,POS_1*%
%TO.N,/Vo_20V*%
X248279071Y-150600000D03*
%TD*%
D10*
%TO.P,J2,2,NEG_2*%
%TO.N,GND*%
X218639535Y-143400000D03*
D11*
%TO.P,J2,1,POS_1*%
%TO.N,/Vo_20V*%
X218639535Y-150600000D03*
%TD*%
D10*
%TO.P,J3,2,NEG_2*%
%TO.N,GND*%
X189000000Y-143400000D03*
D11*
%TO.P,J3,1,POS_1*%
%TO.N,/Vo_20V*%
X189000000Y-150600000D03*
%TD*%
D10*
%TO.P,J4,2,NEG_2*%
%TO.N,GND*%
X159360464Y-143400000D03*
D11*
%TO.P,J4,1,POS_1*%
%TO.N,/Vo_11.1V*%
X159360464Y-150600000D03*
%TD*%
D10*
%TO.P,J5,2,NEG_2*%
%TO.N,GND*%
X129720928Y-143400000D03*
D11*
%TO.P,J5,1,POS_1*%
%TO.N,/Vo_11.1V*%
X129720928Y-150600000D03*
%TD*%
D10*
%TO.P,J6,2,NEG_2*%
%TO.N,GND*%
X100081392Y-143400000D03*
D11*
%TO.P,J6,1,POS_1*%
%TO.N,/Vo_11.1V*%
X100081392Y-150600000D03*
%TD*%
D10*
%TO.P,J11,2,NEG_2*%
%TO.N,GND*%
X39279071Y-143400000D03*
D11*
%TO.P,J11,1,POS_1*%
%TO.N,/V_bat*%
X39279071Y-150600000D03*
%TD*%
D12*
%TO.P,J7,1,Pin_1_1*%
%TO.N,/Vo_5V*%
X128250000Y-61500000D03*
D13*
%TO.P,J7,2,Pin_2_2*%
%TO.N,GND*%
X128250000Y-64040000D03*
%TD*%
D12*
%TO.P,J8,1,Pin_1_1*%
%TO.N,/Vo_5V*%
X141500000Y-61500000D03*
D13*
%TO.P,J8,2,Pin_2_2*%
%TO.N,GND*%
X141500000Y-64040000D03*
%TD*%
D12*
%TO.P,J9,1,Pin_1_1*%
%TO.N,/Vo_5V*%
X154750000Y-61500000D03*
D13*
%TO.P,J9,2,Pin_2_2*%
%TO.N,GND*%
X154750000Y-64040000D03*
%TD*%
D14*
%TO.P,F3,1*%
%TO.N,/Vo_11.1V_raw*%
X250800000Y-117050000D03*
X250800000Y-114550000D03*
X247300000Y-117050000D03*
X247300000Y-114550000D03*
%TO.P,F3,2*%
%TO.N,/Vo_11.1V*%
X241500000Y-117050000D03*
X241500000Y-114550000D03*
X238000000Y-117050000D03*
X238000000Y-114550000D03*
%TD*%
%TO.P,F2,1*%
%TO.N,/V_bat*%
X38500000Y-117050000D03*
X38500000Y-119550000D03*
X42000000Y-117050000D03*
X42000000Y-119550000D03*
%TO.P,F2,2*%
%TO.N,/V_in*%
X47800000Y-117050000D03*
X47800000Y-119550000D03*
X51300000Y-117050000D03*
X51300000Y-119550000D03*
%TD*%
%TO.P,F1,1*%
%TO.N,/V_in*%
X38500000Y-109000000D03*
X38500000Y-111500000D03*
X42000000Y-109000000D03*
X42000000Y-111500000D03*
%TO.P,F1,2*%
%TO.N,/Vo_20V*%
X47800000Y-109000000D03*
X47800000Y-111500000D03*
X51300000Y-109000000D03*
X51300000Y-111500000D03*
%TD*%
%TO.P,F4,1*%
%TO.N,/Vo_5V_raw*%
X250800000Y-109000000D03*
X250800000Y-106500000D03*
X247300000Y-109000000D03*
X247300000Y-106500000D03*
%TO.P,F4,2*%
%TO.N,/Vo_5V*%
X241500000Y-109000000D03*
X241500000Y-106500000D03*
X238000000Y-109000000D03*
X238000000Y-106500000D03*
%TD*%
D15*
%TO.P,U2,*%
%TO.N,*%
X195000000Y-74500000D03*
X247000000Y-74500000D03*
X195000000Y-27500000D03*
X247000000Y-27500000D03*
D16*
%TO.P,U2,1,V_input_1*%
%TO.N,/V_in*%
X195000000Y-62500000D03*
%TO.P,U2,2,GND_Input_2*%
%TO.N,GND*%
X195000000Y-39500000D03*
%TO.P,U2,3,GND_output_3*%
X247000000Y-39500000D03*
%TO.P,U2,4,V_out_4*%
%TO.N,/Vo_5V_raw*%
X247000000Y-62500000D03*
%TD*%
D15*
%TO.P,U1,*%
%TO.N,*%
X38000000Y-75000000D03*
X90000000Y-75000000D03*
X38000000Y-28000000D03*
X90000000Y-28000000D03*
D16*
%TO.P,U1,1,V_input_1*%
%TO.N,/V_in*%
X38000000Y-63000000D03*
%TO.P,U1,2,GND_Input_2*%
%TO.N,GND*%
X38000000Y-40000000D03*
%TO.P,U1,3,GND_output_3*%
X90000000Y-40000000D03*
%TO.P,U1,4,V_out_4*%
%TO.N,/Vo_11.1V_raw*%
X90000000Y-63000000D03*
%TD*%
D10*
%TO.P,J10,2,NEG_2*%
%TO.N,GND*%
X70441857Y-143400000D03*
D11*
%TO.P,J10,1,POS_1*%
%TO.N,/V_bat*%
X70441857Y-150600000D03*
%TD*%
%TO.N,/Vo_11.1V_raw*%
D17*
X245000000Y-112250000D02*
X247300000Y-114550000D01*
X90000000Y-63000000D02*
X139250000Y-112250000D01*
X139250000Y-112250000D02*
X245000000Y-112250000D01*
%TO.N,/Vo_5V*%
D18*
X199750000Y-106500000D02*
X238000000Y-106500000D01*
X154750000Y-61500000D02*
X199750000Y-106500000D01*
%TO.N,/V_bat*%
D19*
X34579071Y-123470929D02*
X38500000Y-119550000D01*
X34579071Y-146232754D02*
X34579071Y-123470929D01*
X38946317Y-150600000D02*
X34579071Y-146232754D01*
X39279071Y-150600000D02*
X38946317Y-150600000D01*
%TO.N,/Vo_20V*%
D20*
X117000000Y-109000000D02*
X51300000Y-109000000D01*
X144000000Y-136000000D02*
X117000000Y-109000000D01*
X144000000Y-151000000D02*
X144000000Y-136000000D01*
X182100000Y-157500000D02*
X150500000Y-157500000D01*
X150500000Y-157500000D02*
X144000000Y-151000000D01*
X189000000Y-150600000D02*
X182100000Y-157500000D01*
%TO.N,/Vo_11.1V*%
D17*
X192910464Y-117050000D02*
X159360464Y-150600000D01*
X238000000Y-117050000D02*
X192910464Y-117050000D01*
%TD*%
%TA.AperFunction,Conductor*%
%TO.N,GND*%
G36*
X261192539Y-17770185D02*
G01*
X261238294Y-17822989D01*
X261249500Y-17874500D01*
X261249500Y-162625500D01*
X261229815Y-162692539D01*
X261177011Y-162738294D01*
X261125500Y-162749500D01*
X21874500Y-162749500D01*
X21807461Y-162729815D01*
X21761706Y-162677011D01*
X21750500Y-162625500D01*
X21750500Y-123339809D01*
X32578571Y-123339809D01*
X32578571Y-123343644D01*
X32578571Y-146363881D01*
X32595686Y-146493872D01*
X32595686Y-146493873D01*
X32612799Y-146623866D01*
X32680673Y-146877173D01*
X32781025Y-147119444D01*
X32781029Y-147119454D01*
X32912146Y-147346556D01*
X32977528Y-147431764D01*
X32977533Y-147431769D01*
X33071786Y-147554603D01*
X33071792Y-147554610D01*
X35752041Y-150234858D01*
X35785526Y-150296181D01*
X35787763Y-150334691D01*
X35778571Y-150428031D01*
X35778571Y-150771965D01*
X35812281Y-151114249D01*
X35879379Y-151451572D01*
X35979221Y-151780706D01*
X36110841Y-152098464D01*
X36110843Y-152098469D01*
X36272964Y-152401775D01*
X36272975Y-152401793D01*
X36464046Y-152687751D01*
X36464056Y-152687765D01*
X36682247Y-152953632D01*
X36925438Y-153196823D01*
X36925443Y-153196827D01*
X36925444Y-153196828D01*
X37191311Y-153415019D01*
X37477284Y-153606100D01*
X37477293Y-153606105D01*
X37477295Y-153606106D01*
X37780601Y-153768227D01*
X37780603Y-153768227D01*
X37780609Y-153768231D01*
X38098366Y-153899850D01*
X38427493Y-153999690D01*
X38764821Y-154066789D01*
X39107102Y-154100500D01*
X39107105Y-154100500D01*
X39451037Y-154100500D01*
X39451040Y-154100500D01*
X39793321Y-154066789D01*
X40130649Y-153999690D01*
X40459776Y-153899850D01*
X40777533Y-153768231D01*
X41080858Y-153606100D01*
X41366831Y-153415019D01*
X41632698Y-153196828D01*
X41875899Y-152953627D01*
X42094090Y-152687760D01*
X42285171Y-152401787D01*
X42447302Y-152098462D01*
X42578921Y-151780705D01*
X42678761Y-151451578D01*
X42745860Y-151114250D01*
X42779571Y-150771969D01*
X42779571Y-150428034D01*
X66941357Y-150428034D01*
X66941357Y-150771965D01*
X66975067Y-151114249D01*
X67042165Y-151451572D01*
X67142007Y-151780706D01*
X67273627Y-152098464D01*
X67273629Y-152098469D01*
X67435750Y-152401775D01*
X67435761Y-152401793D01*
X67626832Y-152687751D01*
X67626842Y-152687765D01*
X67845033Y-152953632D01*
X68088224Y-153196823D01*
X68088229Y-153196827D01*
X68088230Y-153196828D01*
X68354097Y-153415019D01*
X68640070Y-153606100D01*
X68640079Y-153606105D01*
X68640081Y-153606106D01*
X68943387Y-153768227D01*
X68943389Y-153768227D01*
X68943395Y-153768231D01*
X69261152Y-153899850D01*
X69590279Y-153999690D01*
X69927607Y-154066789D01*
X70269888Y-154100500D01*
X70269891Y-154100500D01*
X70613823Y-154100500D01*
X70613826Y-154100500D01*
X70956107Y-154066789D01*
X71293435Y-153999690D01*
X71622562Y-153899850D01*
X71940319Y-153768231D01*
X72243644Y-153606100D01*
X72529617Y-153415019D01*
X72795484Y-153196828D01*
X73038685Y-152953627D01*
X73256876Y-152687760D01*
X73447957Y-152401787D01*
X73610088Y-152098462D01*
X73741707Y-151780705D01*
X73841547Y-151451578D01*
X73908646Y-151114250D01*
X73942357Y-150771969D01*
X73942357Y-150428034D01*
X96580892Y-150428034D01*
X96580892Y-150771965D01*
X96614602Y-151114249D01*
X96681700Y-151451572D01*
X96781542Y-151780706D01*
X96913162Y-152098464D01*
X96913164Y-152098469D01*
X97075285Y-152401775D01*
X97075296Y-152401793D01*
X97266367Y-152687751D01*
X97266377Y-152687765D01*
X97484568Y-152953632D01*
X97727759Y-153196823D01*
X97727764Y-153196827D01*
X97727765Y-153196828D01*
X97993632Y-153415019D01*
X98279605Y-153606100D01*
X98279614Y-153606105D01*
X98279616Y-153606106D01*
X98582922Y-153768227D01*
X98582924Y-153768227D01*
X98582930Y-153768231D01*
X98900687Y-153899850D01*
X99229814Y-153999690D01*
X99567142Y-154066789D01*
X99909423Y-154100500D01*
X99909426Y-154100500D01*
X100253358Y-154100500D01*
X100253361Y-154100500D01*
X100595642Y-154066789D01*
X100932970Y-153999690D01*
X101262097Y-153899850D01*
X101579854Y-153768231D01*
X101883179Y-153606100D01*
X102169152Y-153415019D01*
X102435019Y-153196828D01*
X102678220Y-152953627D01*
X102896411Y-152687760D01*
X103087492Y-152401787D01*
X103249623Y-152098462D01*
X103381242Y-151780705D01*
X103481082Y-151451578D01*
X103548181Y-151114250D01*
X103581892Y-150771969D01*
X103581892Y-150428034D01*
X126220428Y-150428034D01*
X126220428Y-150771965D01*
X126254138Y-151114249D01*
X126321236Y-151451572D01*
X126421078Y-151780706D01*
X126552698Y-152098464D01*
X126552700Y-152098469D01*
X126714821Y-152401775D01*
X126714832Y-152401793D01*
X126905903Y-152687751D01*
X126905913Y-152687765D01*
X127124104Y-152953632D01*
X127367295Y-153196823D01*
X127367300Y-153196827D01*
X127367301Y-153196828D01*
X127633168Y-153415019D01*
X127919141Y-153606100D01*
X127919150Y-153606105D01*
X127919152Y-153606106D01*
X128222458Y-153768227D01*
X128222460Y-153768227D01*
X128222466Y-153768231D01*
X128540223Y-153899850D01*
X128869350Y-153999690D01*
X129206678Y-154066789D01*
X129548959Y-154100500D01*
X129548962Y-154100500D01*
X129892894Y-154100500D01*
X129892897Y-154100500D01*
X130235178Y-154066789D01*
X130572506Y-153999690D01*
X130901633Y-153899850D01*
X131219390Y-153768231D01*
X131522715Y-153606100D01*
X131808688Y-153415019D01*
X132074555Y-153196828D01*
X132317756Y-152953627D01*
X132535947Y-152687760D01*
X132727028Y-152401787D01*
X132889159Y-152098462D01*
X133020778Y-151780705D01*
X133120618Y-151451578D01*
X133187717Y-151114250D01*
X133221428Y-150771969D01*
X133221428Y-150428031D01*
X133187717Y-150085750D01*
X133120618Y-149748422D01*
X133020778Y-149419295D01*
X132889159Y-149101538D01*
X132727028Y-148798213D01*
X132535947Y-148512240D01*
X132317756Y-148246373D01*
X132317755Y-148246372D01*
X132317751Y-148246367D01*
X132074560Y-148003176D01*
X131808693Y-147784985D01*
X131808692Y-147784984D01*
X131808688Y-147784981D01*
X131522715Y-147593900D01*
X131522710Y-147593897D01*
X131522703Y-147593893D01*
X131219397Y-147431772D01*
X131219392Y-147431770D01*
X130901634Y-147300150D01*
X130572500Y-147200308D01*
X130297548Y-147145617D01*
X130235637Y-147113232D01*
X130201063Y-147052516D01*
X130204802Y-146982747D01*
X130245669Y-146926075D01*
X130310687Y-146900494D01*
X130321739Y-146900000D01*
X131292362Y-146900000D01*
X131292364Y-146899999D01*
X131506290Y-146884699D01*
X131785823Y-146823890D01*
X132053886Y-146723908D01*
X132304966Y-146586808D01*
X132304967Y-146586807D01*
X132533993Y-146415360D01*
X132534005Y-146415350D01*
X132736278Y-146213077D01*
X132736288Y-146213065D01*
X132907735Y-145984039D01*
X132907736Y-145984038D01*
X133044836Y-145732958D01*
X133144818Y-145464895D01*
X133205627Y-145185362D01*
X133220927Y-144971436D01*
X133220928Y-144971434D01*
X133220928Y-143650000D01*
X131957430Y-143650000D01*
X131970928Y-143547473D01*
X131970928Y-143252527D01*
X131957430Y-143150000D01*
X133220928Y-143150000D01*
X133220928Y-141828566D01*
X133220927Y-141828563D01*
X133205627Y-141614637D01*
X133144818Y-141335104D01*
X133044836Y-141067041D01*
X132907736Y-140815961D01*
X132907735Y-140815960D01*
X132736288Y-140586934D01*
X132736278Y-140586922D01*
X132534005Y-140384649D01*
X132533993Y-140384639D01*
X132304967Y-140213192D01*
X132304966Y-140213191D01*
X132053885Y-140076091D01*
X132053886Y-140076091D01*
X131785823Y-139976109D01*
X131506290Y-139915300D01*
X131292364Y-139900000D01*
X129970928Y-139900000D01*
X129970928Y-141163497D01*
X129868401Y-141150000D01*
X129573455Y-141150000D01*
X129470928Y-141163497D01*
X129470928Y-139900000D01*
X128149491Y-139900000D01*
X127935565Y-139915300D01*
X127656032Y-139976109D01*
X127387969Y-140076091D01*
X127136889Y-140213191D01*
X127136888Y-140213192D01*
X126907862Y-140384639D01*
X126907850Y-140384649D01*
X126705577Y-140586922D01*
X126705567Y-140586934D01*
X126534120Y-140815960D01*
X126534119Y-140815961D01*
X126397019Y-141067041D01*
X126297037Y-141335104D01*
X126236228Y-141614637D01*
X126220928Y-141828563D01*
X126220928Y-143150000D01*
X127484426Y-143150000D01*
X127470928Y-143252527D01*
X127470928Y-143547473D01*
X127484426Y-143650000D01*
X126220928Y-143650000D01*
X126220928Y-144971436D01*
X126236228Y-145185362D01*
X126297037Y-145464895D01*
X126397019Y-145732958D01*
X126534119Y-145984038D01*
X126534120Y-145984039D01*
X126705567Y-146213065D01*
X126705577Y-146213077D01*
X126907850Y-146415350D01*
X126907862Y-146415360D01*
X127136888Y-146586807D01*
X127136889Y-146586808D01*
X127387970Y-146723908D01*
X127387969Y-146723908D01*
X127656032Y-146823890D01*
X127935565Y-146884699D01*
X128149491Y-146899999D01*
X128149494Y-146900000D01*
X129120117Y-146900000D01*
X129187156Y-146919685D01*
X129232911Y-146972489D01*
X129242855Y-147041647D01*
X129213830Y-147105203D01*
X129155052Y-147142977D01*
X129144308Y-147145617D01*
X128869355Y-147200308D01*
X128540221Y-147300150D01*
X128222463Y-147431770D01*
X128222458Y-147431772D01*
X127919152Y-147593893D01*
X127919134Y-147593904D01*
X127633176Y-147784975D01*
X127633162Y-147784985D01*
X127367295Y-148003176D01*
X127124104Y-148246367D01*
X126905913Y-148512234D01*
X126905903Y-148512248D01*
X126714832Y-148798206D01*
X126714821Y-148798224D01*
X126552700Y-149101530D01*
X126552698Y-149101535D01*
X126421078Y-149419293D01*
X126321236Y-149748427D01*
X126254138Y-150085750D01*
X126220428Y-150428034D01*
X103581892Y-150428034D01*
X103581892Y-150428031D01*
X103548181Y-150085750D01*
X103481082Y-149748422D01*
X103381242Y-149419295D01*
X103249623Y-149101538D01*
X103087492Y-148798213D01*
X102896411Y-148512240D01*
X102678220Y-148246373D01*
X102678219Y-148246372D01*
X102678215Y-148246367D01*
X102435024Y-148003176D01*
X102169157Y-147784985D01*
X102169156Y-147784984D01*
X102169152Y-147784981D01*
X101883179Y-147593900D01*
X101883174Y-147593897D01*
X101883167Y-147593893D01*
X101579861Y-147431772D01*
X101579856Y-147431770D01*
X101262098Y-147300150D01*
X100932964Y-147200308D01*
X100658012Y-147145617D01*
X100596101Y-147113232D01*
X100561527Y-147052516D01*
X100565266Y-146982747D01*
X100606133Y-146926075D01*
X100671151Y-146900494D01*
X100682203Y-146900000D01*
X101652826Y-146900000D01*
X101652828Y-146899999D01*
X101866754Y-146884699D01*
X102146287Y-146823890D01*
X102414350Y-146723908D01*
X102665430Y-146586808D01*
X102665431Y-146586807D01*
X102894457Y-146415360D01*
X102894469Y-146415350D01*
X103096742Y-146213077D01*
X103096752Y-146213065D01*
X103268199Y-145984039D01*
X103268200Y-145984038D01*
X103405300Y-145732958D01*
X103505282Y-145464895D01*
X103566091Y-145185362D01*
X103581391Y-144971436D01*
X103581392Y-144971434D01*
X103581392Y-143650000D01*
X102317894Y-143650000D01*
X102331392Y-143547473D01*
X102331392Y-143252527D01*
X102317894Y-143150000D01*
X103581392Y-143150000D01*
X103581392Y-141828566D01*
X103581391Y-141828563D01*
X103566091Y-141614637D01*
X103505282Y-141335104D01*
X103405300Y-141067041D01*
X103268200Y-140815961D01*
X103268199Y-140815960D01*
X103096752Y-140586934D01*
X103096742Y-140586922D01*
X102894469Y-140384649D01*
X102894457Y-140384639D01*
X102665431Y-140213192D01*
X102665430Y-140213191D01*
X102414349Y-140076091D01*
X102414350Y-140076091D01*
X102146287Y-139976109D01*
X101866754Y-139915300D01*
X101652828Y-139900000D01*
X100331392Y-139900000D01*
X100331392Y-141163497D01*
X100228865Y-141150000D01*
X99933919Y-141150000D01*
X99831392Y-141163497D01*
X99831392Y-139900000D01*
X98509955Y-139900000D01*
X98296029Y-139915300D01*
X98016496Y-139976109D01*
X97748433Y-140076091D01*
X97497353Y-140213191D01*
X97497352Y-140213192D01*
X97268326Y-140384639D01*
X97268314Y-140384649D01*
X97066041Y-140586922D01*
X97066031Y-140586934D01*
X96894584Y-140815960D01*
X96894583Y-140815961D01*
X96757483Y-141067041D01*
X96657501Y-141335104D01*
X96596692Y-141614637D01*
X96581392Y-141828563D01*
X96581392Y-143150000D01*
X97844890Y-143150000D01*
X97831392Y-143252527D01*
X97831392Y-143547473D01*
X97844890Y-143650000D01*
X96581392Y-143650000D01*
X96581392Y-144971436D01*
X96596692Y-145185362D01*
X96657501Y-145464895D01*
X96757483Y-145732958D01*
X96894583Y-145984038D01*
X96894584Y-145984039D01*
X97066031Y-146213065D01*
X97066041Y-146213077D01*
X97268314Y-146415350D01*
X97268326Y-146415360D01*
X97497352Y-146586807D01*
X97497353Y-146586808D01*
X97748434Y-146723908D01*
X97748433Y-146723908D01*
X98016496Y-146823890D01*
X98296029Y-146884699D01*
X98509955Y-146899999D01*
X98509958Y-146900000D01*
X99480581Y-146900000D01*
X99547620Y-146919685D01*
X99593375Y-146972489D01*
X99603319Y-147041647D01*
X99574294Y-147105203D01*
X99515516Y-147142977D01*
X99504772Y-147145617D01*
X99229819Y-147200308D01*
X98900685Y-147300150D01*
X98582927Y-147431770D01*
X98582922Y-147431772D01*
X98279616Y-147593893D01*
X98279598Y-147593904D01*
X97993640Y-147784975D01*
X97993626Y-147784985D01*
X97727759Y-148003176D01*
X97484568Y-148246367D01*
X97266377Y-148512234D01*
X97266367Y-148512248D01*
X97075296Y-148798206D01*
X97075285Y-148798224D01*
X96913164Y-149101530D01*
X96913162Y-149101535D01*
X96781542Y-149419293D01*
X96681700Y-149748427D01*
X96614602Y-150085750D01*
X96580892Y-150428034D01*
X73942357Y-150428034D01*
X73942357Y-150428031D01*
X73908646Y-150085750D01*
X73841547Y-149748422D01*
X73741707Y-149419295D01*
X73610088Y-149101538D01*
X73447957Y-148798213D01*
X73256876Y-148512240D01*
X73038685Y-148246373D01*
X73038684Y-148246372D01*
X73038680Y-148246367D01*
X72795489Y-148003176D01*
X72529622Y-147784985D01*
X72529621Y-147784984D01*
X72529617Y-147784981D01*
X72243644Y-147593900D01*
X72243639Y-147593897D01*
X72243632Y-147593893D01*
X71940326Y-147431772D01*
X71940321Y-147431770D01*
X71622563Y-147300150D01*
X71293429Y-147200308D01*
X71018477Y-147145617D01*
X70956566Y-147113232D01*
X70921992Y-147052516D01*
X70925731Y-146982747D01*
X70966598Y-146926075D01*
X71031616Y-146900494D01*
X71042668Y-146900000D01*
X72013291Y-146900000D01*
X72013293Y-146899999D01*
X72227219Y-146884699D01*
X72506752Y-146823890D01*
X72774815Y-146723908D01*
X73025895Y-146586808D01*
X73025896Y-146586807D01*
X73254922Y-146415360D01*
X73254934Y-146415350D01*
X73457207Y-146213077D01*
X73457217Y-146213065D01*
X73628664Y-145984039D01*
X73628665Y-145984038D01*
X73765765Y-145732958D01*
X73865747Y-145464895D01*
X73926556Y-145185362D01*
X73941856Y-144971436D01*
X73941857Y-144971434D01*
X73941857Y-143650000D01*
X72678359Y-143650000D01*
X72691857Y-143547473D01*
X72691857Y-143252527D01*
X72678359Y-143150000D01*
X73941857Y-143150000D01*
X73941857Y-141828566D01*
X73941856Y-141828563D01*
X73926556Y-141614637D01*
X73865747Y-141335104D01*
X73765765Y-141067041D01*
X73628665Y-140815961D01*
X73628664Y-140815960D01*
X73457217Y-140586934D01*
X73457207Y-140586922D01*
X73254934Y-140384649D01*
X73254922Y-140384639D01*
X73025896Y-140213192D01*
X73025895Y-140213191D01*
X72774814Y-140076091D01*
X72774815Y-140076091D01*
X72506752Y-139976109D01*
X72227219Y-139915300D01*
X72013293Y-139900000D01*
X70691857Y-139900000D01*
X70691857Y-141163497D01*
X70589330Y-141150000D01*
X70294384Y-141150000D01*
X70191857Y-141163497D01*
X70191857Y-139900000D01*
X68870420Y-139900000D01*
X68656494Y-139915300D01*
X68376961Y-139976109D01*
X68108898Y-140076091D01*
X67857818Y-140213191D01*
X67857817Y-140213192D01*
X67628791Y-140384639D01*
X67628779Y-140384649D01*
X67426506Y-140586922D01*
X67426496Y-140586934D01*
X67255049Y-140815960D01*
X67255048Y-140815961D01*
X67117948Y-141067041D01*
X67017966Y-141335104D01*
X66957157Y-141614637D01*
X66941857Y-141828563D01*
X66941857Y-143150000D01*
X68205355Y-143150000D01*
X68191857Y-143252527D01*
X68191857Y-143547473D01*
X68205355Y-143650000D01*
X66941857Y-143650000D01*
X66941857Y-144971436D01*
X66957157Y-145185362D01*
X67017966Y-145464895D01*
X67117948Y-145732958D01*
X67255048Y-145984038D01*
X67255049Y-145984039D01*
X67426496Y-146213065D01*
X67426506Y-146213077D01*
X67628779Y-146415350D01*
X67628791Y-146415360D01*
X67857817Y-146586807D01*
X67857818Y-146586808D01*
X68108899Y-146723908D01*
X68108898Y-146723908D01*
X68376961Y-146823890D01*
X68656494Y-146884699D01*
X68870420Y-146899999D01*
X68870423Y-146900000D01*
X69841046Y-146900000D01*
X69908085Y-146919685D01*
X69953840Y-146972489D01*
X69963784Y-147041647D01*
X69934759Y-147105203D01*
X69875981Y-147142977D01*
X69865237Y-147145617D01*
X69590284Y-147200308D01*
X69261150Y-147300150D01*
X68943392Y-147431770D01*
X68943387Y-147431772D01*
X68640081Y-147593893D01*
X68640063Y-147593904D01*
X68354105Y-147784975D01*
X68354091Y-147784985D01*
X68088224Y-148003176D01*
X67845033Y-148246367D01*
X67626842Y-148512234D01*
X67626832Y-148512248D01*
X67435761Y-148798206D01*
X67435750Y-148798224D01*
X67273629Y-149101530D01*
X67273627Y-149101535D01*
X67142007Y-149419293D01*
X67042165Y-149748427D01*
X66975067Y-150085750D01*
X66941357Y-150428034D01*
X42779571Y-150428034D01*
X42779571Y-150428031D01*
X42745860Y-150085750D01*
X42678761Y-149748422D01*
X42578921Y-149419295D01*
X42447302Y-149101538D01*
X42285171Y-148798213D01*
X42094090Y-148512240D01*
X41875899Y-148246373D01*
X41875898Y-148246372D01*
X41875894Y-148246367D01*
X41632703Y-148003176D01*
X41366836Y-147784985D01*
X41366835Y-147784984D01*
X41366831Y-147784981D01*
X41080858Y-147593900D01*
X41080853Y-147593897D01*
X41080846Y-147593893D01*
X40777540Y-147431772D01*
X40777535Y-147431770D01*
X40459777Y-147300150D01*
X40130643Y-147200308D01*
X39855691Y-147145617D01*
X39793780Y-147113232D01*
X39759206Y-147052516D01*
X39762945Y-146982747D01*
X39803812Y-146926075D01*
X39868830Y-146900494D01*
X39879882Y-146900000D01*
X40850505Y-146900000D01*
X40850507Y-146899999D01*
X41064433Y-146884699D01*
X41343966Y-146823890D01*
X41612029Y-146723908D01*
X41863109Y-146586808D01*
X41863110Y-146586807D01*
X42092136Y-146415360D01*
X42092148Y-146415350D01*
X42294421Y-146213077D01*
X42294431Y-146213065D01*
X42465878Y-145984039D01*
X42465879Y-145984038D01*
X42602979Y-145732958D01*
X42702961Y-145464895D01*
X42763770Y-145185362D01*
X42779070Y-144971436D01*
X42779071Y-144971434D01*
X42779071Y-143650000D01*
X41515573Y-143650000D01*
X41529071Y-143547473D01*
X41529071Y-143252527D01*
X41515573Y-143150000D01*
X42779071Y-143150000D01*
X42779071Y-141828566D01*
X42779070Y-141828563D01*
X42763770Y-141614637D01*
X42702961Y-141335104D01*
X42602979Y-141067041D01*
X42465879Y-140815961D01*
X42465878Y-140815960D01*
X42294431Y-140586934D01*
X42294421Y-140586922D01*
X42092148Y-140384649D01*
X42092136Y-140384639D01*
X41863110Y-140213192D01*
X41863109Y-140213191D01*
X41612028Y-140076091D01*
X41612029Y-140076091D01*
X41343966Y-139976109D01*
X41064433Y-139915300D01*
X40850507Y-139900000D01*
X39529071Y-139900000D01*
X39529071Y-141163497D01*
X39426544Y-141150000D01*
X39131598Y-141150000D01*
X39029071Y-141163497D01*
X39029071Y-139900000D01*
X37707634Y-139900000D01*
X37493708Y-139915300D01*
X37214175Y-139976109D01*
X36946112Y-140076091D01*
X36946106Y-140076094D01*
X36762997Y-140176079D01*
X36694724Y-140190931D01*
X36629260Y-140166514D01*
X36587389Y-140110580D01*
X36579571Y-140067247D01*
X36579571Y-124350925D01*
X36599256Y-124283886D01*
X36615890Y-124263244D01*
X40007278Y-120871856D01*
X40007283Y-120871851D01*
X40166924Y-120663802D01*
X40298043Y-120436697D01*
X40355403Y-120298217D01*
X40399242Y-120243815D01*
X40465536Y-120221750D01*
X40533236Y-120239029D01*
X40580448Y-120289376D01*
X40631132Y-120388848D01*
X40779201Y-120592649D01*
X40779205Y-120592654D01*
X40957345Y-120770794D01*
X40957350Y-120770798D01*
X41135117Y-120899952D01*
X41161155Y-120918870D01*
X41304184Y-120991747D01*
X41385616Y-121033239D01*
X41385618Y-121033239D01*
X41385621Y-121033241D01*
X41625215Y-121111090D01*
X41874038Y-121150500D01*
X41874039Y-121150500D01*
X42125961Y-121150500D01*
X42125962Y-121150500D01*
X42374785Y-121111090D01*
X42614379Y-121033241D01*
X42838845Y-120918870D01*
X43042656Y-120770793D01*
X43220793Y-120592656D01*
X43368870Y-120388845D01*
X43483241Y-120164379D01*
X43561090Y-119924785D01*
X43600500Y-119675962D01*
X43600500Y-119424038D01*
X43590151Y-119358698D01*
X43599105Y-119289407D01*
X43644101Y-119235955D01*
X43710853Y-119215315D01*
X43778167Y-119234040D01*
X43800305Y-119251621D01*
X43955063Y-119406379D01*
X44139772Y-119540579D01*
X44235884Y-119589550D01*
X44343196Y-119644229D01*
X44343198Y-119644229D01*
X44343201Y-119644231D01*
X44440856Y-119675961D01*
X44560339Y-119714784D01*
X44785838Y-119750500D01*
X44785843Y-119750500D01*
X45014162Y-119750500D01*
X45239660Y-119714784D01*
X45456799Y-119644231D01*
X45660228Y-119540579D01*
X45844937Y-119406379D01*
X45999697Y-119251618D01*
X46061017Y-119218136D01*
X46130708Y-119223120D01*
X46186642Y-119264991D01*
X46211059Y-119330456D01*
X46209849Y-119358696D01*
X46199500Y-119424038D01*
X46199500Y-119424043D01*
X46199500Y-119675961D01*
X46238910Y-119924785D01*
X46316760Y-120164383D01*
X46431132Y-120388848D01*
X46579201Y-120592649D01*
X46579205Y-120592654D01*
X46757345Y-120770794D01*
X46757350Y-120770798D01*
X46935117Y-120899952D01*
X46961155Y-120918870D01*
X47104184Y-120991747D01*
X47185616Y-121033239D01*
X47185618Y-121033239D01*
X47185621Y-121033241D01*
X47425215Y-121111090D01*
X47674038Y-121150500D01*
X47674039Y-121150500D01*
X47925961Y-121150500D01*
X47925962Y-121150500D01*
X48174785Y-121111090D01*
X48414379Y-121033241D01*
X48638845Y-120918870D01*
X48842656Y-120770793D01*
X49020793Y-120592656D01*
X49168870Y-120388845D01*
X49283241Y-120164379D01*
X49361090Y-119924785D01*
X49400500Y-119675962D01*
X49400500Y-119424038D01*
X49361090Y-119175215D01*
X49283241Y-118935621D01*
X49283239Y-118935618D01*
X49283239Y-118935616D01*
X49219551Y-118810623D01*
X49168870Y-118711155D01*
X49078535Y-118586819D01*
X49020798Y-118507350D01*
X49020794Y-118507345D01*
X48901130Y-118387681D01*
X48867645Y-118326358D01*
X48872629Y-118256666D01*
X48901130Y-118212319D01*
X48939180Y-118174269D01*
X49020793Y-118092656D01*
X49168870Y-117888845D01*
X49283241Y-117664379D01*
X49361090Y-117424785D01*
X49400500Y-117175962D01*
X49400500Y-116924038D01*
X49699500Y-116924038D01*
X49699500Y-117175962D01*
X49726808Y-117348378D01*
X49738910Y-117424785D01*
X49816760Y-117664383D01*
X49931132Y-117888848D01*
X50079201Y-118092649D01*
X50079205Y-118092654D01*
X50198870Y-118212319D01*
X50232355Y-118273642D01*
X50227371Y-118343334D01*
X50198870Y-118387681D01*
X50079205Y-118507345D01*
X50079201Y-118507350D01*
X49931132Y-118711151D01*
X49816760Y-118935616D01*
X49738910Y-119175214D01*
X49699500Y-119424038D01*
X49699500Y-119675961D01*
X49738910Y-119924785D01*
X49816760Y-120164383D01*
X49931132Y-120388848D01*
X50079201Y-120592649D01*
X50079205Y-120592654D01*
X50257345Y-120770794D01*
X50257350Y-120770798D01*
X50435117Y-120899952D01*
X50461155Y-120918870D01*
X50604184Y-120991747D01*
X50685616Y-121033239D01*
X50685618Y-121033239D01*
X50685621Y-121033241D01*
X50925215Y-121111090D01*
X51174038Y-121150500D01*
X51174039Y-121150500D01*
X51425961Y-121150500D01*
X51425962Y-121150500D01*
X51674785Y-121111090D01*
X51914379Y-121033241D01*
X52138845Y-120918870D01*
X52342656Y-120770793D01*
X52520793Y-120592656D01*
X52668870Y-120388845D01*
X52783241Y-120164379D01*
X52861090Y-119924785D01*
X52900500Y-119675962D01*
X52900500Y-119424038D01*
X52861090Y-119175215D01*
X52783241Y-118935621D01*
X52783239Y-118935618D01*
X52783239Y-118935616D01*
X52719551Y-118810623D01*
X52668870Y-118711155D01*
X52578535Y-118586819D01*
X52520798Y-118507350D01*
X52520794Y-118507345D01*
X52401130Y-118387681D01*
X52367645Y-118326358D01*
X52372629Y-118256666D01*
X52401130Y-118212319D01*
X52439180Y-118174269D01*
X52520793Y-118092656D01*
X52668870Y-117888845D01*
X52783241Y-117664379D01*
X52861090Y-117424785D01*
X52900500Y-117175962D01*
X52900500Y-116924038D01*
X52861090Y-116675215D01*
X52783241Y-116435621D01*
X52783239Y-116435618D01*
X52783239Y-116435616D01*
X52741747Y-116354184D01*
X52668870Y-116211155D01*
X52616926Y-116139660D01*
X52520798Y-116007350D01*
X52520794Y-116007345D01*
X52342654Y-115829205D01*
X52342649Y-115829201D01*
X52138848Y-115681132D01*
X52138847Y-115681131D01*
X52138845Y-115681130D01*
X52032189Y-115626786D01*
X51914383Y-115566760D01*
X51674785Y-115488910D01*
X51425962Y-115449500D01*
X51174038Y-115449500D01*
X51049626Y-115469205D01*
X50925214Y-115488910D01*
X50685616Y-115566760D01*
X50461151Y-115681132D01*
X50257350Y-115829201D01*
X50257345Y-115829205D01*
X50079205Y-116007345D01*
X50079201Y-116007350D01*
X49931132Y-116211151D01*
X49816760Y-116435616D01*
X49738910Y-116675214D01*
X49729593Y-116734040D01*
X49699500Y-116924038D01*
X49400500Y-116924038D01*
X49361090Y-116675215D01*
X49283241Y-116435621D01*
X49283239Y-116435618D01*
X49283239Y-116435616D01*
X49241747Y-116354184D01*
X49168870Y-116211155D01*
X49116926Y-116139660D01*
X49020798Y-116007350D01*
X49020794Y-116007345D01*
X48842654Y-115829205D01*
X48842649Y-115829201D01*
X48638848Y-115681132D01*
X48638847Y-115681131D01*
X48638845Y-115681130D01*
X48532189Y-115626786D01*
X48414383Y-115566760D01*
X48174785Y-115488910D01*
X47925962Y-115449500D01*
X47674038Y-115449500D01*
X47549626Y-115469205D01*
X47425214Y-115488910D01*
X47185616Y-115566760D01*
X46961151Y-115681132D01*
X46757350Y-115829201D01*
X46757345Y-115829205D01*
X46579205Y-116007345D01*
X46579201Y-116007350D01*
X46431132Y-116211151D01*
X46316760Y-116435616D01*
X46238910Y-116675214D01*
X46199500Y-116924038D01*
X46199500Y-117175962D01*
X46199499Y-117175962D01*
X46209848Y-117241300D01*
X46200893Y-117310593D01*
X46155896Y-117364045D01*
X46089145Y-117384684D01*
X46021831Y-117365959D01*
X45999694Y-117348378D01*
X45844938Y-117193622D01*
X45844935Y-117193620D01*
X45660228Y-117059421D01*
X45456803Y-116955770D01*
X45239660Y-116885215D01*
X45014162Y-116849500D01*
X45014157Y-116849500D01*
X44785843Y-116849500D01*
X44785838Y-116849500D01*
X44560339Y-116885215D01*
X44343196Y-116955770D01*
X44139771Y-117059421D01*
X43955064Y-117193620D01*
X43800305Y-117348379D01*
X43738982Y-117381863D01*
X43669290Y-117376879D01*
X43613357Y-117335007D01*
X43588940Y-117269543D01*
X43590151Y-117241300D01*
X43600500Y-117175962D01*
X43600500Y-116924038D01*
X43561090Y-116675215D01*
X43483241Y-116435621D01*
X43483239Y-116435618D01*
X43483239Y-116435616D01*
X43441747Y-116354184D01*
X43368870Y-116211155D01*
X43316926Y-116139660D01*
X43220798Y-116007350D01*
X43220794Y-116007345D01*
X43042654Y-115829205D01*
X43042649Y-115829201D01*
X42838848Y-115681132D01*
X42838847Y-115681131D01*
X42838845Y-115681130D01*
X42732189Y-115626786D01*
X42614383Y-115566760D01*
X42374785Y-115488910D01*
X42125962Y-115449500D01*
X41874038Y-115449500D01*
X41749626Y-115469205D01*
X41625214Y-115488910D01*
X41385616Y-115566760D01*
X41161151Y-115681132D01*
X40957350Y-115829201D01*
X40957345Y-115829205D01*
X40779205Y-116007345D01*
X40779201Y-116007350D01*
X40631132Y-116211151D01*
X40516760Y-116435616D01*
X40438910Y-116675214D01*
X40429593Y-116734040D01*
X40399500Y-116924038D01*
X40399500Y-117175962D01*
X40426808Y-117348378D01*
X40438910Y-117424785D01*
X40516760Y-117664383D01*
X40631132Y-117888848D01*
X40779201Y-118092649D01*
X40779205Y-118092654D01*
X40898870Y-118212319D01*
X40932355Y-118273642D01*
X40927371Y-118343334D01*
X40898870Y-118387681D01*
X40779205Y-118507345D01*
X40779201Y-118507350D01*
X40631132Y-118711151D01*
X40580448Y-118810623D01*
X40532473Y-118861419D01*
X40464652Y-118878214D01*
X40398517Y-118855676D01*
X40355402Y-118801780D01*
X40298048Y-118663314D01*
X40298041Y-118663299D01*
X40166924Y-118436198D01*
X40007284Y-118228150D01*
X40007278Y-118228143D01*
X39859220Y-118080085D01*
X39825735Y-118018762D01*
X39830719Y-117949070D01*
X39846579Y-117919524D01*
X39868870Y-117888845D01*
X39983241Y-117664379D01*
X40061090Y-117424785D01*
X40100500Y-117175962D01*
X40100500Y-116924038D01*
X40061090Y-116675215D01*
X39983241Y-116435621D01*
X39983239Y-116435618D01*
X39983239Y-116435616D01*
X39941747Y-116354184D01*
X39868870Y-116211155D01*
X39816926Y-116139660D01*
X39720798Y-116007350D01*
X39720794Y-116007345D01*
X39542654Y-115829205D01*
X39542649Y-115829201D01*
X39338848Y-115681132D01*
X39338847Y-115681131D01*
X39338845Y-115681130D01*
X39232189Y-115626786D01*
X39114383Y-115566760D01*
X38874785Y-115488910D01*
X38625962Y-115449500D01*
X38374038Y-115449500D01*
X38249626Y-115469205D01*
X38125214Y-115488910D01*
X37885616Y-115566760D01*
X37661151Y-115681132D01*
X37457350Y-115829201D01*
X37457345Y-115829205D01*
X37279205Y-116007345D01*
X37279201Y-116007350D01*
X37131132Y-116211151D01*
X37016760Y-116435616D01*
X36938910Y-116675214D01*
X36929593Y-116734040D01*
X36899500Y-116924038D01*
X36899500Y-117175962D01*
X36926808Y-117348378D01*
X36938910Y-117424785D01*
X37016760Y-117664383D01*
X37131132Y-117888848D01*
X37153416Y-117919520D01*
X37176896Y-117985326D01*
X37161071Y-118053380D01*
X37140779Y-118080086D01*
X33071792Y-122149072D01*
X33071786Y-122149079D01*
X32981459Y-122266797D01*
X32950135Y-122307618D01*
X32912143Y-122357130D01*
X32781029Y-122584228D01*
X32781025Y-122584238D01*
X32680673Y-122826509D01*
X32612799Y-123079816D01*
X32595714Y-123209594D01*
X32595694Y-123209744D01*
X32595686Y-123209811D01*
X32578571Y-123339809D01*
X21750500Y-123339809D01*
X21750500Y-108874038D01*
X36899500Y-108874038D01*
X36899500Y-109125962D01*
X36926808Y-109298378D01*
X36938910Y-109374785D01*
X37016760Y-109614383D01*
X37131132Y-109838848D01*
X37279201Y-110042649D01*
X37279205Y-110042654D01*
X37398870Y-110162319D01*
X37432355Y-110223642D01*
X37427371Y-110293334D01*
X37398870Y-110337681D01*
X37279205Y-110457345D01*
X37279201Y-110457350D01*
X37131132Y-110661151D01*
X37016760Y-110885616D01*
X36938910Y-111125214D01*
X36899500Y-111374038D01*
X36899500Y-111625961D01*
X36938910Y-111874785D01*
X37016760Y-112114383D01*
X37131132Y-112338848D01*
X37279201Y-112542649D01*
X37279205Y-112542654D01*
X37457345Y-112720794D01*
X37457350Y-112720798D01*
X37635117Y-112849952D01*
X37661155Y-112868870D01*
X37804184Y-112941747D01*
X37885616Y-112983239D01*
X37885618Y-112983239D01*
X37885621Y-112983241D01*
X38125215Y-113061090D01*
X38374038Y-113100500D01*
X38374039Y-113100500D01*
X38625961Y-113100500D01*
X38625962Y-113100500D01*
X38874785Y-113061090D01*
X39114379Y-112983241D01*
X39338845Y-112868870D01*
X39542656Y-112720793D01*
X39720793Y-112542656D01*
X39868870Y-112338845D01*
X39983241Y-112114379D01*
X40061090Y-111874785D01*
X40100500Y-111625962D01*
X40100500Y-111374038D01*
X40061090Y-111125215D01*
X39983241Y-110885621D01*
X39983239Y-110885618D01*
X39983239Y-110885616D01*
X39924423Y-110770185D01*
X39868870Y-110661155D01*
X39783968Y-110544297D01*
X39720798Y-110457350D01*
X39720794Y-110457345D01*
X39601130Y-110337681D01*
X39567645Y-110276358D01*
X39572629Y-110206666D01*
X39601130Y-110162319D01*
X39639180Y-110124269D01*
X39720793Y-110042656D01*
X39868870Y-109838845D01*
X39983241Y-109614379D01*
X40061090Y-109374785D01*
X40100500Y-109125962D01*
X40100500Y-108874038D01*
X40399500Y-108874038D01*
X40399500Y-109125962D01*
X40426808Y-109298378D01*
X40438910Y-109374785D01*
X40516760Y-109614383D01*
X40631132Y-109838848D01*
X40779201Y-110042649D01*
X40779205Y-110042654D01*
X40898870Y-110162319D01*
X40932355Y-110223642D01*
X40927371Y-110293334D01*
X40898870Y-110337681D01*
X40779205Y-110457345D01*
X40779201Y-110457350D01*
X40631132Y-110661151D01*
X40516760Y-110885616D01*
X40438910Y-111125214D01*
X40399500Y-111374038D01*
X40399500Y-111625961D01*
X40438910Y-111874785D01*
X40516760Y-112114383D01*
X40631132Y-112338848D01*
X40779201Y-112542649D01*
X40779205Y-112542654D01*
X40957345Y-112720794D01*
X40957350Y-112720798D01*
X41135117Y-112849952D01*
X41161155Y-112868870D01*
X41304184Y-112941747D01*
X41385616Y-112983239D01*
X41385618Y-112983239D01*
X41385621Y-112983241D01*
X41625215Y-113061090D01*
X41874038Y-113100500D01*
X41874039Y-113100500D01*
X42125961Y-113100500D01*
X42125962Y-113100500D01*
X42374785Y-113061090D01*
X42614379Y-112983241D01*
X42838845Y-112868870D01*
X43042656Y-112720793D01*
X43220793Y-112542656D01*
X43368870Y-112338845D01*
X43483241Y-112114379D01*
X43561090Y-111874785D01*
X43600500Y-111625962D01*
X43600500Y-111374038D01*
X43590151Y-111308698D01*
X43599105Y-111239407D01*
X43644101Y-111185955D01*
X43710853Y-111165315D01*
X43778167Y-111184040D01*
X43800305Y-111201621D01*
X43955063Y-111356379D01*
X44139772Y-111490579D01*
X44235884Y-111539550D01*
X44343196Y-111594229D01*
X44343198Y-111594229D01*
X44343201Y-111594231D01*
X44440856Y-111625961D01*
X44560339Y-111664784D01*
X44785838Y-111700500D01*
X44785843Y-111700500D01*
X45014162Y-111700500D01*
X45239660Y-111664784D01*
X45456799Y-111594231D01*
X45660228Y-111490579D01*
X45844937Y-111356379D01*
X45999697Y-111201618D01*
X46061017Y-111168136D01*
X46130708Y-111173120D01*
X46186642Y-111214991D01*
X46211059Y-111280456D01*
X46209849Y-111308696D01*
X46199500Y-111374038D01*
X46199500Y-111374043D01*
X46199500Y-111625961D01*
X46238910Y-111874785D01*
X46316760Y-112114383D01*
X46431132Y-112338848D01*
X46579201Y-112542649D01*
X46579205Y-112542654D01*
X46757345Y-112720794D01*
X46757350Y-112720798D01*
X46935117Y-112849952D01*
X46961155Y-112868870D01*
X47104184Y-112941747D01*
X47185616Y-112983239D01*
X47185618Y-112983239D01*
X47185621Y-112983241D01*
X47425215Y-113061090D01*
X47674038Y-113100500D01*
X47674039Y-113100500D01*
X47925961Y-113100500D01*
X47925962Y-113100500D01*
X48174785Y-113061090D01*
X48414379Y-112983241D01*
X48638845Y-112868870D01*
X48842656Y-112720793D01*
X49020793Y-112542656D01*
X49168870Y-112338845D01*
X49283241Y-112114379D01*
X49361090Y-111874785D01*
X49400500Y-111625962D01*
X49400500Y-111374038D01*
X49361090Y-111125215D01*
X49283241Y-110885621D01*
X49283239Y-110885618D01*
X49283239Y-110885616D01*
X49224423Y-110770185D01*
X49168870Y-110661155D01*
X49083968Y-110544297D01*
X49020798Y-110457350D01*
X49020794Y-110457345D01*
X48901130Y-110337681D01*
X48867645Y-110276358D01*
X48872629Y-110206666D01*
X48901130Y-110162319D01*
X48939180Y-110124269D01*
X49020793Y-110042656D01*
X49168870Y-109838845D01*
X49283241Y-109614379D01*
X49356182Y-109389887D01*
X49395619Y-109332213D01*
X49459978Y-109305015D01*
X49528824Y-109316930D01*
X49580300Y-109364174D01*
X49593888Y-109396114D01*
X49638842Y-109563887D01*
X49726650Y-109775876D01*
X49726657Y-109775890D01*
X49841392Y-109974617D01*
X49981081Y-110156661D01*
X49981089Y-110156670D01*
X50092803Y-110268384D01*
X50126288Y-110329707D01*
X50121304Y-110399399D01*
X50092806Y-110443744D01*
X50079203Y-110457347D01*
X49931132Y-110661151D01*
X49816760Y-110885616D01*
X49738910Y-111125214D01*
X49699500Y-111374038D01*
X49699500Y-111625961D01*
X49738910Y-111874785D01*
X49816760Y-112114383D01*
X49931132Y-112338848D01*
X50079201Y-112542649D01*
X50079205Y-112542654D01*
X50257345Y-112720794D01*
X50257350Y-112720798D01*
X50435117Y-112849952D01*
X50461155Y-112868870D01*
X50604184Y-112941747D01*
X50685616Y-112983239D01*
X50685618Y-112983239D01*
X50685621Y-112983241D01*
X50925215Y-113061090D01*
X51174038Y-113100500D01*
X51174039Y-113100500D01*
X51425961Y-113100500D01*
X51425962Y-113100500D01*
X51674785Y-113061090D01*
X51914379Y-112983241D01*
X52138845Y-112868870D01*
X52342656Y-112720793D01*
X52520793Y-112542656D01*
X52668870Y-112338845D01*
X52783241Y-112114379D01*
X52861090Y-111874785D01*
X52900500Y-111625962D01*
X52900500Y-111374038D01*
X52861090Y-111125215D01*
X52861089Y-111125211D01*
X52861089Y-111125210D01*
X52792078Y-110912818D01*
X52790083Y-110842977D01*
X52826163Y-110783144D01*
X52888864Y-110752316D01*
X52910009Y-110750500D01*
X116223557Y-110750500D01*
X116290596Y-110770185D01*
X116311238Y-110786819D01*
X142213181Y-136688761D01*
X142246666Y-136750084D01*
X142249500Y-136776442D01*
X142249500Y-151114741D01*
X142266574Y-151244419D01*
X142266574Y-151244420D01*
X142279452Y-151342238D01*
X142279452Y-151342239D01*
X142288467Y-151375887D01*
X142288468Y-151375887D01*
X142337516Y-151558940D01*
X142338843Y-151563889D01*
X142426650Y-151775876D01*
X142426657Y-151775891D01*
X142541385Y-151974606D01*
X142541387Y-151974608D01*
X142541389Y-151974612D01*
X142553631Y-151990565D01*
X142553632Y-151990568D01*
X142553633Y-151990568D01*
X142681078Y-152156659D01*
X142681084Y-152156666D01*
X149181081Y-158656661D01*
X149343339Y-158818919D01*
X149393962Y-158857764D01*
X149525382Y-158958607D01*
X149525385Y-158958608D01*
X149525388Y-158958611D01*
X149724112Y-159073344D01*
X149724117Y-159073346D01*
X149724123Y-159073349D01*
X149802429Y-159105784D01*
X149936113Y-159161158D01*
X150157761Y-159220548D01*
X150184223Y-159224031D01*
X150184227Y-159224033D01*
X150184228Y-159224032D01*
X150385266Y-159250500D01*
X150385273Y-159250500D01*
X182214727Y-159250500D01*
X182214734Y-159250500D01*
X182415771Y-159224032D01*
X182415772Y-159224032D01*
X182442229Y-159220550D01*
X182442234Y-159220548D01*
X182442239Y-159220548D01*
X182663887Y-159161158D01*
X182875888Y-159073344D01*
X183074612Y-158958611D01*
X183165636Y-158888765D01*
X183256661Y-158818920D01*
X188041059Y-154034520D01*
X188102380Y-154001037D01*
X188152926Y-154000586D01*
X188485750Y-154066789D01*
X188828031Y-154100500D01*
X188828034Y-154100500D01*
X189171966Y-154100500D01*
X189171969Y-154100500D01*
X189514250Y-154066789D01*
X189851578Y-153999690D01*
X190180705Y-153899850D01*
X190498462Y-153768231D01*
X190801787Y-153606100D01*
X191087760Y-153415019D01*
X191353627Y-153196828D01*
X191596828Y-152953627D01*
X191815019Y-152687760D01*
X192006100Y-152401787D01*
X192168231Y-152098462D01*
X192299850Y-151780705D01*
X192399690Y-151451578D01*
X192466789Y-151114250D01*
X192500500Y-150771969D01*
X192500500Y-150428034D01*
X215139035Y-150428034D01*
X215139035Y-150771965D01*
X215172745Y-151114249D01*
X215239843Y-151451572D01*
X215339685Y-151780706D01*
X215471305Y-152098464D01*
X215471307Y-152098469D01*
X215633428Y-152401775D01*
X215633439Y-152401793D01*
X215824510Y-152687751D01*
X215824520Y-152687765D01*
X216042711Y-152953632D01*
X216285902Y-153196823D01*
X216285907Y-153196827D01*
X216285908Y-153196828D01*
X216551775Y-153415019D01*
X216837748Y-153606100D01*
X216837757Y-153606105D01*
X216837759Y-153606106D01*
X217141065Y-153768227D01*
X217141067Y-153768227D01*
X217141073Y-153768231D01*
X217458830Y-153899850D01*
X217787957Y-153999690D01*
X218125285Y-154066789D01*
X218467566Y-154100500D01*
X218467569Y-154100500D01*
X218811501Y-154100500D01*
X218811504Y-154100500D01*
X219153785Y-154066789D01*
X219491113Y-153999690D01*
X219820240Y-153899850D01*
X220137997Y-153768231D01*
X220441322Y-153606100D01*
X220727295Y-153415019D01*
X220993162Y-153196828D01*
X221236363Y-152953627D01*
X221454554Y-152687760D01*
X221645635Y-152401787D01*
X221807766Y-152098462D01*
X221939385Y-151780705D01*
X222039225Y-151451578D01*
X222106324Y-151114250D01*
X222140035Y-150771969D01*
X222140035Y-150428034D01*
X244778571Y-150428034D01*
X244778571Y-150771965D01*
X244812281Y-151114249D01*
X244879379Y-151451572D01*
X244979221Y-151780706D01*
X245110841Y-152098464D01*
X245110843Y-152098469D01*
X245272964Y-152401775D01*
X245272975Y-152401793D01*
X245464046Y-152687751D01*
X245464056Y-152687765D01*
X245682247Y-152953632D01*
X245925438Y-153196823D01*
X245925443Y-153196827D01*
X245925444Y-153196828D01*
X246191311Y-153415019D01*
X246477284Y-153606100D01*
X246477293Y-153606105D01*
X246477295Y-153606106D01*
X246780601Y-153768227D01*
X246780603Y-153768227D01*
X246780609Y-153768231D01*
X247098366Y-153899850D01*
X247427493Y-153999690D01*
X247764821Y-154066789D01*
X248107102Y-154100500D01*
X248107105Y-154100500D01*
X248451037Y-154100500D01*
X248451040Y-154100500D01*
X248793321Y-154066789D01*
X249130649Y-153999690D01*
X249459776Y-153899850D01*
X249777533Y-153768231D01*
X250080858Y-153606100D01*
X250366831Y-153415019D01*
X250632698Y-153196828D01*
X250875899Y-152953627D01*
X251094090Y-152687760D01*
X251285171Y-152401787D01*
X251447302Y-152098462D01*
X251578921Y-151780705D01*
X251678761Y-151451578D01*
X251745860Y-151114250D01*
X251779571Y-150771969D01*
X251779571Y-150428031D01*
X251745860Y-150085750D01*
X251678761Y-149748422D01*
X251578921Y-149419295D01*
X251447302Y-149101538D01*
X251285171Y-148798213D01*
X251094090Y-148512240D01*
X250875899Y-148246373D01*
X250875898Y-148246372D01*
X250875894Y-148246367D01*
X250632703Y-148003176D01*
X250366836Y-147784985D01*
X250366835Y-147784984D01*
X250366831Y-147784981D01*
X250080858Y-147593900D01*
X250080853Y-147593897D01*
X250080846Y-147593893D01*
X249777540Y-147431772D01*
X249777535Y-147431770D01*
X249459777Y-147300150D01*
X249130643Y-147200308D01*
X248855691Y-147145617D01*
X248793780Y-147113232D01*
X248759206Y-147052516D01*
X248762945Y-146982747D01*
X248803812Y-146926075D01*
X248868830Y-146900494D01*
X248879882Y-146900000D01*
X249850505Y-146900000D01*
X249850507Y-146899999D01*
X250064433Y-146884699D01*
X250343966Y-146823890D01*
X250612029Y-146723908D01*
X250863109Y-146586808D01*
X250863110Y-146586807D01*
X251092136Y-146415360D01*
X251092148Y-146415350D01*
X251294421Y-146213077D01*
X251294431Y-146213065D01*
X251465878Y-145984039D01*
X251465879Y-145984038D01*
X251602979Y-145732958D01*
X251702961Y-145464895D01*
X251763770Y-145185362D01*
X251779070Y-144971436D01*
X251779071Y-144971434D01*
X251779071Y-143650000D01*
X250515573Y-143650000D01*
X250529071Y-143547473D01*
X250529071Y-143252527D01*
X250515573Y-143150000D01*
X251779071Y-143150000D01*
X251779071Y-141828566D01*
X251779070Y-141828563D01*
X251763770Y-141614637D01*
X251702961Y-141335104D01*
X251602979Y-141067041D01*
X251465879Y-140815961D01*
X251465878Y-140815960D01*
X251294431Y-140586934D01*
X251294421Y-140586922D01*
X251092148Y-140384649D01*
X251092136Y-140384639D01*
X250863110Y-140213192D01*
X250863109Y-140213191D01*
X250612028Y-140076091D01*
X250612029Y-140076091D01*
X250343966Y-139976109D01*
X250064433Y-139915300D01*
X249850507Y-139900000D01*
X248529071Y-139900000D01*
X248529071Y-141163497D01*
X248426544Y-141150000D01*
X248131598Y-141150000D01*
X248029071Y-141163497D01*
X248029071Y-139900000D01*
X246707634Y-139900000D01*
X246493708Y-139915300D01*
X246214175Y-139976109D01*
X245946112Y-140076091D01*
X245695032Y-140213191D01*
X245695031Y-140213192D01*
X245466005Y-140384639D01*
X245465993Y-140384649D01*
X245263720Y-140586922D01*
X245263710Y-140586934D01*
X245092263Y-140815960D01*
X245092262Y-140815961D01*
X244955162Y-141067041D01*
X244855180Y-141335104D01*
X244794371Y-141614637D01*
X244779071Y-141828563D01*
X244779071Y-143150000D01*
X246042569Y-143150000D01*
X246029071Y-143252527D01*
X246029071Y-143547473D01*
X246042569Y-143650000D01*
X244779071Y-143650000D01*
X244779071Y-144971436D01*
X244794371Y-145185362D01*
X244855180Y-145464895D01*
X244955162Y-145732958D01*
X245092262Y-145984038D01*
X245092263Y-145984039D01*
X245263710Y-146213065D01*
X245263720Y-146213077D01*
X245465993Y-146415350D01*
X245466005Y-146415360D01*
X245695031Y-146586807D01*
X245695032Y-146586808D01*
X245946113Y-146723908D01*
X245946112Y-146723908D01*
X246214175Y-146823890D01*
X246493708Y-146884699D01*
X246707634Y-146899999D01*
X246707637Y-146900000D01*
X247678260Y-146900000D01*
X247745299Y-146919685D01*
X247791054Y-146972489D01*
X247800998Y-147041647D01*
X247771973Y-147105203D01*
X247713195Y-147142977D01*
X247702451Y-147145617D01*
X247427498Y-147200308D01*
X247098364Y-147300150D01*
X246780606Y-147431770D01*
X246780601Y-147431772D01*
X246477295Y-147593893D01*
X246477277Y-147593904D01*
X246191319Y-147784975D01*
X246191305Y-147784985D01*
X245925438Y-148003176D01*
X245682247Y-148246367D01*
X245464056Y-148512234D01*
X245464046Y-148512248D01*
X245272975Y-148798206D01*
X245272964Y-148798224D01*
X245110843Y-149101530D01*
X245110841Y-149101535D01*
X244979221Y-149419293D01*
X244879379Y-149748427D01*
X244812281Y-150085750D01*
X244778571Y-150428034D01*
X222140035Y-150428034D01*
X222140035Y-150428031D01*
X222106324Y-150085750D01*
X222039225Y-149748422D01*
X221939385Y-149419295D01*
X221807766Y-149101538D01*
X221645635Y-148798213D01*
X221454554Y-148512240D01*
X221236363Y-148246373D01*
X221236362Y-148246372D01*
X221236358Y-148246367D01*
X220993167Y-148003176D01*
X220727300Y-147784985D01*
X220727299Y-147784984D01*
X220727295Y-147784981D01*
X220441322Y-147593900D01*
X220441317Y-147593897D01*
X220441310Y-147593893D01*
X220138004Y-147431772D01*
X220137999Y-147431770D01*
X219820241Y-147300150D01*
X219491107Y-147200308D01*
X219216155Y-147145617D01*
X219154244Y-147113232D01*
X219119670Y-147052516D01*
X219123409Y-146982747D01*
X219164276Y-146926075D01*
X219229294Y-146900494D01*
X219240346Y-146900000D01*
X220210969Y-146900000D01*
X220210971Y-146899999D01*
X220424897Y-146884699D01*
X220704430Y-146823890D01*
X220972493Y-146723908D01*
X221223573Y-146586808D01*
X221223574Y-146586807D01*
X221452600Y-146415360D01*
X221452612Y-146415350D01*
X221654885Y-146213077D01*
X221654895Y-146213065D01*
X221826342Y-145984039D01*
X221826343Y-145984038D01*
X221963443Y-145732958D01*
X222063425Y-145464895D01*
X222124234Y-145185362D01*
X222139534Y-144971436D01*
X222139535Y-144971434D01*
X222139535Y-143650000D01*
X220876037Y-143650000D01*
X220889535Y-143547473D01*
X220889535Y-143252527D01*
X220876037Y-143150000D01*
X222139535Y-143150000D01*
X222139535Y-141828566D01*
X222139534Y-141828563D01*
X222124234Y-141614637D01*
X222063425Y-141335104D01*
X221963443Y-141067041D01*
X221826343Y-140815961D01*
X221826342Y-140815960D01*
X221654895Y-140586934D01*
X221654885Y-140586922D01*
X221452612Y-140384649D01*
X221452600Y-140384639D01*
X221223574Y-140213192D01*
X221223573Y-140213191D01*
X220972492Y-140076091D01*
X220972493Y-140076091D01*
X220704430Y-139976109D01*
X220424897Y-139915300D01*
X220210971Y-139900000D01*
X218889535Y-139900000D01*
X218889535Y-141163497D01*
X218787008Y-141150000D01*
X218492062Y-141150000D01*
X218389535Y-141163497D01*
X218389535Y-139900000D01*
X217068098Y-139900000D01*
X216854172Y-139915300D01*
X216574639Y-139976109D01*
X216306576Y-140076091D01*
X216055496Y-140213191D01*
X216055495Y-140213192D01*
X215826469Y-140384639D01*
X215826457Y-140384649D01*
X215624184Y-140586922D01*
X215624174Y-140586934D01*
X215452727Y-140815960D01*
X215452726Y-140815961D01*
X215315626Y-141067041D01*
X215215644Y-141335104D01*
X215154835Y-141614637D01*
X215139535Y-141828563D01*
X215139535Y-143150000D01*
X216403033Y-143150000D01*
X216389535Y-143252527D01*
X216389535Y-143547473D01*
X216403033Y-143650000D01*
X215139535Y-143650000D01*
X215139535Y-144971436D01*
X215154835Y-145185362D01*
X215215644Y-145464895D01*
X215315626Y-145732958D01*
X215452726Y-145984038D01*
X215452727Y-145984039D01*
X215624174Y-146213065D01*
X215624184Y-146213077D01*
X215826457Y-146415350D01*
X215826469Y-146415360D01*
X216055495Y-146586807D01*
X216055496Y-146586808D01*
X216306577Y-146723908D01*
X216306576Y-146723908D01*
X216574639Y-146823890D01*
X216854172Y-146884699D01*
X217068098Y-146899999D01*
X217068101Y-146900000D01*
X218038724Y-146900000D01*
X218105763Y-146919685D01*
X218151518Y-146972489D01*
X218161462Y-147041647D01*
X218132437Y-147105203D01*
X218073659Y-147142977D01*
X218062915Y-147145617D01*
X217787962Y-147200308D01*
X217458828Y-147300150D01*
X217141070Y-147431770D01*
X217141065Y-147431772D01*
X216837759Y-147593893D01*
X216837741Y-147593904D01*
X216551783Y-147784975D01*
X216551769Y-147784985D01*
X216285902Y-148003176D01*
X216042711Y-148246367D01*
X215824520Y-148512234D01*
X215824510Y-148512248D01*
X215633439Y-148798206D01*
X215633428Y-148798224D01*
X215471307Y-149101530D01*
X215471305Y-149101535D01*
X215339685Y-149419293D01*
X215239843Y-149748427D01*
X215172745Y-150085750D01*
X215139035Y-150428034D01*
X192500500Y-150428034D01*
X192500500Y-150428031D01*
X192466789Y-150085750D01*
X192399690Y-149748422D01*
X192299850Y-149419295D01*
X192168231Y-149101538D01*
X192006100Y-148798213D01*
X191815019Y-148512240D01*
X191596828Y-148246373D01*
X191596827Y-148246372D01*
X191596823Y-148246367D01*
X191353632Y-148003176D01*
X191087765Y-147784985D01*
X191087764Y-147784984D01*
X191087760Y-147784981D01*
X190801787Y-147593900D01*
X190801782Y-147593897D01*
X190801775Y-147593893D01*
X190498469Y-147431772D01*
X190498464Y-147431770D01*
X190180706Y-147300150D01*
X189851572Y-147200308D01*
X189576620Y-147145617D01*
X189514709Y-147113232D01*
X189480135Y-147052516D01*
X189483874Y-146982747D01*
X189524741Y-146926075D01*
X189589759Y-146900494D01*
X189600811Y-146900000D01*
X190571434Y-146900000D01*
X190571436Y-146899999D01*
X190785362Y-146884699D01*
X191064895Y-146823890D01*
X191332958Y-146723908D01*
X191584038Y-146586808D01*
X191584039Y-146586807D01*
X191813065Y-146415360D01*
X191813077Y-146415350D01*
X192015350Y-146213077D01*
X192015360Y-146213065D01*
X192186807Y-145984039D01*
X192186808Y-145984038D01*
X192323908Y-145732958D01*
X192423890Y-145464895D01*
X192484699Y-145185362D01*
X192499999Y-144971436D01*
X192500000Y-144971434D01*
X192500000Y-143650000D01*
X191236502Y-143650000D01*
X191250000Y-143547473D01*
X191250000Y-143252527D01*
X191236502Y-143150000D01*
X192500000Y-143150000D01*
X192500000Y-141828566D01*
X192499999Y-141828563D01*
X192484699Y-141614637D01*
X192423890Y-141335104D01*
X192323908Y-141067041D01*
X192186808Y-140815961D01*
X192186807Y-140815960D01*
X192015360Y-140586934D01*
X192015350Y-140586922D01*
X191813077Y-140384649D01*
X191813065Y-140384639D01*
X191584039Y-140213192D01*
X191584038Y-140213191D01*
X191332957Y-140076091D01*
X191332958Y-140076091D01*
X191064895Y-139976109D01*
X190785362Y-139915300D01*
X190571436Y-139900000D01*
X189250000Y-139900000D01*
X189250000Y-141163497D01*
X189147473Y-141150000D01*
X188852527Y-141150000D01*
X188750000Y-141163497D01*
X188750000Y-139900000D01*
X187428563Y-139900000D01*
X187214637Y-139915300D01*
X186935104Y-139976109D01*
X186667041Y-140076091D01*
X186415961Y-140213191D01*
X186415960Y-140213192D01*
X186186934Y-140384639D01*
X186186922Y-140384649D01*
X185984649Y-140586922D01*
X185984639Y-140586934D01*
X185813192Y-140815960D01*
X185813191Y-140815961D01*
X185676091Y-141067041D01*
X185576109Y-141335104D01*
X185515300Y-141614637D01*
X185500000Y-141828563D01*
X185500000Y-143150000D01*
X186763498Y-143150000D01*
X186750000Y-143252527D01*
X186750000Y-143547473D01*
X186763498Y-143650000D01*
X185500000Y-143650000D01*
X185500000Y-144971436D01*
X185515300Y-145185362D01*
X185576109Y-145464895D01*
X185676091Y-145732958D01*
X185813191Y-145984038D01*
X185813192Y-145984039D01*
X185984639Y-146213065D01*
X185984649Y-146213077D01*
X186186922Y-146415350D01*
X186186934Y-146415360D01*
X186415960Y-146586807D01*
X186415961Y-146586808D01*
X186667042Y-146723908D01*
X186667041Y-146723908D01*
X186935104Y-146823890D01*
X187214637Y-146884699D01*
X187428563Y-146899999D01*
X187428566Y-146900000D01*
X188399189Y-146900000D01*
X188466228Y-146919685D01*
X188511983Y-146972489D01*
X188521927Y-147041647D01*
X188492902Y-147105203D01*
X188434124Y-147142977D01*
X188423380Y-147145617D01*
X188148427Y-147200308D01*
X187819293Y-147300150D01*
X187501535Y-147431770D01*
X187501530Y-147431772D01*
X187198224Y-147593893D01*
X187198206Y-147593904D01*
X186912248Y-147784975D01*
X186912234Y-147784985D01*
X186646367Y-148003176D01*
X186403176Y-148246367D01*
X186184985Y-148512234D01*
X186184975Y-148512248D01*
X185993904Y-148798206D01*
X185993893Y-148798224D01*
X185831772Y-149101530D01*
X185831770Y-149101535D01*
X185700150Y-149419293D01*
X185600308Y-149748427D01*
X185533210Y-150085750D01*
X185499500Y-150428034D01*
X185499500Y-150771965D01*
X185533210Y-151114249D01*
X185599413Y-151447068D01*
X185593186Y-151516659D01*
X185565477Y-151558940D01*
X181411238Y-155713181D01*
X181349915Y-155746666D01*
X181323557Y-155749500D01*
X151276442Y-155749500D01*
X151209403Y-155729815D01*
X151188761Y-155713181D01*
X145786819Y-150311238D01*
X145753334Y-150249915D01*
X145750500Y-150223557D01*
X145750500Y-135885272D01*
X145750499Y-135885258D01*
X145749057Y-135874312D01*
X145720548Y-135657762D01*
X145661158Y-135436113D01*
X145573344Y-135224112D01*
X145458611Y-135025388D01*
X145458608Y-135025385D01*
X145458607Y-135025382D01*
X145318918Y-134843338D01*
X145156661Y-134681081D01*
X118156668Y-107681086D01*
X118156663Y-107681082D01*
X118156662Y-107681081D01*
X118156661Y-107681080D01*
X118065636Y-107611235D01*
X118020742Y-107576786D01*
X117974622Y-107541396D01*
X117974616Y-107541392D01*
X117974612Y-107541389D01*
X117958343Y-107531996D01*
X117775891Y-107426657D01*
X117775876Y-107426650D01*
X117563887Y-107338842D01*
X117342239Y-107279452D01*
X117342233Y-107279451D01*
X117342232Y-107279451D01*
X117332362Y-107278151D01*
X117315771Y-107275967D01*
X117315770Y-107275966D01*
X117114744Y-107249501D01*
X117114739Y-107249500D01*
X117114734Y-107249500D01*
X51185266Y-107249500D01*
X51185258Y-107249500D01*
X50975323Y-107277140D01*
X50957762Y-107279452D01*
X50864076Y-107304554D01*
X50736112Y-107338842D01*
X50524123Y-107426650D01*
X50524109Y-107426657D01*
X50325382Y-107541392D01*
X50143338Y-107681081D01*
X49981081Y-107843338D01*
X49841392Y-108025382D01*
X49726657Y-108224109D01*
X49726650Y-108224123D01*
X49638843Y-108436110D01*
X49593888Y-108603886D01*
X49557523Y-108663546D01*
X49494676Y-108694075D01*
X49425300Y-108685780D01*
X49371422Y-108641295D01*
X49356182Y-108610110D01*
X49323728Y-108510228D01*
X49283241Y-108385621D01*
X49168870Y-108161155D01*
X49070230Y-108025388D01*
X49020798Y-107957350D01*
X49020794Y-107957345D01*
X48842654Y-107779205D01*
X48842649Y-107779201D01*
X48638848Y-107631132D01*
X48638847Y-107631131D01*
X48638845Y-107631130D01*
X48532189Y-107576786D01*
X48414383Y-107516760D01*
X48174785Y-107438910D01*
X48097379Y-107426650D01*
X47925962Y-107399500D01*
X47674038Y-107399500D01*
X47549626Y-107419205D01*
X47425214Y-107438910D01*
X47185616Y-107516760D01*
X46961151Y-107631132D01*
X46757350Y-107779201D01*
X46757345Y-107779205D01*
X46579205Y-107957345D01*
X46579201Y-107957350D01*
X46431132Y-108161151D01*
X46316760Y-108385616D01*
X46238910Y-108625214D01*
X46199500Y-108874038D01*
X46199500Y-109125962D01*
X46199499Y-109125962D01*
X46209848Y-109191300D01*
X46200893Y-109260593D01*
X46155896Y-109314045D01*
X46089145Y-109334684D01*
X46021831Y-109315959D01*
X45999694Y-109298378D01*
X45844938Y-109143622D01*
X45844935Y-109143620D01*
X45660228Y-109009421D01*
X45456803Y-108905770D01*
X45239660Y-108835215D01*
X45014162Y-108799500D01*
X45014157Y-108799500D01*
X44785843Y-108799500D01*
X44785838Y-108799500D01*
X44560339Y-108835215D01*
X44343196Y-108905770D01*
X44139771Y-109009421D01*
X43955064Y-109143620D01*
X43800305Y-109298379D01*
X43738982Y-109331863D01*
X43669290Y-109326879D01*
X43613357Y-109285007D01*
X43588940Y-109219543D01*
X43590151Y-109191300D01*
X43600500Y-109125962D01*
X43600500Y-108874038D01*
X43561090Y-108625215D01*
X43483241Y-108385621D01*
X43483239Y-108385618D01*
X43483239Y-108385616D01*
X43441747Y-108304184D01*
X43368870Y-108161155D01*
X43270230Y-108025388D01*
X43220798Y-107957350D01*
X43220794Y-107957345D01*
X43042654Y-107779205D01*
X43042649Y-107779201D01*
X42838848Y-107631132D01*
X42838847Y-107631131D01*
X42838845Y-107631130D01*
X42732189Y-107576786D01*
X42614383Y-107516760D01*
X42374785Y-107438910D01*
X42297379Y-107426650D01*
X42125962Y-107399500D01*
X41874038Y-107399500D01*
X41749626Y-107419205D01*
X41625214Y-107438910D01*
X41385616Y-107516760D01*
X41161151Y-107631132D01*
X40957350Y-107779201D01*
X40957345Y-107779205D01*
X40779205Y-107957345D01*
X40779201Y-107957350D01*
X40631132Y-108161151D01*
X40516760Y-108385616D01*
X40438910Y-108625214D01*
X40427867Y-108694937D01*
X40399500Y-108874038D01*
X40100500Y-108874038D01*
X40061090Y-108625215D01*
X39983241Y-108385621D01*
X39983239Y-108385618D01*
X39983239Y-108385616D01*
X39941747Y-108304184D01*
X39868870Y-108161155D01*
X39770230Y-108025388D01*
X39720798Y-107957350D01*
X39720794Y-107957345D01*
X39542654Y-107779205D01*
X39542649Y-107779201D01*
X39338848Y-107631132D01*
X39338847Y-107631131D01*
X39338845Y-107631130D01*
X39232189Y-107576786D01*
X39114383Y-107516760D01*
X38874785Y-107438910D01*
X38797379Y-107426650D01*
X38625962Y-107399500D01*
X38374038Y-107399500D01*
X38249626Y-107419205D01*
X38125214Y-107438910D01*
X37885616Y-107516760D01*
X37661151Y-107631132D01*
X37457350Y-107779201D01*
X37457345Y-107779205D01*
X37279205Y-107957345D01*
X37279201Y-107957350D01*
X37131132Y-108161151D01*
X37016760Y-108385616D01*
X36938910Y-108625214D01*
X36927867Y-108694937D01*
X36899500Y-108874038D01*
X21750500Y-108874038D01*
X21750500Y-74878711D01*
X36149500Y-74878711D01*
X36149500Y-75121288D01*
X36181161Y-75361785D01*
X36243947Y-75596104D01*
X36296400Y-75722736D01*
X36336776Y-75820212D01*
X36458064Y-76030289D01*
X36458066Y-76030292D01*
X36458067Y-76030293D01*
X36605733Y-76222736D01*
X36605739Y-76222743D01*
X36777256Y-76394260D01*
X36777262Y-76394265D01*
X36969711Y-76541936D01*
X37179788Y-76663224D01*
X37403900Y-76756054D01*
X37638211Y-76818838D01*
X37818586Y-76842584D01*
X37878711Y-76850500D01*
X37878712Y-76850500D01*
X38121289Y-76850500D01*
X38169388Y-76844167D01*
X38361789Y-76818838D01*
X38596100Y-76756054D01*
X38820212Y-76663224D01*
X39030289Y-76541936D01*
X39222738Y-76394265D01*
X39394265Y-76222738D01*
X39541936Y-76030289D01*
X39663224Y-75820212D01*
X39756054Y-75596100D01*
X39818838Y-75361789D01*
X39850500Y-75121288D01*
X39850500Y-74878712D01*
X39850500Y-74878711D01*
X88149500Y-74878711D01*
X88149500Y-75121288D01*
X88181161Y-75361785D01*
X88243947Y-75596104D01*
X88296400Y-75722736D01*
X88336776Y-75820212D01*
X88458064Y-76030289D01*
X88458066Y-76030292D01*
X88458067Y-76030293D01*
X88605733Y-76222736D01*
X88605739Y-76222743D01*
X88777256Y-76394260D01*
X88777262Y-76394265D01*
X88969711Y-76541936D01*
X89179788Y-76663224D01*
X89403900Y-76756054D01*
X89638211Y-76818838D01*
X89818586Y-76842584D01*
X89878711Y-76850500D01*
X89878712Y-76850500D01*
X90121289Y-76850500D01*
X90169388Y-76844167D01*
X90361789Y-76818838D01*
X90596100Y-76756054D01*
X90820212Y-76663224D01*
X91030289Y-76541936D01*
X91222738Y-76394265D01*
X91394265Y-76222738D01*
X91541936Y-76030289D01*
X91663224Y-75820212D01*
X91756054Y-75596100D01*
X91818838Y-75361789D01*
X91850500Y-75121288D01*
X91850500Y-74878712D01*
X91818838Y-74638211D01*
X91756054Y-74403900D01*
X91663224Y-74179788D01*
X91541936Y-73969711D01*
X91394265Y-73777262D01*
X91394260Y-73777256D01*
X91222743Y-73605739D01*
X91222736Y-73605733D01*
X91030293Y-73458067D01*
X91030292Y-73458066D01*
X91030289Y-73458064D01*
X90820212Y-73336776D01*
X90820205Y-73336773D01*
X90596104Y-73243947D01*
X90361785Y-73181161D01*
X90121289Y-73149500D01*
X90121288Y-73149500D01*
X89878712Y-73149500D01*
X89878711Y-73149500D01*
X89638214Y-73181161D01*
X89403895Y-73243947D01*
X89179794Y-73336773D01*
X89179785Y-73336777D01*
X88969706Y-73458067D01*
X88777263Y-73605733D01*
X88777256Y-73605739D01*
X88605739Y-73777256D01*
X88605733Y-73777263D01*
X88458067Y-73969706D01*
X88336777Y-74179785D01*
X88336773Y-74179794D01*
X88243947Y-74403895D01*
X88181161Y-74638214D01*
X88149500Y-74878711D01*
X39850500Y-74878711D01*
X39818838Y-74638211D01*
X39756054Y-74403900D01*
X39663224Y-74179788D01*
X39541936Y-73969711D01*
X39394265Y-73777262D01*
X39394260Y-73777256D01*
X39222743Y-73605739D01*
X39222736Y-73605733D01*
X39030293Y-73458067D01*
X39030292Y-73458066D01*
X39030289Y-73458064D01*
X38820212Y-73336776D01*
X38820205Y-73336773D01*
X38596104Y-73243947D01*
X38361785Y-73181161D01*
X38121289Y-73149500D01*
X38121288Y-73149500D01*
X37878712Y-73149500D01*
X37878711Y-73149500D01*
X37638214Y-73181161D01*
X37403895Y-73243947D01*
X37179794Y-73336773D01*
X37179785Y-73336777D01*
X36969706Y-73458067D01*
X36777263Y-73605733D01*
X36777256Y-73605739D01*
X36605739Y-73777256D01*
X36605733Y-73777263D01*
X36458067Y-73969706D01*
X36336777Y-74179785D01*
X36336773Y-74179794D01*
X36243947Y-74403895D01*
X36181161Y-74638214D01*
X36149500Y-74878711D01*
X21750500Y-74878711D01*
X21750500Y-62255039D01*
X36499500Y-62255039D01*
X36499500Y-63744960D01*
X36514630Y-63879249D01*
X36514631Y-63879254D01*
X36574211Y-64049523D01*
X36609589Y-64105826D01*
X36670184Y-64202262D01*
X36797738Y-64329816D01*
X36950478Y-64425789D01*
X36991374Y-64440099D01*
X37120745Y-64485368D01*
X37120750Y-64485369D01*
X37211246Y-64495565D01*
X37255040Y-64500499D01*
X37255043Y-64500500D01*
X37255046Y-64500500D01*
X38744957Y-64500500D01*
X38744958Y-64500499D01*
X38812104Y-64492934D01*
X38879249Y-64485369D01*
X38879252Y-64485368D01*
X38879255Y-64485368D01*
X39049522Y-64425789D01*
X39202262Y-64329816D01*
X39329816Y-64202262D01*
X39425789Y-64049522D01*
X39485368Y-63879255D01*
X39487175Y-63863223D01*
X39500499Y-63744960D01*
X39500500Y-63744956D01*
X39500500Y-62255043D01*
X39500499Y-62255039D01*
X88499500Y-62255039D01*
X88499500Y-63744960D01*
X88514630Y-63879249D01*
X88514631Y-63879254D01*
X88574211Y-64049523D01*
X88609589Y-64105826D01*
X88670184Y-64202262D01*
X88797738Y-64329816D01*
X88950478Y-64425789D01*
X88991374Y-64440099D01*
X89120745Y-64485368D01*
X89120750Y-64485369D01*
X89211246Y-64495565D01*
X89255040Y-64500499D01*
X89255043Y-64500500D01*
X89255046Y-64500500D01*
X89327111Y-64500500D01*
X89394150Y-64520185D01*
X89414792Y-64536819D01*
X138272490Y-113394517D01*
X138399874Y-113487067D01*
X138463567Y-113533344D01*
X138501981Y-113552916D01*
X138540397Y-113572490D01*
X138674003Y-113640566D01*
X138674005Y-113640566D01*
X138674008Y-113640568D01*
X138794412Y-113679689D01*
X138898631Y-113713553D01*
X139131903Y-113750500D01*
X139131908Y-113750500D01*
X236408733Y-113750500D01*
X236475772Y-113770185D01*
X236521527Y-113822989D01*
X236531471Y-113892147D01*
X236519217Y-113930797D01*
X236516760Y-113935617D01*
X236441633Y-114166836D01*
X236438910Y-114175215D01*
X236399500Y-114424038D01*
X236399500Y-114675962D01*
X236426808Y-114848379D01*
X236438910Y-114924785D01*
X236516760Y-115164383D01*
X236621123Y-115369205D01*
X236634019Y-115437874D01*
X236607743Y-115502615D01*
X236550636Y-115542872D01*
X236510638Y-115549500D01*
X192792367Y-115549500D01*
X192559095Y-115586446D01*
X192334467Y-115659433D01*
X192124029Y-115766657D01*
X191932952Y-115905484D01*
X191932951Y-115905485D01*
X163072145Y-144766290D01*
X163010822Y-144799775D01*
X162941130Y-144794791D01*
X162885197Y-144752919D01*
X162860780Y-144687455D01*
X162860464Y-144678609D01*
X162860464Y-143650000D01*
X161596966Y-143650000D01*
X161610464Y-143547473D01*
X161610464Y-143252527D01*
X161596966Y-143150000D01*
X162860464Y-143150000D01*
X162860464Y-141828566D01*
X162860463Y-141828563D01*
X162845163Y-141614637D01*
X162784354Y-141335104D01*
X162684372Y-141067041D01*
X162547272Y-140815961D01*
X162547271Y-140815960D01*
X162375824Y-140586934D01*
X162375814Y-140586922D01*
X162173541Y-140384649D01*
X162173529Y-140384639D01*
X161944503Y-140213192D01*
X161944502Y-140213191D01*
X161693421Y-140076091D01*
X161693422Y-140076091D01*
X161425359Y-139976109D01*
X161145826Y-139915300D01*
X160931900Y-139900000D01*
X159610464Y-139900000D01*
X159610464Y-141163497D01*
X159507937Y-141150000D01*
X159212991Y-141150000D01*
X159110464Y-141163497D01*
X159110464Y-139900000D01*
X157789027Y-139900000D01*
X157575101Y-139915300D01*
X157295568Y-139976109D01*
X157027505Y-140076091D01*
X156776425Y-140213191D01*
X156776424Y-140213192D01*
X156547398Y-140384639D01*
X156547386Y-140384649D01*
X156345113Y-140586922D01*
X156345103Y-140586934D01*
X156173656Y-140815960D01*
X156173655Y-140815961D01*
X156036555Y-141067041D01*
X155936573Y-141335104D01*
X155875764Y-141614637D01*
X155860464Y-141828563D01*
X155860464Y-143150000D01*
X157123962Y-143150000D01*
X157110464Y-143252527D01*
X157110464Y-143547473D01*
X157123962Y-143650000D01*
X155860464Y-143650000D01*
X155860464Y-144971436D01*
X155875764Y-145185362D01*
X155936573Y-145464895D01*
X156036555Y-145732958D01*
X156173655Y-145984038D01*
X156173656Y-145984039D01*
X156345103Y-146213065D01*
X156345113Y-146213077D01*
X156547386Y-146415350D01*
X156547398Y-146415360D01*
X156776424Y-146586807D01*
X156776425Y-146586808D01*
X157027506Y-146723908D01*
X157027505Y-146723908D01*
X157295568Y-146823890D01*
X157575101Y-146884699D01*
X157789027Y-146899999D01*
X157789030Y-146900000D01*
X158759653Y-146900000D01*
X158826692Y-146919685D01*
X158872447Y-146972489D01*
X158882391Y-147041647D01*
X158853366Y-147105203D01*
X158794588Y-147142977D01*
X158783844Y-147145617D01*
X158508891Y-147200308D01*
X158179757Y-147300150D01*
X157861999Y-147431770D01*
X157861994Y-147431772D01*
X157558688Y-147593893D01*
X157558670Y-147593904D01*
X157272712Y-147784975D01*
X157272698Y-147784985D01*
X157006831Y-148003176D01*
X156763640Y-148246367D01*
X156545449Y-148512234D01*
X156545439Y-148512248D01*
X156354368Y-148798206D01*
X156354357Y-148798224D01*
X156192236Y-149101530D01*
X156192234Y-149101535D01*
X156060614Y-149419293D01*
X155960772Y-149748427D01*
X155893674Y-150085750D01*
X155859964Y-150428034D01*
X155859964Y-150771965D01*
X155893674Y-151114249D01*
X155960772Y-151451572D01*
X156060614Y-151780706D01*
X156192234Y-152098464D01*
X156192236Y-152098469D01*
X156354357Y-152401775D01*
X156354368Y-152401793D01*
X156545439Y-152687751D01*
X156545449Y-152687765D01*
X156763640Y-152953632D01*
X157006831Y-153196823D01*
X157006836Y-153196827D01*
X157006837Y-153196828D01*
X157272704Y-153415019D01*
X157558677Y-153606100D01*
X157558686Y-153606105D01*
X157558688Y-153606106D01*
X157861994Y-153768227D01*
X157861996Y-153768227D01*
X157862002Y-153768231D01*
X158179759Y-153899850D01*
X158508886Y-153999690D01*
X158846214Y-154066789D01*
X159188495Y-154100500D01*
X159188498Y-154100500D01*
X159532430Y-154100500D01*
X159532433Y-154100500D01*
X159874714Y-154066789D01*
X160212042Y-153999690D01*
X160541169Y-153899850D01*
X160858926Y-153768231D01*
X161162251Y-153606100D01*
X161448224Y-153415019D01*
X161714091Y-153196828D01*
X161957292Y-152953627D01*
X162175483Y-152687760D01*
X162366564Y-152401787D01*
X162528695Y-152098462D01*
X162660314Y-151780705D01*
X162760154Y-151451578D01*
X162827253Y-151114250D01*
X162860964Y-150771969D01*
X162860964Y-150428031D01*
X162827253Y-150085750D01*
X162760154Y-149748422D01*
X162682559Y-149492628D01*
X162681935Y-149422761D01*
X162713536Y-149368953D01*
X193495672Y-118586819D01*
X193556995Y-118553334D01*
X193583353Y-118550500D01*
X237419099Y-118550500D01*
X237457417Y-118556569D01*
X237625215Y-118611090D01*
X237874038Y-118650500D01*
X237874039Y-118650500D01*
X238125961Y-118650500D01*
X238125962Y-118650500D01*
X238374785Y-118611090D01*
X238614379Y-118533241D01*
X238838845Y-118418870D01*
X239042656Y-118270793D01*
X239220793Y-118092656D01*
X239368870Y-117888845D01*
X239483241Y-117664379D01*
X239561090Y-117424785D01*
X239600500Y-117175962D01*
X239600500Y-116924038D01*
X239561090Y-116675215D01*
X239483241Y-116435621D01*
X239483239Y-116435618D01*
X239483239Y-116435616D01*
X239441747Y-116354184D01*
X239368870Y-116211155D01*
X239316926Y-116139660D01*
X239220798Y-116007350D01*
X239220794Y-116007345D01*
X239101130Y-115887681D01*
X239067645Y-115826358D01*
X239072629Y-115756666D01*
X239101130Y-115712319D01*
X239154017Y-115659432D01*
X239220793Y-115592656D01*
X239368870Y-115388845D01*
X239483241Y-115164379D01*
X239561090Y-114924785D01*
X239600500Y-114675962D01*
X239600500Y-114424038D01*
X239561090Y-114175215D01*
X239483241Y-113935621D01*
X239480782Y-113930796D01*
X239467886Y-113862128D01*
X239494161Y-113797387D01*
X239551267Y-113757129D01*
X239591267Y-113750500D01*
X239908733Y-113750500D01*
X239975772Y-113770185D01*
X240021527Y-113822989D01*
X240031471Y-113892147D01*
X240019217Y-113930797D01*
X240016760Y-113935617D01*
X239941633Y-114166836D01*
X239938910Y-114175215D01*
X239899500Y-114424038D01*
X239899500Y-114675962D01*
X239926808Y-114848379D01*
X239938910Y-114924785D01*
X240016760Y-115164383D01*
X240131132Y-115388848D01*
X240279201Y-115592649D01*
X240279205Y-115592654D01*
X240398870Y-115712319D01*
X240432355Y-115773642D01*
X240427371Y-115843334D01*
X240398870Y-115887681D01*
X240279205Y-116007345D01*
X240279201Y-116007350D01*
X240131132Y-116211151D01*
X240016760Y-116435616D01*
X239938910Y-116675214D01*
X239929593Y-116734040D01*
X239899500Y-116924038D01*
X239899500Y-117175962D01*
X239926808Y-117348378D01*
X239938910Y-117424785D01*
X240016760Y-117664383D01*
X240131132Y-117888848D01*
X240279201Y-118092649D01*
X240279205Y-118092654D01*
X240457345Y-118270794D01*
X240457350Y-118270798D01*
X240576661Y-118357482D01*
X240661155Y-118418870D01*
X240767792Y-118473204D01*
X240885616Y-118533239D01*
X240885618Y-118533239D01*
X240885621Y-118533241D01*
X241125215Y-118611090D01*
X241374038Y-118650500D01*
X241374039Y-118650500D01*
X241625961Y-118650500D01*
X241625962Y-118650500D01*
X241874785Y-118611090D01*
X242114379Y-118533241D01*
X242338845Y-118418870D01*
X242542656Y-118270793D01*
X242720793Y-118092656D01*
X242868870Y-117888845D01*
X242983241Y-117664379D01*
X243061090Y-117424785D01*
X243100500Y-117175962D01*
X243100500Y-116924038D01*
X243090151Y-116858698D01*
X243099105Y-116789407D01*
X243144101Y-116735955D01*
X243210853Y-116715315D01*
X243278167Y-116734040D01*
X243300305Y-116751621D01*
X243455063Y-116906379D01*
X243639772Y-117040579D01*
X243676752Y-117059421D01*
X243843196Y-117144229D01*
X243843198Y-117144229D01*
X243843201Y-117144231D01*
X243940856Y-117175961D01*
X244060339Y-117214784D01*
X244285838Y-117250500D01*
X244285843Y-117250500D01*
X244514162Y-117250500D01*
X244739660Y-117214784D01*
X244956799Y-117144231D01*
X245160228Y-117040579D01*
X245344937Y-116906379D01*
X245499697Y-116751618D01*
X245561017Y-116718136D01*
X245630708Y-116723120D01*
X245686642Y-116764991D01*
X245711059Y-116830456D01*
X245709849Y-116858696D01*
X245699500Y-116924038D01*
X245699500Y-117175962D01*
X245726808Y-117348378D01*
X245738910Y-117424785D01*
X245816760Y-117664383D01*
X245931132Y-117888848D01*
X246079201Y-118092649D01*
X246079205Y-118092654D01*
X246257345Y-118270794D01*
X246257350Y-118270798D01*
X246376661Y-118357482D01*
X246461155Y-118418870D01*
X246567792Y-118473204D01*
X246685616Y-118533239D01*
X246685618Y-118533239D01*
X246685621Y-118533241D01*
X246925215Y-118611090D01*
X247174038Y-118650500D01*
X247174039Y-118650500D01*
X247425961Y-118650500D01*
X247425962Y-118650500D01*
X247674785Y-118611090D01*
X247914379Y-118533241D01*
X248138845Y-118418870D01*
X248342656Y-118270793D01*
X248520793Y-118092656D01*
X248668870Y-117888845D01*
X248783241Y-117664379D01*
X248861090Y-117424785D01*
X248900500Y-117175962D01*
X248900500Y-116924038D01*
X248861090Y-116675215D01*
X248783241Y-116435621D01*
X248783239Y-116435618D01*
X248783239Y-116435616D01*
X248741747Y-116354184D01*
X248668870Y-116211155D01*
X248616926Y-116139660D01*
X248520798Y-116007350D01*
X248520794Y-116007345D01*
X248401130Y-115887681D01*
X248367645Y-115826358D01*
X248372629Y-115756666D01*
X248401130Y-115712319D01*
X248454017Y-115659432D01*
X248520793Y-115592656D01*
X248668870Y-115388845D01*
X248783241Y-115164379D01*
X248861090Y-114924785D01*
X248900500Y-114675962D01*
X248900500Y-114424038D01*
X249199500Y-114424038D01*
X249199500Y-114675962D01*
X249226808Y-114848379D01*
X249238910Y-114924785D01*
X249316760Y-115164383D01*
X249431132Y-115388848D01*
X249579201Y-115592649D01*
X249579205Y-115592654D01*
X249698870Y-115712319D01*
X249732355Y-115773642D01*
X249727371Y-115843334D01*
X249698870Y-115887681D01*
X249579205Y-116007345D01*
X249579201Y-116007350D01*
X249431132Y-116211151D01*
X249316760Y-116435616D01*
X249238910Y-116675214D01*
X249229593Y-116734040D01*
X249199500Y-116924038D01*
X249199500Y-117175962D01*
X249226808Y-117348378D01*
X249238910Y-117424785D01*
X249316760Y-117664383D01*
X249431132Y-117888848D01*
X249579201Y-118092649D01*
X249579205Y-118092654D01*
X249757345Y-118270794D01*
X249757350Y-118270798D01*
X249876661Y-118357482D01*
X249961155Y-118418870D01*
X250067792Y-118473204D01*
X250185616Y-118533239D01*
X250185618Y-118533239D01*
X250185621Y-118533241D01*
X250425215Y-118611090D01*
X250674038Y-118650500D01*
X250674039Y-118650500D01*
X250925961Y-118650500D01*
X250925962Y-118650500D01*
X251174785Y-118611090D01*
X251414379Y-118533241D01*
X251638845Y-118418870D01*
X251842656Y-118270793D01*
X252020793Y-118092656D01*
X252168870Y-117888845D01*
X252283241Y-117664379D01*
X252361090Y-117424785D01*
X252400500Y-117175962D01*
X252400500Y-116924038D01*
X252361090Y-116675215D01*
X252283241Y-116435621D01*
X252283239Y-116435618D01*
X252283239Y-116435616D01*
X252241747Y-116354184D01*
X252168870Y-116211155D01*
X252116926Y-116139660D01*
X252020798Y-116007350D01*
X252020794Y-116007345D01*
X251901130Y-115887681D01*
X251867645Y-115826358D01*
X251872629Y-115756666D01*
X251901130Y-115712319D01*
X251954017Y-115659432D01*
X252020793Y-115592656D01*
X252168870Y-115388845D01*
X252283241Y-115164379D01*
X252361090Y-114924785D01*
X252400500Y-114675962D01*
X252400500Y-114424038D01*
X252361090Y-114175215D01*
X252283241Y-113935621D01*
X252283239Y-113935617D01*
X252283239Y-113935616D01*
X252212807Y-113797387D01*
X252168870Y-113711155D01*
X252117584Y-113640566D01*
X252020798Y-113507350D01*
X252020794Y-113507345D01*
X251842654Y-113329205D01*
X251842649Y-113329201D01*
X251638848Y-113181132D01*
X251638847Y-113181131D01*
X251638845Y-113181130D01*
X251568747Y-113145413D01*
X251414383Y-113066760D01*
X251174785Y-112988910D01*
X250925962Y-112949500D01*
X250674038Y-112949500D01*
X250549626Y-112969205D01*
X250425214Y-112988910D01*
X250185616Y-113066760D01*
X249961151Y-113181132D01*
X249757350Y-113329201D01*
X249757345Y-113329205D01*
X249579205Y-113507345D01*
X249579201Y-113507350D01*
X249431132Y-113711151D01*
X249316760Y-113935616D01*
X249238910Y-114175214D01*
X249238910Y-114175215D01*
X249199500Y-114424038D01*
X248900500Y-114424038D01*
X248861090Y-114175215D01*
X248783241Y-113935621D01*
X248783239Y-113935617D01*
X248783239Y-113935616D01*
X248712807Y-113797387D01*
X248668870Y-113711155D01*
X248617584Y-113640566D01*
X248520798Y-113507350D01*
X248520794Y-113507345D01*
X248342654Y-113329205D01*
X248342649Y-113329201D01*
X248138848Y-113181132D01*
X248138847Y-113181131D01*
X248138845Y-113181130D01*
X247981637Y-113101028D01*
X247950251Y-113078224D01*
X245977511Y-111105484D01*
X245786434Y-110966657D01*
X245575996Y-110859433D01*
X245351368Y-110786446D01*
X245118097Y-110749500D01*
X245118092Y-110749500D01*
X242077823Y-110749500D01*
X242010784Y-110729815D01*
X241965029Y-110677011D01*
X241955085Y-110607853D01*
X241984110Y-110544297D01*
X242039505Y-110507569D01*
X242114379Y-110483241D01*
X242338845Y-110368870D01*
X242542656Y-110220793D01*
X242720793Y-110042656D01*
X242868870Y-109838845D01*
X242983241Y-109614379D01*
X243061090Y-109374785D01*
X243100500Y-109125962D01*
X243100500Y-108874038D01*
X243090151Y-108808698D01*
X243099105Y-108739407D01*
X243144101Y-108685955D01*
X243210853Y-108665315D01*
X243278167Y-108684040D01*
X243300305Y-108701621D01*
X243455063Y-108856379D01*
X243639772Y-108990579D01*
X243676752Y-109009421D01*
X243843196Y-109094229D01*
X243843198Y-109094229D01*
X243843201Y-109094231D01*
X243940856Y-109125961D01*
X244060339Y-109164784D01*
X244285838Y-109200500D01*
X244285843Y-109200500D01*
X244514162Y-109200500D01*
X244739660Y-109164784D01*
X244956799Y-109094231D01*
X245160228Y-108990579D01*
X245344937Y-108856379D01*
X245499697Y-108701618D01*
X245561017Y-108668136D01*
X245630708Y-108673120D01*
X245686642Y-108714991D01*
X245711059Y-108780456D01*
X245709849Y-108808696D01*
X245699500Y-108874038D01*
X245699500Y-109125962D01*
X245726808Y-109298378D01*
X245738910Y-109374785D01*
X245816760Y-109614383D01*
X245931132Y-109838848D01*
X246079201Y-110042649D01*
X246079205Y-110042654D01*
X246257345Y-110220794D01*
X246257350Y-110220798D01*
X246410931Y-110332380D01*
X246461155Y-110368870D01*
X246567792Y-110423204D01*
X246685616Y-110483239D01*
X246685618Y-110483239D01*
X246685621Y-110483241D01*
X246925215Y-110561090D01*
X247174038Y-110600500D01*
X247174039Y-110600500D01*
X247425961Y-110600500D01*
X247425962Y-110600500D01*
X247674785Y-110561090D01*
X247914379Y-110483241D01*
X248138845Y-110368870D01*
X248342656Y-110220793D01*
X248520793Y-110042656D01*
X248668870Y-109838845D01*
X248783241Y-109614379D01*
X248861090Y-109374785D01*
X248900500Y-109125962D01*
X248900500Y-108874038D01*
X248861090Y-108625215D01*
X248783241Y-108385621D01*
X248783239Y-108385618D01*
X248783239Y-108385616D01*
X248741747Y-108304184D01*
X248668870Y-108161155D01*
X248570230Y-108025388D01*
X248520798Y-107957350D01*
X248520794Y-107957345D01*
X248401130Y-107837681D01*
X248367645Y-107776358D01*
X248372629Y-107706666D01*
X248401130Y-107662319D01*
X248452215Y-107611234D01*
X248520793Y-107542656D01*
X248668870Y-107338845D01*
X248783241Y-107114379D01*
X248861090Y-106874785D01*
X248900500Y-106625962D01*
X248900500Y-106374038D01*
X249199500Y-106374038D01*
X249199500Y-106625962D01*
X249226808Y-106798378D01*
X249238910Y-106874785D01*
X249316760Y-107114383D01*
X249385607Y-107249501D01*
X249431128Y-107338842D01*
X249431132Y-107338848D01*
X249579201Y-107542649D01*
X249579205Y-107542654D01*
X249698870Y-107662319D01*
X249732355Y-107723642D01*
X249727371Y-107793334D01*
X249698870Y-107837681D01*
X249579205Y-107957345D01*
X249579201Y-107957350D01*
X249431132Y-108161151D01*
X249316760Y-108385616D01*
X249238910Y-108625214D01*
X249227867Y-108694937D01*
X249199500Y-108874038D01*
X249199500Y-109125962D01*
X249226808Y-109298378D01*
X249238910Y-109374785D01*
X249316760Y-109614383D01*
X249431132Y-109838848D01*
X249579201Y-110042649D01*
X249579205Y-110042654D01*
X249757345Y-110220794D01*
X249757350Y-110220798D01*
X249910931Y-110332380D01*
X249961155Y-110368870D01*
X250067792Y-110423204D01*
X250185616Y-110483239D01*
X250185618Y-110483239D01*
X250185621Y-110483241D01*
X250425215Y-110561090D01*
X250674038Y-110600500D01*
X250674039Y-110600500D01*
X250925961Y-110600500D01*
X250925962Y-110600500D01*
X251174785Y-110561090D01*
X251414379Y-110483241D01*
X251638845Y-110368870D01*
X251842656Y-110220793D01*
X252020793Y-110042656D01*
X252168870Y-109838845D01*
X252283241Y-109614379D01*
X252361090Y-109374785D01*
X252400500Y-109125962D01*
X252400500Y-108874038D01*
X252361090Y-108625215D01*
X252283241Y-108385621D01*
X252283239Y-108385618D01*
X252283239Y-108385616D01*
X252241747Y-108304184D01*
X252168870Y-108161155D01*
X252070230Y-108025388D01*
X252020798Y-107957350D01*
X252020794Y-107957345D01*
X251901130Y-107837681D01*
X251867645Y-107776358D01*
X251872629Y-107706666D01*
X251901130Y-107662319D01*
X251952215Y-107611234D01*
X252020793Y-107542656D01*
X252168870Y-107338845D01*
X252283241Y-107114379D01*
X252361090Y-106874785D01*
X252400500Y-106625962D01*
X252400500Y-106374038D01*
X252361090Y-106125215D01*
X252283241Y-105885621D01*
X252283239Y-105885618D01*
X252283239Y-105885616D01*
X252241747Y-105804184D01*
X252168870Y-105661155D01*
X252149952Y-105635117D01*
X252020798Y-105457350D01*
X252020794Y-105457345D01*
X251842654Y-105279205D01*
X251842649Y-105279201D01*
X251638848Y-105131132D01*
X251638847Y-105131131D01*
X251638845Y-105131130D01*
X251568747Y-105095413D01*
X251414383Y-105016760D01*
X251174785Y-104938910D01*
X250925962Y-104899500D01*
X250674038Y-104899500D01*
X250549626Y-104919205D01*
X250425214Y-104938910D01*
X250185616Y-105016760D01*
X249961151Y-105131132D01*
X249757350Y-105279201D01*
X249757345Y-105279205D01*
X249579205Y-105457345D01*
X249579201Y-105457350D01*
X249431132Y-105661151D01*
X249316760Y-105885616D01*
X249238910Y-106125214D01*
X249238910Y-106125215D01*
X249199500Y-106374038D01*
X248900500Y-106374038D01*
X248861090Y-106125215D01*
X248783241Y-105885621D01*
X248783239Y-105885618D01*
X248783239Y-105885616D01*
X248741747Y-105804184D01*
X248668870Y-105661155D01*
X248649952Y-105635117D01*
X248520798Y-105457350D01*
X248520794Y-105457345D01*
X248342654Y-105279205D01*
X248342649Y-105279201D01*
X248138848Y-105131132D01*
X248138847Y-105131131D01*
X248138845Y-105131130D01*
X248068747Y-105095413D01*
X247914383Y-105016760D01*
X247674785Y-104938910D01*
X247425962Y-104899500D01*
X247174038Y-104899500D01*
X247049626Y-104919205D01*
X246925214Y-104938910D01*
X246685616Y-105016760D01*
X246461151Y-105131132D01*
X246257350Y-105279201D01*
X246257345Y-105279205D01*
X246079205Y-105457345D01*
X246079201Y-105457350D01*
X245931132Y-105661151D01*
X245816760Y-105885616D01*
X245738910Y-106125214D01*
X245699500Y-106374038D01*
X245699500Y-106625962D01*
X245699499Y-106625962D01*
X245709848Y-106691300D01*
X245700893Y-106760593D01*
X245655896Y-106814045D01*
X245589145Y-106834684D01*
X245521831Y-106815959D01*
X245499694Y-106798378D01*
X245344938Y-106643622D01*
X245344935Y-106643620D01*
X245160228Y-106509421D01*
X244956803Y-106405770D01*
X244739660Y-106335215D01*
X244514162Y-106299500D01*
X244514157Y-106299500D01*
X244285843Y-106299500D01*
X244285838Y-106299500D01*
X244060339Y-106335215D01*
X243843196Y-106405770D01*
X243639771Y-106509421D01*
X243455064Y-106643620D01*
X243300305Y-106798379D01*
X243238982Y-106831863D01*
X243169290Y-106826879D01*
X243113357Y-106785007D01*
X243088940Y-106719543D01*
X243090151Y-106691300D01*
X243100500Y-106625962D01*
X243100500Y-106374038D01*
X243061090Y-106125215D01*
X242983241Y-105885621D01*
X242983239Y-105885618D01*
X242983239Y-105885616D01*
X242941747Y-105804184D01*
X242868870Y-105661155D01*
X242849952Y-105635117D01*
X242720798Y-105457350D01*
X242720794Y-105457345D01*
X242542654Y-105279205D01*
X242542649Y-105279201D01*
X242338848Y-105131132D01*
X242338847Y-105131131D01*
X242338845Y-105131130D01*
X242268747Y-105095413D01*
X242114383Y-105016760D01*
X241874785Y-104938910D01*
X241625962Y-104899500D01*
X241374038Y-104899500D01*
X241249626Y-104919205D01*
X241125214Y-104938910D01*
X240885616Y-105016760D01*
X240661151Y-105131132D01*
X240457350Y-105279201D01*
X240457345Y-105279205D01*
X240279205Y-105457345D01*
X240279201Y-105457350D01*
X240131132Y-105661151D01*
X240016760Y-105885616D01*
X239938910Y-106125214D01*
X239938910Y-106125215D01*
X239899500Y-106374038D01*
X239899500Y-106625962D01*
X239926808Y-106798378D01*
X239938910Y-106874785D01*
X240016760Y-107114383D01*
X240085607Y-107249501D01*
X240131128Y-107338842D01*
X240131132Y-107338848D01*
X240279201Y-107542649D01*
X240279205Y-107542654D01*
X240398870Y-107662319D01*
X240432355Y-107723642D01*
X240427371Y-107793334D01*
X240398870Y-107837681D01*
X240279205Y-107957345D01*
X240279201Y-107957350D01*
X240131132Y-108161151D01*
X240016760Y-108385616D01*
X239938910Y-108625214D01*
X239927867Y-108694937D01*
X239899500Y-108874038D01*
X239899500Y-109125962D01*
X239926808Y-109298378D01*
X239938910Y-109374785D01*
X240016760Y-109614383D01*
X240131132Y-109838848D01*
X240279201Y-110042649D01*
X240279205Y-110042654D01*
X240457345Y-110220794D01*
X240457350Y-110220798D01*
X240610931Y-110332380D01*
X240661155Y-110368870D01*
X240885621Y-110483241D01*
X240960495Y-110507569D01*
X241018171Y-110547007D01*
X241045369Y-110611365D01*
X241033454Y-110680212D01*
X240986210Y-110731687D01*
X240922177Y-110749500D01*
X238577823Y-110749500D01*
X238510784Y-110729815D01*
X238465029Y-110677011D01*
X238455085Y-110607853D01*
X238484110Y-110544297D01*
X238539505Y-110507569D01*
X238614379Y-110483241D01*
X238838845Y-110368870D01*
X239042656Y-110220793D01*
X239220793Y-110042656D01*
X239368870Y-109838845D01*
X239483241Y-109614379D01*
X239561090Y-109374785D01*
X239600500Y-109125962D01*
X239600500Y-108874038D01*
X239561090Y-108625215D01*
X239483241Y-108385621D01*
X239483239Y-108385618D01*
X239483239Y-108385616D01*
X239441747Y-108304184D01*
X239368870Y-108161155D01*
X239270230Y-108025388D01*
X239220798Y-107957350D01*
X239220794Y-107957345D01*
X239101130Y-107837681D01*
X239067645Y-107776358D01*
X239072629Y-107706666D01*
X239101130Y-107662319D01*
X239152215Y-107611234D01*
X239220793Y-107542656D01*
X239368870Y-107338845D01*
X239483241Y-107114379D01*
X239561090Y-106874785D01*
X239600500Y-106625962D01*
X239600500Y-106374038D01*
X239561090Y-106125215D01*
X239483241Y-105885621D01*
X239483239Y-105885618D01*
X239483239Y-105885616D01*
X239441747Y-105804184D01*
X239368870Y-105661155D01*
X239349952Y-105635117D01*
X239220798Y-105457350D01*
X239220794Y-105457345D01*
X239042654Y-105279205D01*
X239042649Y-105279201D01*
X238838848Y-105131132D01*
X238838847Y-105131131D01*
X238838845Y-105131130D01*
X238768747Y-105095413D01*
X238614383Y-105016760D01*
X238374785Y-104938910D01*
X238125962Y-104899500D01*
X237874038Y-104899500D01*
X237749626Y-104919205D01*
X237625214Y-104938910D01*
X237385616Y-105016760D01*
X237161151Y-105131132D01*
X236957350Y-105279201D01*
X236957345Y-105279205D01*
X236775762Y-105460789D01*
X236774687Y-105459714D01*
X236721820Y-105494225D01*
X236686038Y-105499500D01*
X200215783Y-105499500D01*
X200148744Y-105479815D01*
X200128102Y-105463181D01*
X169043632Y-74378711D01*
X193149500Y-74378711D01*
X193149500Y-74621288D01*
X193181161Y-74861785D01*
X193243947Y-75096104D01*
X193254379Y-75121288D01*
X193336776Y-75320212D01*
X193458064Y-75530289D01*
X193458066Y-75530292D01*
X193458067Y-75530293D01*
X193605733Y-75722736D01*
X193605739Y-75722743D01*
X193777256Y-75894260D01*
X193777262Y-75894265D01*
X193969711Y-76041936D01*
X194179788Y-76163224D01*
X194403900Y-76256054D01*
X194638211Y-76318838D01*
X194818586Y-76342584D01*
X194878711Y-76350500D01*
X194878712Y-76350500D01*
X195121289Y-76350500D01*
X195169388Y-76344167D01*
X195361789Y-76318838D01*
X195596100Y-76256054D01*
X195820212Y-76163224D01*
X196030289Y-76041936D01*
X196222738Y-75894265D01*
X196394265Y-75722738D01*
X196541936Y-75530289D01*
X196663224Y-75320212D01*
X196756054Y-75096100D01*
X196818838Y-74861789D01*
X196850500Y-74621288D01*
X196850500Y-74378712D01*
X196850500Y-74378711D01*
X245149500Y-74378711D01*
X245149500Y-74621288D01*
X245181161Y-74861785D01*
X245243947Y-75096104D01*
X245254379Y-75121288D01*
X245336776Y-75320212D01*
X245458064Y-75530289D01*
X245458066Y-75530292D01*
X245458067Y-75530293D01*
X245605733Y-75722736D01*
X245605739Y-75722743D01*
X245777256Y-75894260D01*
X245777262Y-75894265D01*
X245969711Y-76041936D01*
X246179788Y-76163224D01*
X246403900Y-76256054D01*
X246638211Y-76318838D01*
X246818586Y-76342584D01*
X246878711Y-76350500D01*
X246878712Y-76350500D01*
X247121289Y-76350500D01*
X247169388Y-76344167D01*
X247361789Y-76318838D01*
X247596100Y-76256054D01*
X247820212Y-76163224D01*
X248030289Y-76041936D01*
X248222738Y-75894265D01*
X248394265Y-75722738D01*
X248541936Y-75530289D01*
X248663224Y-75320212D01*
X248756054Y-75096100D01*
X248818838Y-74861789D01*
X248850500Y-74621288D01*
X248850500Y-74378712D01*
X248818838Y-74138211D01*
X248756054Y-73903900D01*
X248663224Y-73679788D01*
X248541936Y-73469711D01*
X248394265Y-73277262D01*
X248394260Y-73277256D01*
X248222743Y-73105739D01*
X248222736Y-73105733D01*
X248030293Y-72958067D01*
X248030292Y-72958066D01*
X248030289Y-72958064D01*
X247820212Y-72836776D01*
X247820205Y-72836773D01*
X247596104Y-72743947D01*
X247361785Y-72681161D01*
X247121289Y-72649500D01*
X247121288Y-72649500D01*
X246878712Y-72649500D01*
X246878711Y-72649500D01*
X246638214Y-72681161D01*
X246403895Y-72743947D01*
X246179794Y-72836773D01*
X246179785Y-72836777D01*
X245969706Y-72958067D01*
X245777263Y-73105733D01*
X245777256Y-73105739D01*
X245605739Y-73277256D01*
X245605733Y-73277263D01*
X245458067Y-73469706D01*
X245336777Y-73679785D01*
X245336773Y-73679794D01*
X245243947Y-73903895D01*
X245181161Y-74138214D01*
X245149500Y-74378711D01*
X196850500Y-74378711D01*
X196818838Y-74138211D01*
X196756054Y-73903900D01*
X196663224Y-73679788D01*
X196541936Y-73469711D01*
X196394265Y-73277262D01*
X196394260Y-73277256D01*
X196222743Y-73105739D01*
X196222736Y-73105733D01*
X196030293Y-72958067D01*
X196030292Y-72958066D01*
X196030289Y-72958064D01*
X195820212Y-72836776D01*
X195820205Y-72836773D01*
X195596104Y-72743947D01*
X195361785Y-72681161D01*
X195121289Y-72649500D01*
X195121288Y-72649500D01*
X194878712Y-72649500D01*
X194878711Y-72649500D01*
X194638214Y-72681161D01*
X194403895Y-72743947D01*
X194179794Y-72836773D01*
X194179785Y-72836777D01*
X193969706Y-72958067D01*
X193777263Y-73105733D01*
X193777256Y-73105739D01*
X193605739Y-73277256D01*
X193605733Y-73277263D01*
X193458067Y-73469706D01*
X193336777Y-73679785D01*
X193336773Y-73679794D01*
X193243947Y-73903895D01*
X193181161Y-74138214D01*
X193149500Y-74378711D01*
X169043632Y-74378711D01*
X156419960Y-61755039D01*
X193499500Y-61755039D01*
X193499500Y-63244960D01*
X193514630Y-63379249D01*
X193514631Y-63379254D01*
X193574211Y-63549523D01*
X193631000Y-63639901D01*
X193670184Y-63702262D01*
X193797738Y-63829816D01*
X193950478Y-63925789D01*
X194120745Y-63985368D01*
X194120750Y-63985369D01*
X194211246Y-63995565D01*
X194255040Y-64000499D01*
X194255043Y-64000500D01*
X194255046Y-64000500D01*
X195744957Y-64000500D01*
X195744958Y-64000499D01*
X195812104Y-63992934D01*
X195879249Y-63985369D01*
X195879252Y-63985368D01*
X195879255Y-63985368D01*
X196049522Y-63925789D01*
X196202262Y-63829816D01*
X196329816Y-63702262D01*
X196425789Y-63549522D01*
X196485368Y-63379255D01*
X196500500Y-63244954D01*
X196500500Y-61755046D01*
X196500499Y-61755039D01*
X245499500Y-61755039D01*
X245499500Y-63244960D01*
X245514630Y-63379249D01*
X245514631Y-63379254D01*
X245574211Y-63549523D01*
X245631000Y-63639901D01*
X245670184Y-63702262D01*
X245797738Y-63829816D01*
X245950478Y-63925789D01*
X246120745Y-63985368D01*
X246120750Y-63985369D01*
X246211246Y-63995565D01*
X246255040Y-64000499D01*
X246255043Y-64000500D01*
X246255046Y-64000500D01*
X247744957Y-64000500D01*
X247744958Y-64000499D01*
X247812104Y-63992934D01*
X247879249Y-63985369D01*
X247879252Y-63985368D01*
X247879255Y-63985368D01*
X248049522Y-63925789D01*
X248202262Y-63829816D01*
X248329816Y-63702262D01*
X248425789Y-63549522D01*
X248485368Y-63379255D01*
X248500500Y-63244954D01*
X248500500Y-61755046D01*
X248495565Y-61711246D01*
X248485369Y-61620750D01*
X248485368Y-61620745D01*
X248448237Y-61514630D01*
X248425789Y-61450478D01*
X248416427Y-61435579D01*
X248329815Y-61297737D01*
X248202262Y-61170184D01*
X248049523Y-61074211D01*
X247879254Y-61014631D01*
X247879249Y-61014630D01*
X247744960Y-60999500D01*
X247744954Y-60999500D01*
X246255046Y-60999500D01*
X246255039Y-60999500D01*
X246120750Y-61014630D01*
X246120745Y-61014631D01*
X245950476Y-61074211D01*
X245797737Y-61170184D01*
X245670184Y-61297737D01*
X245574211Y-61450476D01*
X245514631Y-61620745D01*
X245514630Y-61620750D01*
X245499500Y-61755039D01*
X196500499Y-61755039D01*
X196495565Y-61711246D01*
X196485369Y-61620750D01*
X196485368Y-61620745D01*
X196448237Y-61514630D01*
X196425789Y-61450478D01*
X196416427Y-61435579D01*
X196329815Y-61297737D01*
X196202262Y-61170184D01*
X196049523Y-61074211D01*
X195879254Y-61014631D01*
X195879249Y-61014630D01*
X195744960Y-60999500D01*
X195744954Y-60999500D01*
X194255046Y-60999500D01*
X194255039Y-60999500D01*
X194120750Y-61014630D01*
X194120745Y-61014631D01*
X193950476Y-61074211D01*
X193797737Y-61170184D01*
X193670184Y-61297737D01*
X193574211Y-61450476D01*
X193514631Y-61620745D01*
X193514630Y-61620750D01*
X193499500Y-61755039D01*
X156419960Y-61755039D01*
X156136818Y-61471897D01*
X156103333Y-61410574D01*
X156100499Y-61384216D01*
X156100499Y-60602129D01*
X156100498Y-60602123D01*
X156100497Y-60602116D01*
X156094091Y-60542517D01*
X156043796Y-60407669D01*
X156043795Y-60407668D01*
X156043793Y-60407664D01*
X155957547Y-60292455D01*
X155957544Y-60292452D01*
X155842335Y-60206206D01*
X155842328Y-60206202D01*
X155707482Y-60155908D01*
X155707483Y-60155908D01*
X155647883Y-60149501D01*
X155647881Y-60149500D01*
X155647873Y-60149500D01*
X155647864Y-60149500D01*
X153852129Y-60149500D01*
X153852123Y-60149501D01*
X153792516Y-60155908D01*
X153657671Y-60206202D01*
X153657664Y-60206206D01*
X153542455Y-60292452D01*
X153542452Y-60292455D01*
X153456206Y-60407664D01*
X153456202Y-60407671D01*
X153405908Y-60542517D01*
X153399501Y-60602116D01*
X153399501Y-60602123D01*
X153399500Y-60602135D01*
X153399500Y-62397870D01*
X153399501Y-62397876D01*
X153405908Y-62457483D01*
X153456202Y-62592328D01*
X153456206Y-62592335D01*
X153542452Y-62707544D01*
X153542455Y-62707547D01*
X153657664Y-62793793D01*
X153657671Y-62793797D01*
X153702618Y-62810561D01*
X153792517Y-62844091D01*
X153852127Y-62850500D01*
X153862685Y-62850499D01*
X153929723Y-62870179D01*
X153950372Y-62886818D01*
X154620591Y-63557037D01*
X154557007Y-63574075D01*
X154442993Y-63639901D01*
X154349901Y-63732993D01*
X154284075Y-63847007D01*
X154267037Y-63910591D01*
X153634728Y-63278282D01*
X153634727Y-63278282D01*
X153595380Y-63332439D01*
X153498904Y-63521782D01*
X153433242Y-63723869D01*
X153433242Y-63723872D01*
X153400000Y-63933753D01*
X153400000Y-64146246D01*
X153433242Y-64356127D01*
X153433242Y-64356130D01*
X153498904Y-64558217D01*
X153595375Y-64747550D01*
X153634728Y-64801716D01*
X154267037Y-64169408D01*
X154284075Y-64232993D01*
X154349901Y-64347007D01*
X154442993Y-64440099D01*
X154557007Y-64505925D01*
X154620590Y-64522962D01*
X153988282Y-65155269D01*
X153988282Y-65155270D01*
X154042449Y-65194624D01*
X154231782Y-65291095D01*
X154433870Y-65356757D01*
X154643754Y-65390000D01*
X154856246Y-65390000D01*
X155066127Y-65356757D01*
X155066130Y-65356757D01*
X155268217Y-65291095D01*
X155457554Y-65194622D01*
X155511716Y-65155270D01*
X155511717Y-65155270D01*
X154879408Y-64522962D01*
X154942993Y-64505925D01*
X155057007Y-64440099D01*
X155150099Y-64347007D01*
X155215925Y-64232993D01*
X155232962Y-64169408D01*
X155865270Y-64801717D01*
X155865270Y-64801716D01*
X155904622Y-64747554D01*
X156001096Y-64558215D01*
X156034748Y-64454644D01*
X156074185Y-64396968D01*
X156138543Y-64369769D01*
X156207390Y-64381683D01*
X156240359Y-64405279D01*
X198972860Y-107137781D01*
X198972861Y-107137782D01*
X199084579Y-107249500D01*
X199112219Y-107277140D01*
X199276079Y-107386628D01*
X199276092Y-107386635D01*
X199395488Y-107436090D01*
X199395490Y-107436090D01*
X199402297Y-107438910D01*
X199458164Y-107462051D01*
X199554812Y-107481275D01*
X199634425Y-107497111D01*
X199651458Y-107500500D01*
X199651459Y-107500500D01*
X199651460Y-107500500D01*
X199848540Y-107500500D01*
X236686038Y-107500500D01*
X236715561Y-107509169D01*
X236745616Y-107515751D01*
X236749936Y-107519262D01*
X236753077Y-107520185D01*
X236773841Y-107536941D01*
X236778312Y-107541425D01*
X236779207Y-107542656D01*
X236898870Y-107662319D01*
X236898992Y-107662441D01*
X236915707Y-107693154D01*
X236932355Y-107723642D01*
X236932348Y-107723731D01*
X236932392Y-107723811D01*
X236929861Y-107758511D01*
X236927371Y-107793334D01*
X236927315Y-107793420D01*
X236927310Y-107793495D01*
X236927014Y-107793887D01*
X236898870Y-107837681D01*
X236779205Y-107957345D01*
X236779201Y-107957350D01*
X236631132Y-108161151D01*
X236516760Y-108385616D01*
X236438910Y-108625214D01*
X236427867Y-108694937D01*
X236399500Y-108874038D01*
X236399500Y-109125962D01*
X236426808Y-109298378D01*
X236438910Y-109374785D01*
X236516760Y-109614383D01*
X236631132Y-109838848D01*
X236779201Y-110042649D01*
X236779205Y-110042654D01*
X236957345Y-110220794D01*
X236957350Y-110220798D01*
X237110931Y-110332380D01*
X237161155Y-110368870D01*
X237385621Y-110483241D01*
X237460495Y-110507569D01*
X237518171Y-110547007D01*
X237545369Y-110611365D01*
X237533454Y-110680212D01*
X237486210Y-110731687D01*
X237422177Y-110749500D01*
X139922889Y-110749500D01*
X139855850Y-110729815D01*
X139835208Y-110713181D01*
X91536819Y-62414792D01*
X91503334Y-62353469D01*
X91500500Y-62327111D01*
X91500500Y-62255043D01*
X91500499Y-62255039D01*
X91485369Y-62120750D01*
X91485368Y-62120745D01*
X91425788Y-61950476D01*
X91329815Y-61797737D01*
X91202262Y-61670184D01*
X91049523Y-61574211D01*
X90879254Y-61514631D01*
X90879249Y-61514630D01*
X90744960Y-61499500D01*
X90744954Y-61499500D01*
X89255046Y-61499500D01*
X89255039Y-61499500D01*
X89120750Y-61514630D01*
X89120745Y-61514631D01*
X88950476Y-61574211D01*
X88797737Y-61670184D01*
X88670184Y-61797737D01*
X88574211Y-61950476D01*
X88514631Y-62120745D01*
X88514630Y-62120750D01*
X88499500Y-62255039D01*
X39500499Y-62255039D01*
X39485369Y-62120750D01*
X39485368Y-62120745D01*
X39425788Y-61950476D01*
X39329815Y-61797737D01*
X39202262Y-61670184D01*
X39049523Y-61574211D01*
X38879254Y-61514631D01*
X38879249Y-61514630D01*
X38744960Y-61499500D01*
X38744954Y-61499500D01*
X37255046Y-61499500D01*
X37255039Y-61499500D01*
X37120750Y-61514630D01*
X37120745Y-61514631D01*
X36950476Y-61574211D01*
X36797737Y-61670184D01*
X36670184Y-61797737D01*
X36574211Y-61950476D01*
X36514631Y-62120745D01*
X36514630Y-62120750D01*
X36499500Y-62255039D01*
X21750500Y-62255039D01*
X21750500Y-60602135D01*
X126899500Y-60602135D01*
X126899500Y-62397870D01*
X126899501Y-62397876D01*
X126905908Y-62457483D01*
X126956202Y-62592328D01*
X126956206Y-62592335D01*
X127042452Y-62707544D01*
X127042455Y-62707547D01*
X127157664Y-62793793D01*
X127157671Y-62793797D01*
X127202618Y-62810561D01*
X127292517Y-62844091D01*
X127352127Y-62850500D01*
X127362685Y-62850499D01*
X127429723Y-62870179D01*
X127450372Y-62886818D01*
X128120591Y-63557037D01*
X128057007Y-63574075D01*
X127942993Y-63639901D01*
X127849901Y-63732993D01*
X127784075Y-63847007D01*
X127767037Y-63910591D01*
X127134728Y-63278282D01*
X127134727Y-63278282D01*
X127095380Y-63332439D01*
X126998904Y-63521782D01*
X126933242Y-63723869D01*
X126933242Y-63723872D01*
X126900000Y-63933753D01*
X126900000Y-64146246D01*
X126933242Y-64356127D01*
X126933242Y-64356130D01*
X126998904Y-64558217D01*
X127095375Y-64747550D01*
X127134728Y-64801716D01*
X127767037Y-64169408D01*
X127784075Y-64232993D01*
X127849901Y-64347007D01*
X127942993Y-64440099D01*
X128057007Y-64505925D01*
X128120590Y-64522962D01*
X127488282Y-65155269D01*
X127488282Y-65155270D01*
X127542449Y-65194624D01*
X127731782Y-65291095D01*
X127933870Y-65356757D01*
X128143754Y-65390000D01*
X128356246Y-65390000D01*
X128566127Y-65356757D01*
X128566130Y-65356757D01*
X128768217Y-65291095D01*
X128957554Y-65194622D01*
X129011716Y-65155270D01*
X129011717Y-65155270D01*
X128379408Y-64522962D01*
X128442993Y-64505925D01*
X128557007Y-64440099D01*
X128650099Y-64347007D01*
X128715925Y-64232993D01*
X128732962Y-64169408D01*
X129365270Y-64801717D01*
X129365270Y-64801716D01*
X129404622Y-64747554D01*
X129501095Y-64558217D01*
X129566757Y-64356130D01*
X129566757Y-64356127D01*
X129600000Y-64146246D01*
X129600000Y-63933753D01*
X129566757Y-63723872D01*
X129566757Y-63723869D01*
X129501095Y-63521782D01*
X129404624Y-63332449D01*
X129365270Y-63278282D01*
X129365269Y-63278282D01*
X128732962Y-63910590D01*
X128715925Y-63847007D01*
X128650099Y-63732993D01*
X128557007Y-63639901D01*
X128442993Y-63574075D01*
X128379409Y-63557037D01*
X129049627Y-62886818D01*
X129110950Y-62853333D01*
X129137307Y-62850499D01*
X129147872Y-62850499D01*
X129207483Y-62844091D01*
X129342331Y-62793796D01*
X129457546Y-62707546D01*
X129543796Y-62592331D01*
X129594091Y-62457483D01*
X129600500Y-62397873D01*
X129600499Y-60602135D01*
X140149500Y-60602135D01*
X140149500Y-62397870D01*
X140149501Y-62397876D01*
X140155908Y-62457483D01*
X140206202Y-62592328D01*
X140206206Y-62592335D01*
X140292452Y-62707544D01*
X140292455Y-62707547D01*
X140407664Y-62793793D01*
X140407671Y-62793797D01*
X140452618Y-62810561D01*
X140542517Y-62844091D01*
X140602127Y-62850500D01*
X140612685Y-62850499D01*
X140679723Y-62870179D01*
X140700372Y-62886818D01*
X141370591Y-63557037D01*
X141307007Y-63574075D01*
X141192993Y-63639901D01*
X141099901Y-63732993D01*
X141034075Y-63847007D01*
X141017037Y-63910591D01*
X140384728Y-63278282D01*
X140384727Y-63278282D01*
X140345380Y-63332439D01*
X140248904Y-63521782D01*
X140183242Y-63723869D01*
X140183242Y-63723872D01*
X140150000Y-63933753D01*
X140150000Y-64146246D01*
X140183242Y-64356127D01*
X140183242Y-64356130D01*
X140248904Y-64558217D01*
X140345375Y-64747550D01*
X140384728Y-64801716D01*
X141017037Y-64169408D01*
X141034075Y-64232993D01*
X141099901Y-64347007D01*
X141192993Y-64440099D01*
X141307007Y-64505925D01*
X141370590Y-64522962D01*
X140738282Y-65155269D01*
X140738282Y-65155270D01*
X140792449Y-65194624D01*
X140981782Y-65291095D01*
X141183870Y-65356757D01*
X141393754Y-65390000D01*
X141606246Y-65390000D01*
X141816127Y-65356757D01*
X141816130Y-65356757D01*
X142018217Y-65291095D01*
X142207554Y-65194622D01*
X142261716Y-65155270D01*
X142261717Y-65155270D01*
X141629408Y-64522962D01*
X141692993Y-64505925D01*
X141807007Y-64440099D01*
X141900099Y-64347007D01*
X141965925Y-64232993D01*
X141982962Y-64169409D01*
X142615270Y-64801717D01*
X142615270Y-64801716D01*
X142654622Y-64747554D01*
X142751095Y-64558217D01*
X142816757Y-64356130D01*
X142816757Y-64356127D01*
X142850000Y-64146246D01*
X142850000Y-63933753D01*
X142816757Y-63723872D01*
X142816757Y-63723869D01*
X142751095Y-63521782D01*
X142654624Y-63332449D01*
X142615270Y-63278282D01*
X142615269Y-63278282D01*
X141982962Y-63910590D01*
X141965925Y-63847007D01*
X141900099Y-63732993D01*
X141807007Y-63639901D01*
X141692993Y-63574075D01*
X141629409Y-63557037D01*
X142299627Y-62886818D01*
X142360950Y-62853333D01*
X142387307Y-62850499D01*
X142397872Y-62850499D01*
X142457483Y-62844091D01*
X142592331Y-62793796D01*
X142707546Y-62707546D01*
X142793796Y-62592331D01*
X142844091Y-62457483D01*
X142850500Y-62397873D01*
X142850499Y-60602128D01*
X142844091Y-60542517D01*
X142793796Y-60407669D01*
X142793795Y-60407668D01*
X142793793Y-60407664D01*
X142707547Y-60292455D01*
X142707544Y-60292452D01*
X142592335Y-60206206D01*
X142592328Y-60206202D01*
X142457482Y-60155908D01*
X142457483Y-60155908D01*
X142397883Y-60149501D01*
X142397881Y-60149500D01*
X142397873Y-60149500D01*
X142397864Y-60149500D01*
X140602129Y-60149500D01*
X140602123Y-60149501D01*
X140542516Y-60155908D01*
X140407671Y-60206202D01*
X140407664Y-60206206D01*
X140292455Y-60292452D01*
X140292452Y-60292455D01*
X140206206Y-60407664D01*
X140206202Y-60407671D01*
X140155908Y-60542517D01*
X140149501Y-60602116D01*
X140149501Y-60602123D01*
X140149500Y-60602135D01*
X129600499Y-60602135D01*
X129600499Y-60602128D01*
X129594091Y-60542517D01*
X129543796Y-60407669D01*
X129543795Y-60407668D01*
X129543793Y-60407664D01*
X129457547Y-60292455D01*
X129457544Y-60292452D01*
X129342335Y-60206206D01*
X129342328Y-60206202D01*
X129207482Y-60155908D01*
X129207483Y-60155908D01*
X129147883Y-60149501D01*
X129147881Y-60149500D01*
X129147873Y-60149500D01*
X129147864Y-60149500D01*
X127352129Y-60149500D01*
X127352123Y-60149501D01*
X127292516Y-60155908D01*
X127157671Y-60206202D01*
X127157664Y-60206206D01*
X127042455Y-60292452D01*
X127042452Y-60292455D01*
X126956206Y-60407664D01*
X126956202Y-60407671D01*
X126905908Y-60542517D01*
X126899501Y-60602116D01*
X126899501Y-60602123D01*
X126899500Y-60602135D01*
X21750500Y-60602135D01*
X21750500Y-39255069D01*
X36500000Y-39255069D01*
X36500000Y-39750000D01*
X37237639Y-39750000D01*
X37230743Y-39766649D01*
X37200000Y-39921207D01*
X37200000Y-40078793D01*
X37230743Y-40233351D01*
X37237639Y-40250000D01*
X36500000Y-40250000D01*
X36500000Y-40744930D01*
X36515122Y-40879141D01*
X36574663Y-41049301D01*
X36670577Y-41201948D01*
X36798051Y-41329422D01*
X36950698Y-41425336D01*
X37120858Y-41484877D01*
X37255069Y-41499999D01*
X37255070Y-41500000D01*
X37750000Y-41500000D01*
X37750000Y-40762360D01*
X37766649Y-40769257D01*
X37921207Y-40800000D01*
X38078793Y-40800000D01*
X38233351Y-40769257D01*
X38250000Y-40762360D01*
X38250000Y-41500000D01*
X38744930Y-41500000D01*
X38744930Y-41499999D01*
X38879141Y-41484877D01*
X39049301Y-41425336D01*
X39201948Y-41329422D01*
X39329422Y-41201948D01*
X39425336Y-41049301D01*
X39484877Y-40879141D01*
X39499999Y-40744930D01*
X39500000Y-40744930D01*
X39500000Y-40250000D01*
X38762361Y-40250000D01*
X38769257Y-40233351D01*
X38800000Y-40078793D01*
X38800000Y-39921207D01*
X38769257Y-39766649D01*
X38762361Y-39750000D01*
X39500000Y-39750000D01*
X39500000Y-39255070D01*
X39499999Y-39255069D01*
X88500000Y-39255069D01*
X88500000Y-39750000D01*
X89237639Y-39750000D01*
X89230743Y-39766649D01*
X89200000Y-39921207D01*
X89200000Y-40078793D01*
X89230743Y-40233351D01*
X89237639Y-40250000D01*
X88500000Y-40250000D01*
X88500000Y-40744930D01*
X88515122Y-40879141D01*
X88574663Y-41049301D01*
X88670577Y-41201948D01*
X88798051Y-41329422D01*
X88950698Y-41425336D01*
X89120858Y-41484877D01*
X89255069Y-41499999D01*
X89255070Y-41500000D01*
X89750000Y-41500000D01*
X89750000Y-40762360D01*
X89766649Y-40769257D01*
X89921207Y-40800000D01*
X90078793Y-40800000D01*
X90233351Y-40769257D01*
X90250000Y-40762360D01*
X90250000Y-41500000D01*
X90744930Y-41500000D01*
X90744930Y-41499999D01*
X90879141Y-41484877D01*
X91049301Y-41425336D01*
X91201948Y-41329422D01*
X91329422Y-41201948D01*
X91425336Y-41049301D01*
X91484877Y-40879141D01*
X91499999Y-40744930D01*
X91500000Y-40744930D01*
X91500000Y-40250000D01*
X90762361Y-40250000D01*
X90769257Y-40233351D01*
X90800000Y-40078793D01*
X90800000Y-39921207D01*
X90769257Y-39766649D01*
X90762361Y-39750000D01*
X91500000Y-39750000D01*
X91500000Y-39255070D01*
X91499999Y-39255069D01*
X91484877Y-39120858D01*
X91425336Y-38950698D01*
X91341685Y-38817567D01*
X91341684Y-38817565D01*
X91329424Y-38798053D01*
X91286440Y-38755069D01*
X193500000Y-38755069D01*
X193500000Y-39250000D01*
X194237639Y-39250000D01*
X194230743Y-39266649D01*
X194200000Y-39421207D01*
X194200000Y-39578793D01*
X194230743Y-39733351D01*
X194237639Y-39750000D01*
X193500000Y-39750000D01*
X193500000Y-40244930D01*
X193515122Y-40379141D01*
X193574663Y-40549301D01*
X193670577Y-40701948D01*
X193798051Y-40829422D01*
X193950698Y-40925336D01*
X194120858Y-40984877D01*
X194255069Y-40999999D01*
X194255070Y-41000000D01*
X194750000Y-41000000D01*
X194750000Y-40262360D01*
X194766649Y-40269257D01*
X194921207Y-40300000D01*
X195078793Y-40300000D01*
X195233351Y-40269257D01*
X195250000Y-40262360D01*
X195250000Y-41000000D01*
X195744930Y-41000000D01*
X195744930Y-40999999D01*
X195879141Y-40984877D01*
X196049301Y-40925336D01*
X196201948Y-40829422D01*
X196329422Y-40701948D01*
X196425336Y-40549301D01*
X196484877Y-40379141D01*
X196499999Y-40244930D01*
X196500000Y-40244930D01*
X196500000Y-39750000D01*
X195762361Y-39750000D01*
X195769257Y-39733351D01*
X195800000Y-39578793D01*
X195800000Y-39421207D01*
X195769257Y-39266649D01*
X195762361Y-39250000D01*
X196500000Y-39250000D01*
X196500000Y-38755070D01*
X196499999Y-38755069D01*
X245500000Y-38755069D01*
X245500000Y-39250000D01*
X246237639Y-39250000D01*
X246230743Y-39266649D01*
X246200000Y-39421207D01*
X246200000Y-39578793D01*
X246230743Y-39733351D01*
X246237639Y-39750000D01*
X245500000Y-39750000D01*
X245500000Y-40244930D01*
X245515122Y-40379141D01*
X245574663Y-40549301D01*
X245670577Y-40701948D01*
X245798051Y-40829422D01*
X245950698Y-40925336D01*
X246120858Y-40984877D01*
X246255069Y-40999999D01*
X246255070Y-41000000D01*
X246750000Y-41000000D01*
X246750000Y-40262360D01*
X246766649Y-40269257D01*
X246921207Y-40300000D01*
X247078793Y-40300000D01*
X247233351Y-40269257D01*
X247250000Y-40262360D01*
X247250000Y-41000000D01*
X247744930Y-41000000D01*
X247744930Y-40999999D01*
X247879141Y-40984877D01*
X248049301Y-40925336D01*
X248201948Y-40829422D01*
X248329422Y-40701948D01*
X248425336Y-40549301D01*
X248484877Y-40379141D01*
X248499999Y-40244930D01*
X248500000Y-40244930D01*
X248500000Y-39750000D01*
X247762361Y-39750000D01*
X247769257Y-39733351D01*
X247800000Y-39578793D01*
X247800000Y-39421207D01*
X247769257Y-39266649D01*
X247762361Y-39250000D01*
X248500000Y-39250000D01*
X248500000Y-38755070D01*
X248499999Y-38755069D01*
X248484877Y-38620858D01*
X248425336Y-38450698D01*
X248329422Y-38298051D01*
X248201948Y-38170577D01*
X248049301Y-38074663D01*
X247879141Y-38015122D01*
X247744930Y-38000000D01*
X247250000Y-38000000D01*
X247250000Y-38737639D01*
X247233351Y-38730743D01*
X247078793Y-38700000D01*
X246921207Y-38700000D01*
X246766649Y-38730743D01*
X246750000Y-38737639D01*
X246750000Y-38000000D01*
X246255070Y-38000000D01*
X246120858Y-38015122D01*
X245950698Y-38074663D01*
X245798051Y-38170577D01*
X245670577Y-38298051D01*
X245574663Y-38450698D01*
X245515122Y-38620858D01*
X245500000Y-38755069D01*
X196499999Y-38755069D01*
X196484877Y-38620858D01*
X196425336Y-38450698D01*
X196329422Y-38298051D01*
X196201948Y-38170577D01*
X196049301Y-38074663D01*
X195879141Y-38015122D01*
X195744930Y-38000000D01*
X195250000Y-38000000D01*
X195250000Y-38737639D01*
X195233351Y-38730743D01*
X195078793Y-38700000D01*
X194921207Y-38700000D01*
X194766649Y-38730743D01*
X194750000Y-38737639D01*
X194750000Y-38000000D01*
X194255070Y-38000000D01*
X194120858Y-38015122D01*
X193950698Y-38074663D01*
X193798051Y-38170577D01*
X193670577Y-38298051D01*
X193574663Y-38450698D01*
X193515122Y-38620858D01*
X193500000Y-38755069D01*
X91286440Y-38755069D01*
X91201948Y-38670577D01*
X91049301Y-38574663D01*
X90879141Y-38515122D01*
X90744930Y-38500000D01*
X90250000Y-38500000D01*
X90250000Y-39237639D01*
X90233351Y-39230743D01*
X90078793Y-39200000D01*
X89921207Y-39200000D01*
X89766649Y-39230743D01*
X89750000Y-39237639D01*
X89750000Y-38500000D01*
X89255070Y-38500000D01*
X89120858Y-38515122D01*
X88950698Y-38574663D01*
X88798051Y-38670577D01*
X88670577Y-38798051D01*
X88574663Y-38950698D01*
X88515122Y-39120858D01*
X88500000Y-39255069D01*
X39499999Y-39255069D01*
X39484877Y-39120858D01*
X39425336Y-38950698D01*
X39329422Y-38798051D01*
X39201948Y-38670577D01*
X39049301Y-38574663D01*
X38879141Y-38515122D01*
X38744930Y-38500000D01*
X38250000Y-38500000D01*
X38250000Y-39237639D01*
X38233351Y-39230743D01*
X38078793Y-39200000D01*
X37921207Y-39200000D01*
X37766649Y-39230743D01*
X37750000Y-39237639D01*
X37750000Y-38500000D01*
X37255070Y-38500000D01*
X37120858Y-38515122D01*
X36950698Y-38574663D01*
X36798051Y-38670577D01*
X36670577Y-38798051D01*
X36574663Y-38950698D01*
X36515122Y-39120858D01*
X36500000Y-39255069D01*
X21750500Y-39255069D01*
X21750500Y-27878711D01*
X36149500Y-27878711D01*
X36149500Y-28121288D01*
X36181161Y-28361785D01*
X36243947Y-28596104D01*
X36296400Y-28722736D01*
X36336776Y-28820212D01*
X36458064Y-29030289D01*
X36458066Y-29030292D01*
X36458067Y-29030293D01*
X36605733Y-29222736D01*
X36605739Y-29222743D01*
X36777256Y-29394260D01*
X36777262Y-29394265D01*
X36969711Y-29541936D01*
X37179788Y-29663224D01*
X37403900Y-29756054D01*
X37638211Y-29818838D01*
X37818586Y-29842584D01*
X37878711Y-29850500D01*
X37878712Y-29850500D01*
X38121289Y-29850500D01*
X38169388Y-29844167D01*
X38361789Y-29818838D01*
X38596100Y-29756054D01*
X38820212Y-29663224D01*
X39030289Y-29541936D01*
X39222738Y-29394265D01*
X39394265Y-29222738D01*
X39541936Y-29030289D01*
X39663224Y-28820212D01*
X39756054Y-28596100D01*
X39818838Y-28361789D01*
X39850500Y-28121288D01*
X39850500Y-27878712D01*
X39850500Y-27878711D01*
X88149500Y-27878711D01*
X88149500Y-28121288D01*
X88181161Y-28361785D01*
X88243947Y-28596104D01*
X88296400Y-28722736D01*
X88336776Y-28820212D01*
X88458064Y-29030289D01*
X88458066Y-29030292D01*
X88458067Y-29030293D01*
X88605733Y-29222736D01*
X88605739Y-29222743D01*
X88777256Y-29394260D01*
X88777262Y-29394265D01*
X88969711Y-29541936D01*
X89179788Y-29663224D01*
X89403900Y-29756054D01*
X89638211Y-29818838D01*
X89818586Y-29842584D01*
X89878711Y-29850500D01*
X89878712Y-29850500D01*
X90121289Y-29850500D01*
X90169388Y-29844167D01*
X90361789Y-29818838D01*
X90596100Y-29756054D01*
X90820212Y-29663224D01*
X91030289Y-29541936D01*
X91222738Y-29394265D01*
X91394265Y-29222738D01*
X91541936Y-29030289D01*
X91663224Y-28820212D01*
X91756054Y-28596100D01*
X91818838Y-28361789D01*
X91850500Y-28121288D01*
X91850500Y-27878712D01*
X91818838Y-27638211D01*
X91756054Y-27403900D01*
X91745620Y-27378711D01*
X193149500Y-27378711D01*
X193149500Y-27621288D01*
X193181161Y-27861785D01*
X193243947Y-28096104D01*
X193254379Y-28121288D01*
X193336776Y-28320212D01*
X193458064Y-28530289D01*
X193458066Y-28530292D01*
X193458067Y-28530293D01*
X193605733Y-28722736D01*
X193605739Y-28722743D01*
X193777256Y-28894260D01*
X193777262Y-28894265D01*
X193969711Y-29041936D01*
X194179788Y-29163224D01*
X194403900Y-29256054D01*
X194638211Y-29318838D01*
X194818586Y-29342584D01*
X194878711Y-29350500D01*
X194878712Y-29350500D01*
X195121289Y-29350500D01*
X195169388Y-29344167D01*
X195361789Y-29318838D01*
X195596100Y-29256054D01*
X195820212Y-29163224D01*
X196030289Y-29041936D01*
X196222738Y-28894265D01*
X196394265Y-28722738D01*
X196541936Y-28530289D01*
X196663224Y-28320212D01*
X196756054Y-28096100D01*
X196818838Y-27861789D01*
X196850500Y-27621288D01*
X196850500Y-27378712D01*
X196850500Y-27378711D01*
X245149500Y-27378711D01*
X245149500Y-27621288D01*
X245181161Y-27861785D01*
X245243947Y-28096104D01*
X245254379Y-28121288D01*
X245336776Y-28320212D01*
X245458064Y-28530289D01*
X245458066Y-28530292D01*
X245458067Y-28530293D01*
X245605733Y-28722736D01*
X245605739Y-28722743D01*
X245777256Y-28894260D01*
X245777262Y-28894265D01*
X245969711Y-29041936D01*
X246179788Y-29163224D01*
X246403900Y-29256054D01*
X246638211Y-29318838D01*
X246818586Y-29342584D01*
X246878711Y-29350500D01*
X246878712Y-29350500D01*
X247121289Y-29350500D01*
X247169388Y-29344167D01*
X247361789Y-29318838D01*
X247596100Y-29256054D01*
X247820212Y-29163224D01*
X248030289Y-29041936D01*
X248222738Y-28894265D01*
X248394265Y-28722738D01*
X248541936Y-28530289D01*
X248663224Y-28320212D01*
X248756054Y-28096100D01*
X248818838Y-27861789D01*
X248850500Y-27621288D01*
X248850500Y-27378712D01*
X248818838Y-27138211D01*
X248756054Y-26903900D01*
X248663224Y-26679788D01*
X248541936Y-26469711D01*
X248394265Y-26277262D01*
X248394260Y-26277256D01*
X248222743Y-26105739D01*
X248222736Y-26105733D01*
X248030293Y-25958067D01*
X248030292Y-25958066D01*
X248030289Y-25958064D01*
X247820212Y-25836776D01*
X247820205Y-25836773D01*
X247596104Y-25743947D01*
X247361785Y-25681161D01*
X247121289Y-25649500D01*
X247121288Y-25649500D01*
X246878712Y-25649500D01*
X246878711Y-25649500D01*
X246638214Y-25681161D01*
X246403895Y-25743947D01*
X246179794Y-25836773D01*
X246179785Y-25836777D01*
X245969706Y-25958067D01*
X245777263Y-26105733D01*
X245777256Y-26105739D01*
X245605739Y-26277256D01*
X245605733Y-26277263D01*
X245458067Y-26469706D01*
X245336777Y-26679785D01*
X245336773Y-26679794D01*
X245243947Y-26903895D01*
X245181161Y-27138214D01*
X245149500Y-27378711D01*
X196850500Y-27378711D01*
X196818838Y-27138211D01*
X196756054Y-26903900D01*
X196663224Y-26679788D01*
X196541936Y-26469711D01*
X196394265Y-26277262D01*
X196394260Y-26277256D01*
X196222743Y-26105739D01*
X196222736Y-26105733D01*
X196030293Y-25958067D01*
X196030292Y-25958066D01*
X196030289Y-25958064D01*
X195820212Y-25836776D01*
X195820205Y-25836773D01*
X195596104Y-25743947D01*
X195361785Y-25681161D01*
X195121289Y-25649500D01*
X195121288Y-25649500D01*
X194878712Y-25649500D01*
X194878711Y-25649500D01*
X194638214Y-25681161D01*
X194403895Y-25743947D01*
X194179794Y-25836773D01*
X194179785Y-25836777D01*
X193969706Y-25958067D01*
X193777263Y-26105733D01*
X193777256Y-26105739D01*
X193605739Y-26277256D01*
X193605733Y-26277263D01*
X193458067Y-26469706D01*
X193336777Y-26679785D01*
X193336773Y-26679794D01*
X193243947Y-26903895D01*
X193181161Y-27138214D01*
X193149500Y-27378711D01*
X91745620Y-27378711D01*
X91663226Y-27179794D01*
X91663224Y-27179788D01*
X91541936Y-26969711D01*
X91394265Y-26777262D01*
X91394260Y-26777256D01*
X91222743Y-26605739D01*
X91222736Y-26605733D01*
X91030293Y-26458067D01*
X91030292Y-26458066D01*
X91030289Y-26458064D01*
X90820212Y-26336776D01*
X90820205Y-26336773D01*
X90596104Y-26243947D01*
X90361785Y-26181161D01*
X90121289Y-26149500D01*
X90121288Y-26149500D01*
X89878712Y-26149500D01*
X89878711Y-26149500D01*
X89638214Y-26181161D01*
X89403895Y-26243947D01*
X89179794Y-26336773D01*
X89179785Y-26336777D01*
X88969706Y-26458067D01*
X88777263Y-26605733D01*
X88777256Y-26605739D01*
X88605739Y-26777256D01*
X88605733Y-26777263D01*
X88458067Y-26969706D01*
X88336777Y-27179785D01*
X88336773Y-27179794D01*
X88243947Y-27403895D01*
X88181161Y-27638214D01*
X88149500Y-27878711D01*
X39850500Y-27878711D01*
X39818838Y-27638211D01*
X39756054Y-27403900D01*
X39663224Y-27179788D01*
X39541936Y-26969711D01*
X39394265Y-26777262D01*
X39394260Y-26777256D01*
X39222743Y-26605739D01*
X39222736Y-26605733D01*
X39030293Y-26458067D01*
X39030292Y-26458066D01*
X39030289Y-26458064D01*
X38820212Y-26336776D01*
X38820205Y-26336773D01*
X38596104Y-26243947D01*
X38361785Y-26181161D01*
X38121289Y-26149500D01*
X38121288Y-26149500D01*
X37878712Y-26149500D01*
X37878711Y-26149500D01*
X37638214Y-26181161D01*
X37403895Y-26243947D01*
X37179794Y-26336773D01*
X37179785Y-26336777D01*
X36969706Y-26458067D01*
X36777263Y-26605733D01*
X36777256Y-26605739D01*
X36605739Y-26777256D01*
X36605733Y-26777263D01*
X36458067Y-26969706D01*
X36336777Y-27179785D01*
X36336773Y-27179794D01*
X36243947Y-27403895D01*
X36181161Y-27638214D01*
X36149500Y-27878711D01*
X21750500Y-27878711D01*
X21750500Y-17874500D01*
X21770185Y-17807461D01*
X21822989Y-17761706D01*
X21874500Y-17750500D01*
X261125500Y-17750500D01*
X261192539Y-17770185D01*
G37*
%TD.AperFunction*%
%TD*%
M02*
