%TF.GenerationSoftware,KiCad,Pcbnew,10.0.4*%
%TF.CreationDate,2026-07-11T11:01:38+05:30*%
%TF.ProjectId,Kratos_intro,4b726174-6f73-45f6-996e-74726f2e6b69,rev?*%
%TF.SameCoordinates,Original*%
%TF.FileFunction,Legend,Top*%
%TF.FilePolarity,Positive*%
%FSLAX46Y46*%
G04 Gerber Fmt 4.6, Leading zero omitted, Abs format (unit mm)*
G04 Created by KiCad (PCBNEW 10.0.4) date 2026-07-11 11:01:38*
%MOMM*%
%LPD*%
G01*
G04 APERTURE LIST*
%ADD10C,0.150000*%
%ADD11C,0.120000*%
%ADD12C,0.127000*%
G04 APERTURE END LIST*
D10*
X86534819Y-116243333D02*
X87249104Y-116243333D01*
X87249104Y-116243333D02*
X87391961Y-116290952D01*
X87391961Y-116290952D02*
X87487200Y-116386190D01*
X87487200Y-116386190D02*
X87534819Y-116529047D01*
X87534819Y-116529047D02*
X87534819Y-116624285D01*
X87534819Y-115719523D02*
X87534819Y-115529047D01*
X87534819Y-115529047D02*
X87487200Y-115433809D01*
X87487200Y-115433809D02*
X87439580Y-115386190D01*
X87439580Y-115386190D02*
X87296723Y-115290952D01*
X87296723Y-115290952D02*
X87106247Y-115243333D01*
X87106247Y-115243333D02*
X86725295Y-115243333D01*
X86725295Y-115243333D02*
X86630057Y-115290952D01*
X86630057Y-115290952D02*
X86582438Y-115338571D01*
X86582438Y-115338571D02*
X86534819Y-115433809D01*
X86534819Y-115433809D02*
X86534819Y-115624285D01*
X86534819Y-115624285D02*
X86582438Y-115719523D01*
X86582438Y-115719523D02*
X86630057Y-115767142D01*
X86630057Y-115767142D02*
X86725295Y-115814761D01*
X86725295Y-115814761D02*
X86963390Y-115814761D01*
X86963390Y-115814761D02*
X87058628Y-115767142D01*
X87058628Y-115767142D02*
X87106247Y-115719523D01*
X87106247Y-115719523D02*
X87153866Y-115624285D01*
X87153866Y-115624285D02*
X87153866Y-115433809D01*
X87153866Y-115433809D02*
X87106247Y-115338571D01*
X87106247Y-115338571D02*
X87058628Y-115290952D01*
X87058628Y-115290952D02*
X86963390Y-115243333D01*
X46588095Y-103954819D02*
X46588095Y-104764342D01*
X46588095Y-104764342D02*
X46635714Y-104859580D01*
X46635714Y-104859580D02*
X46683333Y-104907200D01*
X46683333Y-104907200D02*
X46778571Y-104954819D01*
X46778571Y-104954819D02*
X46969047Y-104954819D01*
X46969047Y-104954819D02*
X47064285Y-104907200D01*
X47064285Y-104907200D02*
X47111904Y-104859580D01*
X47111904Y-104859580D02*
X47159523Y-104764342D01*
X47159523Y-104764342D02*
X47159523Y-103954819D01*
X48159523Y-104954819D02*
X47588095Y-104954819D01*
X47873809Y-104954819D02*
X47873809Y-103954819D01*
X47873809Y-103954819D02*
X47778571Y-104097676D01*
X47778571Y-104097676D02*
X47683333Y-104192914D01*
X47683333Y-104192914D02*
X47588095Y-104240533D01*
X73163095Y-146989819D02*
X73163095Y-147799342D01*
X73163095Y-147799342D02*
X73210714Y-147894580D01*
X73210714Y-147894580D02*
X73258333Y-147942200D01*
X73258333Y-147942200D02*
X73353571Y-147989819D01*
X73353571Y-147989819D02*
X73544047Y-147989819D01*
X73544047Y-147989819D02*
X73639285Y-147942200D01*
X73639285Y-147942200D02*
X73686904Y-147894580D01*
X73686904Y-147894580D02*
X73734523Y-147799342D01*
X73734523Y-147799342D02*
X73734523Y-146989819D01*
X74115476Y-146989819D02*
X74734523Y-146989819D01*
X74734523Y-146989819D02*
X74401190Y-147370771D01*
X74401190Y-147370771D02*
X74544047Y-147370771D01*
X74544047Y-147370771D02*
X74639285Y-147418390D01*
X74639285Y-147418390D02*
X74686904Y-147466009D01*
X74686904Y-147466009D02*
X74734523Y-147561247D01*
X74734523Y-147561247D02*
X74734523Y-147799342D01*
X74734523Y-147799342D02*
X74686904Y-147894580D01*
X74686904Y-147894580D02*
X74639285Y-147942200D01*
X74639285Y-147942200D02*
X74544047Y-147989819D01*
X74544047Y-147989819D02*
X74258333Y-147989819D01*
X74258333Y-147989819D02*
X74163095Y-147942200D01*
X74163095Y-147942200D02*
X74115476Y-147894580D01*
X20769700Y-67343332D02*
X20817319Y-67200475D01*
X20817319Y-67200475D02*
X20817319Y-66962380D01*
X20817319Y-66962380D02*
X20769700Y-66867142D01*
X20769700Y-66867142D02*
X20722080Y-66819523D01*
X20722080Y-66819523D02*
X20626842Y-66771904D01*
X20626842Y-66771904D02*
X20531604Y-66771904D01*
X20531604Y-66771904D02*
X20436366Y-66819523D01*
X20436366Y-66819523D02*
X20388747Y-66867142D01*
X20388747Y-66867142D02*
X20341128Y-66962380D01*
X20341128Y-66962380D02*
X20293509Y-67152856D01*
X20293509Y-67152856D02*
X20245890Y-67248094D01*
X20245890Y-67248094D02*
X20198271Y-67295713D01*
X20198271Y-67295713D02*
X20103033Y-67343332D01*
X20103033Y-67343332D02*
X20007795Y-67343332D01*
X20007795Y-67343332D02*
X19912557Y-67295713D01*
X19912557Y-67295713D02*
X19864938Y-67248094D01*
X19864938Y-67248094D02*
X19817319Y-67152856D01*
X19817319Y-67152856D02*
X19817319Y-66914761D01*
X19817319Y-66914761D02*
X19864938Y-66771904D01*
X19817319Y-66438570D02*
X20817319Y-66200475D01*
X20817319Y-66200475D02*
X20103033Y-66009999D01*
X20103033Y-66009999D02*
X20817319Y-65819523D01*
X20817319Y-65819523D02*
X19817319Y-65581428D01*
X20817319Y-64676666D02*
X20817319Y-65248094D01*
X20817319Y-64962380D02*
X19817319Y-64962380D01*
X19817319Y-64962380D02*
X19960176Y-65057618D01*
X19960176Y-65057618D02*
X20055414Y-65152856D01*
X20055414Y-65152856D02*
X20103033Y-65248094D01*
X27214700Y-67343332D02*
X27262319Y-67200475D01*
X27262319Y-67200475D02*
X27262319Y-66962380D01*
X27262319Y-66962380D02*
X27214700Y-66867142D01*
X27214700Y-66867142D02*
X27167080Y-66819523D01*
X27167080Y-66819523D02*
X27071842Y-66771904D01*
X27071842Y-66771904D02*
X26976604Y-66771904D01*
X26976604Y-66771904D02*
X26881366Y-66819523D01*
X26881366Y-66819523D02*
X26833747Y-66867142D01*
X26833747Y-66867142D02*
X26786128Y-66962380D01*
X26786128Y-66962380D02*
X26738509Y-67152856D01*
X26738509Y-67152856D02*
X26690890Y-67248094D01*
X26690890Y-67248094D02*
X26643271Y-67295713D01*
X26643271Y-67295713D02*
X26548033Y-67343332D01*
X26548033Y-67343332D02*
X26452795Y-67343332D01*
X26452795Y-67343332D02*
X26357557Y-67295713D01*
X26357557Y-67295713D02*
X26309938Y-67248094D01*
X26309938Y-67248094D02*
X26262319Y-67152856D01*
X26262319Y-67152856D02*
X26262319Y-66914761D01*
X26262319Y-66914761D02*
X26309938Y-66771904D01*
X26262319Y-66438570D02*
X27262319Y-66200475D01*
X27262319Y-66200475D02*
X26548033Y-66009999D01*
X26548033Y-66009999D02*
X27262319Y-65819523D01*
X27262319Y-65819523D02*
X26262319Y-65581428D01*
X26357557Y-65248094D02*
X26309938Y-65200475D01*
X26309938Y-65200475D02*
X26262319Y-65105237D01*
X26262319Y-65105237D02*
X26262319Y-64867142D01*
X26262319Y-64867142D02*
X26309938Y-64771904D01*
X26309938Y-64771904D02*
X26357557Y-64724285D01*
X26357557Y-64724285D02*
X26452795Y-64676666D01*
X26452795Y-64676666D02*
X26548033Y-64676666D01*
X26548033Y-64676666D02*
X26690890Y-64724285D01*
X26690890Y-64724285D02*
X27262319Y-65295713D01*
X27262319Y-65295713D02*
X27262319Y-64676666D01*
X33659700Y-67343332D02*
X33707319Y-67200475D01*
X33707319Y-67200475D02*
X33707319Y-66962380D01*
X33707319Y-66962380D02*
X33659700Y-66867142D01*
X33659700Y-66867142D02*
X33612080Y-66819523D01*
X33612080Y-66819523D02*
X33516842Y-66771904D01*
X33516842Y-66771904D02*
X33421604Y-66771904D01*
X33421604Y-66771904D02*
X33326366Y-66819523D01*
X33326366Y-66819523D02*
X33278747Y-66867142D01*
X33278747Y-66867142D02*
X33231128Y-66962380D01*
X33231128Y-66962380D02*
X33183509Y-67152856D01*
X33183509Y-67152856D02*
X33135890Y-67248094D01*
X33135890Y-67248094D02*
X33088271Y-67295713D01*
X33088271Y-67295713D02*
X32993033Y-67343332D01*
X32993033Y-67343332D02*
X32897795Y-67343332D01*
X32897795Y-67343332D02*
X32802557Y-67295713D01*
X32802557Y-67295713D02*
X32754938Y-67248094D01*
X32754938Y-67248094D02*
X32707319Y-67152856D01*
X32707319Y-67152856D02*
X32707319Y-66914761D01*
X32707319Y-66914761D02*
X32754938Y-66771904D01*
X32707319Y-66438570D02*
X33707319Y-66200475D01*
X33707319Y-66200475D02*
X32993033Y-66009999D01*
X32993033Y-66009999D02*
X33707319Y-65819523D01*
X33707319Y-65819523D02*
X32707319Y-65581428D01*
X32707319Y-65295713D02*
X32707319Y-64676666D01*
X32707319Y-64676666D02*
X33088271Y-65009999D01*
X33088271Y-65009999D02*
X33088271Y-64867142D01*
X33088271Y-64867142D02*
X33135890Y-64771904D01*
X33135890Y-64771904D02*
X33183509Y-64724285D01*
X33183509Y-64724285D02*
X33278747Y-64676666D01*
X33278747Y-64676666D02*
X33516842Y-64676666D01*
X33516842Y-64676666D02*
X33612080Y-64724285D01*
X33612080Y-64724285D02*
X33659700Y-64771904D01*
X33659700Y-64771904D02*
X33707319Y-64867142D01*
X33707319Y-64867142D02*
X33707319Y-65152856D01*
X33707319Y-65152856D02*
X33659700Y-65248094D01*
X33659700Y-65248094D02*
X33612080Y-65295713D01*
X44521905Y-138414819D02*
X44521905Y-137414819D01*
X44521905Y-137414819D02*
X44760000Y-137414819D01*
X44760000Y-137414819D02*
X44902857Y-137462438D01*
X44902857Y-137462438D02*
X44998095Y-137557676D01*
X44998095Y-137557676D02*
X45045714Y-137652914D01*
X45045714Y-137652914D02*
X45093333Y-137843390D01*
X45093333Y-137843390D02*
X45093333Y-137986247D01*
X45093333Y-137986247D02*
X45045714Y-138176723D01*
X45045714Y-138176723D02*
X44998095Y-138271961D01*
X44998095Y-138271961D02*
X44902857Y-138367200D01*
X44902857Y-138367200D02*
X44760000Y-138414819D01*
X44760000Y-138414819D02*
X44521905Y-138414819D01*
X45474286Y-137510057D02*
X45521905Y-137462438D01*
X45521905Y-137462438D02*
X45617143Y-137414819D01*
X45617143Y-137414819D02*
X45855238Y-137414819D01*
X45855238Y-137414819D02*
X45950476Y-137462438D01*
X45950476Y-137462438D02*
X45998095Y-137510057D01*
X45998095Y-137510057D02*
X46045714Y-137605295D01*
X46045714Y-137605295D02*
X46045714Y-137700533D01*
X46045714Y-137700533D02*
X45998095Y-137843390D01*
X45998095Y-137843390D02*
X45426667Y-138414819D01*
X45426667Y-138414819D02*
X46045714Y-138414819D01*
X38511905Y-138414819D02*
X38511905Y-137414819D01*
X38511905Y-137414819D02*
X38750000Y-137414819D01*
X38750000Y-137414819D02*
X38892857Y-137462438D01*
X38892857Y-137462438D02*
X38988095Y-137557676D01*
X38988095Y-137557676D02*
X39035714Y-137652914D01*
X39035714Y-137652914D02*
X39083333Y-137843390D01*
X39083333Y-137843390D02*
X39083333Y-137986247D01*
X39083333Y-137986247D02*
X39035714Y-138176723D01*
X39035714Y-138176723D02*
X38988095Y-138271961D01*
X38988095Y-138271961D02*
X38892857Y-138367200D01*
X38892857Y-138367200D02*
X38750000Y-138414819D01*
X38750000Y-138414819D02*
X38511905Y-138414819D01*
X39416667Y-137414819D02*
X40035714Y-137414819D01*
X40035714Y-137414819D02*
X39702381Y-137795771D01*
X39702381Y-137795771D02*
X39845238Y-137795771D01*
X39845238Y-137795771D02*
X39940476Y-137843390D01*
X39940476Y-137843390D02*
X39988095Y-137891009D01*
X39988095Y-137891009D02*
X40035714Y-137986247D01*
X40035714Y-137986247D02*
X40035714Y-138224342D01*
X40035714Y-138224342D02*
X39988095Y-138319580D01*
X39988095Y-138319580D02*
X39940476Y-138367200D01*
X39940476Y-138367200D02*
X39845238Y-138414819D01*
X39845238Y-138414819D02*
X39559524Y-138414819D01*
X39559524Y-138414819D02*
X39464286Y-138367200D01*
X39464286Y-138367200D02*
X39416667Y-138319580D01*
X67084819Y-100761904D02*
X67894342Y-100761904D01*
X67894342Y-100761904D02*
X67989580Y-100714285D01*
X67989580Y-100714285D02*
X68037200Y-100666666D01*
X68037200Y-100666666D02*
X68084819Y-100571428D01*
X68084819Y-100571428D02*
X68084819Y-100380952D01*
X68084819Y-100380952D02*
X68037200Y-100285714D01*
X68037200Y-100285714D02*
X67989580Y-100238095D01*
X67989580Y-100238095D02*
X67894342Y-100190476D01*
X67894342Y-100190476D02*
X67084819Y-100190476D01*
X67180057Y-99761904D02*
X67132438Y-99714285D01*
X67132438Y-99714285D02*
X67084819Y-99619047D01*
X67084819Y-99619047D02*
X67084819Y-99380952D01*
X67084819Y-99380952D02*
X67132438Y-99285714D01*
X67132438Y-99285714D02*
X67180057Y-99238095D01*
X67180057Y-99238095D02*
X67275295Y-99190476D01*
X67275295Y-99190476D02*
X67370533Y-99190476D01*
X67370533Y-99190476D02*
X67513390Y-99238095D01*
X67513390Y-99238095D02*
X68084819Y-99809523D01*
X68084819Y-99809523D02*
X68084819Y-99190476D01*
X31649819Y-103333333D02*
X32364104Y-103333333D01*
X32364104Y-103333333D02*
X32506961Y-103380952D01*
X32506961Y-103380952D02*
X32602200Y-103476190D01*
X32602200Y-103476190D02*
X32649819Y-103619047D01*
X32649819Y-103619047D02*
X32649819Y-103714285D01*
X31649819Y-102952380D02*
X31649819Y-102333333D01*
X31649819Y-102333333D02*
X32030771Y-102666666D01*
X32030771Y-102666666D02*
X32030771Y-102523809D01*
X32030771Y-102523809D02*
X32078390Y-102428571D01*
X32078390Y-102428571D02*
X32126009Y-102380952D01*
X32126009Y-102380952D02*
X32221247Y-102333333D01*
X32221247Y-102333333D02*
X32459342Y-102333333D01*
X32459342Y-102333333D02*
X32554580Y-102380952D01*
X32554580Y-102380952D02*
X32602200Y-102428571D01*
X32602200Y-102428571D02*
X32649819Y-102523809D01*
X32649819Y-102523809D02*
X32649819Y-102809523D01*
X32649819Y-102809523D02*
X32602200Y-102904761D01*
X32602200Y-102904761D02*
X32554580Y-102952380D01*
X87224819Y-125423333D02*
X87939104Y-125423333D01*
X87939104Y-125423333D02*
X88081961Y-125470952D01*
X88081961Y-125470952D02*
X88177200Y-125566190D01*
X88177200Y-125566190D02*
X88224819Y-125709047D01*
X88224819Y-125709047D02*
X88224819Y-125804285D01*
X87653390Y-124804285D02*
X87605771Y-124899523D01*
X87605771Y-124899523D02*
X87558152Y-124947142D01*
X87558152Y-124947142D02*
X87462914Y-124994761D01*
X87462914Y-124994761D02*
X87415295Y-124994761D01*
X87415295Y-124994761D02*
X87320057Y-124947142D01*
X87320057Y-124947142D02*
X87272438Y-124899523D01*
X87272438Y-124899523D02*
X87224819Y-124804285D01*
X87224819Y-124804285D02*
X87224819Y-124613809D01*
X87224819Y-124613809D02*
X87272438Y-124518571D01*
X87272438Y-124518571D02*
X87320057Y-124470952D01*
X87320057Y-124470952D02*
X87415295Y-124423333D01*
X87415295Y-124423333D02*
X87462914Y-124423333D01*
X87462914Y-124423333D02*
X87558152Y-124470952D01*
X87558152Y-124470952D02*
X87605771Y-124518571D01*
X87605771Y-124518571D02*
X87653390Y-124613809D01*
X87653390Y-124613809D02*
X87653390Y-124804285D01*
X87653390Y-124804285D02*
X87701009Y-124899523D01*
X87701009Y-124899523D02*
X87748628Y-124947142D01*
X87748628Y-124947142D02*
X87843866Y-124994761D01*
X87843866Y-124994761D02*
X88034342Y-124994761D01*
X88034342Y-124994761D02*
X88129580Y-124947142D01*
X88129580Y-124947142D02*
X88177200Y-124899523D01*
X88177200Y-124899523D02*
X88224819Y-124804285D01*
X88224819Y-124804285D02*
X88224819Y-124613809D01*
X88224819Y-124613809D02*
X88177200Y-124518571D01*
X88177200Y-124518571D02*
X88129580Y-124470952D01*
X88129580Y-124470952D02*
X88034342Y-124423333D01*
X88034342Y-124423333D02*
X87843866Y-124423333D01*
X87843866Y-124423333D02*
X87748628Y-124470952D01*
X87748628Y-124470952D02*
X87701009Y-124518571D01*
X87701009Y-124518571D02*
X87653390Y-124613809D01*
X50531905Y-138414819D02*
X50531905Y-137414819D01*
X50531905Y-137414819D02*
X50770000Y-137414819D01*
X50770000Y-137414819D02*
X50912857Y-137462438D01*
X50912857Y-137462438D02*
X51008095Y-137557676D01*
X51008095Y-137557676D02*
X51055714Y-137652914D01*
X51055714Y-137652914D02*
X51103333Y-137843390D01*
X51103333Y-137843390D02*
X51103333Y-137986247D01*
X51103333Y-137986247D02*
X51055714Y-138176723D01*
X51055714Y-138176723D02*
X51008095Y-138271961D01*
X51008095Y-138271961D02*
X50912857Y-138367200D01*
X50912857Y-138367200D02*
X50770000Y-138414819D01*
X50770000Y-138414819D02*
X50531905Y-138414819D01*
X52055714Y-138414819D02*
X51484286Y-138414819D01*
X51770000Y-138414819D02*
X51770000Y-137414819D01*
X51770000Y-137414819D02*
X51674762Y-137557676D01*
X51674762Y-137557676D02*
X51579524Y-137652914D01*
X51579524Y-137652914D02*
X51484286Y-137700533D01*
X101666666Y-104764819D02*
X101666666Y-105479104D01*
X101666666Y-105479104D02*
X101619047Y-105621961D01*
X101619047Y-105621961D02*
X101523809Y-105717200D01*
X101523809Y-105717200D02*
X101380952Y-105764819D01*
X101380952Y-105764819D02*
X101285714Y-105764819D01*
X102666666Y-105764819D02*
X102095238Y-105764819D01*
X102380952Y-105764819D02*
X102380952Y-104764819D01*
X102380952Y-104764819D02*
X102285714Y-104907676D01*
X102285714Y-104907676D02*
X102190476Y-105002914D01*
X102190476Y-105002914D02*
X102095238Y-105050533D01*
X42124819Y-142031666D02*
X41648628Y-142364999D01*
X42124819Y-142603094D02*
X41124819Y-142603094D01*
X41124819Y-142603094D02*
X41124819Y-142222142D01*
X41124819Y-142222142D02*
X41172438Y-142126904D01*
X41172438Y-142126904D02*
X41220057Y-142079285D01*
X41220057Y-142079285D02*
X41315295Y-142031666D01*
X41315295Y-142031666D02*
X41458152Y-142031666D01*
X41458152Y-142031666D02*
X41553390Y-142079285D01*
X41553390Y-142079285D02*
X41601009Y-142126904D01*
X41601009Y-142126904D02*
X41648628Y-142222142D01*
X41648628Y-142222142D02*
X41648628Y-142603094D01*
X41124819Y-141698332D02*
X41124819Y-141079285D01*
X41124819Y-141079285D02*
X41505771Y-141412618D01*
X41505771Y-141412618D02*
X41505771Y-141269761D01*
X41505771Y-141269761D02*
X41553390Y-141174523D01*
X41553390Y-141174523D02*
X41601009Y-141126904D01*
X41601009Y-141126904D02*
X41696247Y-141079285D01*
X41696247Y-141079285D02*
X41934342Y-141079285D01*
X41934342Y-141079285D02*
X42029580Y-141126904D01*
X42029580Y-141126904D02*
X42077200Y-141174523D01*
X42077200Y-141174523D02*
X42124819Y-141269761D01*
X42124819Y-141269761D02*
X42124819Y-141555475D01*
X42124819Y-141555475D02*
X42077200Y-141650713D01*
X42077200Y-141650713D02*
X42029580Y-141698332D01*
X31220149Y-112306249D02*
X31220149Y-113116194D01*
X31220149Y-113116194D02*
X31267792Y-113211482D01*
X31267792Y-113211482D02*
X31315436Y-113259126D01*
X31315436Y-113259126D02*
X31410724Y-113306769D01*
X31410724Y-113306769D02*
X31601299Y-113306769D01*
X31601299Y-113306769D02*
X31696587Y-113259126D01*
X31696587Y-113259126D02*
X31744230Y-113211482D01*
X31744230Y-113211482D02*
X31791874Y-113116194D01*
X31791874Y-113116194D02*
X31791874Y-112306249D01*
X32697107Y-112639756D02*
X32697107Y-113306769D01*
X32458888Y-112258606D02*
X32220669Y-112973263D01*
X32220669Y-112973263D02*
X32840038Y-112973263D01*
X32501905Y-138414819D02*
X32501905Y-137414819D01*
X32501905Y-137414819D02*
X32740000Y-137414819D01*
X32740000Y-137414819D02*
X32882857Y-137462438D01*
X32882857Y-137462438D02*
X32978095Y-137557676D01*
X32978095Y-137557676D02*
X33025714Y-137652914D01*
X33025714Y-137652914D02*
X33073333Y-137843390D01*
X33073333Y-137843390D02*
X33073333Y-137986247D01*
X33073333Y-137986247D02*
X33025714Y-138176723D01*
X33025714Y-138176723D02*
X32978095Y-138271961D01*
X32978095Y-138271961D02*
X32882857Y-138367200D01*
X32882857Y-138367200D02*
X32740000Y-138414819D01*
X32740000Y-138414819D02*
X32501905Y-138414819D01*
X33930476Y-137748152D02*
X33930476Y-138414819D01*
X33692381Y-137367200D02*
X33454286Y-138081485D01*
X33454286Y-138081485D02*
X34073333Y-138081485D01*
X54704819Y-142031666D02*
X54228628Y-142364999D01*
X54704819Y-142603094D02*
X53704819Y-142603094D01*
X53704819Y-142603094D02*
X53704819Y-142222142D01*
X53704819Y-142222142D02*
X53752438Y-142126904D01*
X53752438Y-142126904D02*
X53800057Y-142079285D01*
X53800057Y-142079285D02*
X53895295Y-142031666D01*
X53895295Y-142031666D02*
X54038152Y-142031666D01*
X54038152Y-142031666D02*
X54133390Y-142079285D01*
X54133390Y-142079285D02*
X54181009Y-142126904D01*
X54181009Y-142126904D02*
X54228628Y-142222142D01*
X54228628Y-142222142D02*
X54228628Y-142603094D01*
X54704819Y-141079285D02*
X54704819Y-141650713D01*
X54704819Y-141364999D02*
X53704819Y-141364999D01*
X53704819Y-141364999D02*
X53847676Y-141460237D01*
X53847676Y-141460237D02*
X53942914Y-141555475D01*
X53942914Y-141555475D02*
X53990533Y-141650713D01*
X31649819Y-94923333D02*
X32364104Y-94923333D01*
X32364104Y-94923333D02*
X32506961Y-94970952D01*
X32506961Y-94970952D02*
X32602200Y-95066190D01*
X32602200Y-95066190D02*
X32649819Y-95209047D01*
X32649819Y-95209047D02*
X32649819Y-95304285D01*
X31745057Y-94494761D02*
X31697438Y-94447142D01*
X31697438Y-94447142D02*
X31649819Y-94351904D01*
X31649819Y-94351904D02*
X31649819Y-94113809D01*
X31649819Y-94113809D02*
X31697438Y-94018571D01*
X31697438Y-94018571D02*
X31745057Y-93970952D01*
X31745057Y-93970952D02*
X31840295Y-93923333D01*
X31840295Y-93923333D02*
X31935533Y-93923333D01*
X31935533Y-93923333D02*
X32078390Y-93970952D01*
X32078390Y-93970952D02*
X32649819Y-94542380D01*
X32649819Y-94542380D02*
X32649819Y-93923333D01*
X35624819Y-142031666D02*
X35148628Y-142364999D01*
X35624819Y-142603094D02*
X34624819Y-142603094D01*
X34624819Y-142603094D02*
X34624819Y-142222142D01*
X34624819Y-142222142D02*
X34672438Y-142126904D01*
X34672438Y-142126904D02*
X34720057Y-142079285D01*
X34720057Y-142079285D02*
X34815295Y-142031666D01*
X34815295Y-142031666D02*
X34958152Y-142031666D01*
X34958152Y-142031666D02*
X35053390Y-142079285D01*
X35053390Y-142079285D02*
X35101009Y-142126904D01*
X35101009Y-142126904D02*
X35148628Y-142222142D01*
X35148628Y-142222142D02*
X35148628Y-142603094D01*
X34958152Y-141174523D02*
X35624819Y-141174523D01*
X34577200Y-141412618D02*
X35291485Y-141650713D01*
X35291485Y-141650713D02*
X35291485Y-141031666D01*
X87224819Y-133833333D02*
X87939104Y-133833333D01*
X87939104Y-133833333D02*
X88081961Y-133880952D01*
X88081961Y-133880952D02*
X88177200Y-133976190D01*
X88177200Y-133976190D02*
X88224819Y-134119047D01*
X88224819Y-134119047D02*
X88224819Y-134214285D01*
X87224819Y-132928571D02*
X87224819Y-133119047D01*
X87224819Y-133119047D02*
X87272438Y-133214285D01*
X87272438Y-133214285D02*
X87320057Y-133261904D01*
X87320057Y-133261904D02*
X87462914Y-133357142D01*
X87462914Y-133357142D02*
X87653390Y-133404761D01*
X87653390Y-133404761D02*
X88034342Y-133404761D01*
X88034342Y-133404761D02*
X88129580Y-133357142D01*
X88129580Y-133357142D02*
X88177200Y-133309523D01*
X88177200Y-133309523D02*
X88224819Y-133214285D01*
X88224819Y-133214285D02*
X88224819Y-133023809D01*
X88224819Y-133023809D02*
X88177200Y-132928571D01*
X88177200Y-132928571D02*
X88129580Y-132880952D01*
X88129580Y-132880952D02*
X88034342Y-132833333D01*
X88034342Y-132833333D02*
X87796247Y-132833333D01*
X87796247Y-132833333D02*
X87701009Y-132880952D01*
X87701009Y-132880952D02*
X87653390Y-132928571D01*
X87653390Y-132928571D02*
X87605771Y-133023809D01*
X87605771Y-133023809D02*
X87605771Y-133214285D01*
X87605771Y-133214285D02*
X87653390Y-133309523D01*
X87653390Y-133309523D02*
X87701009Y-133357142D01*
X87701009Y-133357142D02*
X87796247Y-133404761D01*
X31649819Y-111743333D02*
X32364104Y-111743333D01*
X32364104Y-111743333D02*
X32506961Y-111790952D01*
X32506961Y-111790952D02*
X32602200Y-111886190D01*
X32602200Y-111886190D02*
X32649819Y-112029047D01*
X32649819Y-112029047D02*
X32649819Y-112124285D01*
X31649819Y-110790952D02*
X31649819Y-111267142D01*
X31649819Y-111267142D02*
X32126009Y-111314761D01*
X32126009Y-111314761D02*
X32078390Y-111267142D01*
X32078390Y-111267142D02*
X32030771Y-111171904D01*
X32030771Y-111171904D02*
X32030771Y-110933809D01*
X32030771Y-110933809D02*
X32078390Y-110838571D01*
X32078390Y-110838571D02*
X32126009Y-110790952D01*
X32126009Y-110790952D02*
X32221247Y-110743333D01*
X32221247Y-110743333D02*
X32459342Y-110743333D01*
X32459342Y-110743333D02*
X32554580Y-110790952D01*
X32554580Y-110790952D02*
X32602200Y-110838571D01*
X32602200Y-110838571D02*
X32649819Y-110933809D01*
X32649819Y-110933809D02*
X32649819Y-111171904D01*
X32649819Y-111171904D02*
X32602200Y-111267142D01*
X32602200Y-111267142D02*
X32554580Y-111314761D01*
X31649819Y-120153333D02*
X32364104Y-120153333D01*
X32364104Y-120153333D02*
X32506961Y-120200952D01*
X32506961Y-120200952D02*
X32602200Y-120296190D01*
X32602200Y-120296190D02*
X32649819Y-120439047D01*
X32649819Y-120439047D02*
X32649819Y-120534285D01*
X31649819Y-119772380D02*
X31649819Y-119105714D01*
X31649819Y-119105714D02*
X32649819Y-119534285D01*
X87224819Y-142243333D02*
X87939104Y-142243333D01*
X87939104Y-142243333D02*
X88081961Y-142290952D01*
X88081961Y-142290952D02*
X88177200Y-142386190D01*
X88177200Y-142386190D02*
X88224819Y-142529047D01*
X88224819Y-142529047D02*
X88224819Y-142624285D01*
X87558152Y-141338571D02*
X88224819Y-141338571D01*
X87177200Y-141576666D02*
X87891485Y-141814761D01*
X87891485Y-141814761D02*
X87891485Y-141195714D01*
X48204819Y-142211666D02*
X47728628Y-142544999D01*
X48204819Y-142783094D02*
X47204819Y-142783094D01*
X47204819Y-142783094D02*
X47204819Y-142402142D01*
X47204819Y-142402142D02*
X47252438Y-142306904D01*
X47252438Y-142306904D02*
X47300057Y-142259285D01*
X47300057Y-142259285D02*
X47395295Y-142211666D01*
X47395295Y-142211666D02*
X47538152Y-142211666D01*
X47538152Y-142211666D02*
X47633390Y-142259285D01*
X47633390Y-142259285D02*
X47681009Y-142306904D01*
X47681009Y-142306904D02*
X47728628Y-142402142D01*
X47728628Y-142402142D02*
X47728628Y-142783094D01*
X47300057Y-141830713D02*
X47252438Y-141783094D01*
X47252438Y-141783094D02*
X47204819Y-141687856D01*
X47204819Y-141687856D02*
X47204819Y-141449761D01*
X47204819Y-141449761D02*
X47252438Y-141354523D01*
X47252438Y-141354523D02*
X47300057Y-141306904D01*
X47300057Y-141306904D02*
X47395295Y-141259285D01*
X47395295Y-141259285D02*
X47490533Y-141259285D01*
X47490533Y-141259285D02*
X47633390Y-141306904D01*
X47633390Y-141306904D02*
X48204819Y-141878332D01*
X48204819Y-141878332D02*
X48204819Y-141259285D01*
%TO.C,J9*%
D11*
X104230000Y-119965000D02*
X104230000Y-113395000D01*
X93960000Y-119965000D02*
X104230000Y-119965000D01*
X93960000Y-119965000D02*
X93960000Y-113395000D01*
X93960000Y-113395000D02*
X104230000Y-113395000D01*
X91420000Y-119965000D02*
X88770000Y-119965000D01*
X88770000Y-119965000D02*
X88770000Y-116680000D01*
%TO.C,U1*%
X50480000Y-103310000D02*
X50720000Y-103640000D01*
X50240000Y-103640000D01*
X50480000Y-103310000D01*
G36*
X50720000Y-103640000D02*
G01*
X50240000Y-103640000D01*
X50480000Y-103310000D01*
X50720000Y-103640000D01*
G37*
X45440000Y-96590000D02*
X45440000Y-97850000D01*
X45440000Y-103410000D02*
X45440000Y-102150000D01*
X49200000Y-96590000D02*
X45440000Y-96590000D01*
X49200000Y-103410000D02*
X45440000Y-103410000D01*
%TO.C,U3*%
D12*
X61150000Y-125350000D02*
X74057500Y-125350000D01*
X61150000Y-145650000D02*
X61150000Y-125350000D01*
X74057500Y-145650000D02*
X61150000Y-145650000D01*
X76850000Y-125350000D02*
X76850000Y-145650000D01*
%TO.C,SW1*%
D11*
X20392500Y-69500000D02*
X20392500Y-70500000D01*
X20392500Y-70500000D02*
X20892500Y-70000000D01*
X20892500Y-70000000D02*
X20392500Y-69500000D01*
X21092500Y-63590000D02*
X21402500Y-63590000D01*
X21092500Y-72410000D02*
X21092500Y-63590000D01*
X21402500Y-72410000D02*
X21092500Y-72410000D01*
X25612500Y-63590000D02*
X25302500Y-63590000D01*
X25612500Y-63590000D02*
X25612500Y-72410000D01*
X25612500Y-72410000D02*
X25302500Y-72410000D01*
%TO.C,SW2*%
X26837500Y-69500000D02*
X26837500Y-70500000D01*
X26837500Y-70500000D02*
X27337500Y-70000000D01*
X27337500Y-70000000D02*
X26837500Y-69500000D01*
X27537500Y-63590000D02*
X27847500Y-63590000D01*
X27537500Y-72410000D02*
X27537500Y-63590000D01*
X27847500Y-72410000D02*
X27537500Y-72410000D01*
X32057500Y-63590000D02*
X31747500Y-63590000D01*
X32057500Y-63590000D02*
X32057500Y-72410000D01*
X32057500Y-72410000D02*
X31747500Y-72410000D01*
%TO.C,SW3*%
X33282500Y-69500000D02*
X33282500Y-70500000D01*
X33282500Y-70500000D02*
X33782500Y-70000000D01*
X33782500Y-70000000D02*
X33282500Y-69500000D01*
X33982500Y-63590000D02*
X34292500Y-63590000D01*
X33982500Y-72410000D02*
X33982500Y-63590000D01*
X34292500Y-72410000D02*
X33982500Y-72410000D01*
X38502500Y-63590000D02*
X38192500Y-63590000D01*
X38502500Y-63590000D02*
X38502500Y-72410000D01*
X38502500Y-72410000D02*
X38192500Y-72410000D01*
%TO.C,D2*%
X46850000Y-132250000D02*
X46850000Y-130530000D01*
X46730000Y-132250000D02*
X46730000Y-130530000D01*
X43550000Y-130530000D02*
X46970000Y-130530000D01*
X46970000Y-132250000D01*
X43550000Y-132250000D01*
X43550000Y-130530000D01*
X46530000Y-132250000D02*
X46530000Y-134920000D01*
X46530000Y-132250000D01*
X44300000Y-129130000D02*
X46220000Y-129130000D01*
X46220000Y-130530000D01*
X44300000Y-130530000D01*
X44300000Y-129130000D01*
X43990000Y-132250000D02*
X43990000Y-134920000D01*
X43990000Y-132250000D01*
%TO.C,D3*%
X40840000Y-132250000D02*
X40840000Y-130530000D01*
X40720000Y-132250000D02*
X40720000Y-130530000D01*
X37540000Y-130530000D02*
X40960000Y-130530000D01*
X40960000Y-132250000D01*
X37540000Y-132250000D01*
X37540000Y-130530000D01*
X40520000Y-132250000D02*
X40520000Y-134920000D01*
X40520000Y-132250000D01*
X38290000Y-129130000D02*
X40210000Y-129130000D01*
X40210000Y-130530000D01*
X38290000Y-130530000D01*
X38290000Y-129130000D01*
X37980000Y-132250000D02*
X37980000Y-134920000D01*
X37980000Y-132250000D01*
%TO.C,U2*%
X63560000Y-103610000D02*
X63560000Y-102960000D01*
X64210000Y-103610000D02*
X63560000Y-103610000D01*
X70780000Y-103610000D02*
X70130000Y-103610000D01*
X70780000Y-102960000D02*
X70780000Y-103610000D01*
X63560000Y-97040000D02*
X63560000Y-96390000D01*
X63560000Y-96390000D02*
X64210000Y-96390000D01*
X70130000Y-96390000D02*
X70780000Y-96390000D01*
X70780000Y-96390000D02*
X70780000Y-97040000D01*
X64570000Y-104110000D02*
X64810000Y-104440000D01*
X64330000Y-104440000D01*
X64570000Y-104110000D01*
G36*
X64810000Y-104440000D02*
G01*
X64330000Y-104440000D01*
X64570000Y-104110000D01*
X64810000Y-104440000D01*
G37*
%TO.C,J3*%
X20815000Y-99715000D02*
X20815000Y-106285000D01*
X26005000Y-99715000D02*
X20815000Y-99715000D01*
X26005000Y-99715000D02*
X26005000Y-106285000D01*
X26005000Y-106285000D02*
X20815000Y-106285000D01*
X28545000Y-99715000D02*
X31195000Y-99715000D01*
X31195000Y-99715000D02*
X31195000Y-103000000D01*
%TO.C,J8*%
X88770000Y-128375000D02*
X88770000Y-125090000D01*
X91420000Y-128375000D02*
X88770000Y-128375000D01*
X93960000Y-121805000D02*
X104230000Y-121805000D01*
X93960000Y-128375000D02*
X93960000Y-121805000D01*
X93960000Y-128375000D02*
X104230000Y-128375000D01*
X104230000Y-128375000D02*
X104230000Y-121805000D01*
%TO.C,D1*%
X52860000Y-132250000D02*
X52860000Y-130530000D01*
X52740000Y-132250000D02*
X52740000Y-130530000D01*
X49560000Y-130530000D02*
X52980000Y-130530000D01*
X52980000Y-132250000D01*
X49560000Y-132250000D01*
X49560000Y-130530000D01*
X52540000Y-132250000D02*
X52540000Y-134920000D01*
X52540000Y-132250000D01*
X50310000Y-129130000D02*
X52230000Y-129130000D01*
X52230000Y-130530000D01*
X50310000Y-130530000D01*
X50310000Y-129130000D01*
X50000000Y-132250000D02*
X50000000Y-134920000D01*
X50000000Y-132250000D01*
%TO.C,J1*%
X105285000Y-104310000D02*
X102000000Y-104310000D01*
X105285000Y-101660000D02*
X105285000Y-104310000D01*
X98715000Y-99120000D02*
X98715000Y-63450000D01*
X105285000Y-99120000D02*
X98715000Y-99120000D01*
X105285000Y-99120000D02*
X105285000Y-63450000D01*
X105285000Y-63450000D02*
X98715000Y-63450000D01*
%TO.C,R3*%
X39750000Y-142745000D02*
X39750000Y-143365000D01*
X40670000Y-141825000D02*
G75*
G02*
X38830000Y-141825000I-920000J0D01*
G01*
X38830000Y-141825000D02*
G75*
G02*
X40670000Y-141825000I920000J0D01*
G01*
%TO.C,U4*%
D12*
X45000000Y-75655000D02*
X46000000Y-75655000D01*
X45000000Y-76855000D02*
X45000000Y-75655000D01*
X46000000Y-75655000D02*
X46000000Y-61855000D01*
X46000000Y-75655000D02*
X62000000Y-75655000D01*
X62000000Y-61855000D02*
X46000000Y-61855000D01*
X62000000Y-75655000D02*
X62000000Y-61855000D01*
X62000000Y-75655000D02*
X73000000Y-75655000D01*
X73000000Y-75655000D02*
X73000000Y-61855000D01*
X73000000Y-75655000D02*
X89000000Y-75655000D01*
X89000000Y-61855000D02*
X73000000Y-61855000D01*
X89000000Y-75655000D02*
X89000000Y-61855000D01*
X89000000Y-75655000D02*
X90000000Y-75655000D01*
X90000000Y-75655000D02*
X90000000Y-76855000D01*
X90000000Y-76855000D02*
X45000000Y-76855000D01*
%TO.C,D4*%
D11*
X34830000Y-132250000D02*
X34830000Y-130530000D01*
X34710000Y-132250000D02*
X34710000Y-130530000D01*
X31530000Y-130530000D02*
X34950000Y-130530000D01*
X34950000Y-132250000D01*
X31530000Y-132250000D01*
X31530000Y-130530000D01*
X34510000Y-132250000D02*
X34510000Y-134920000D01*
X34510000Y-132250000D01*
X32280000Y-129130000D02*
X34200000Y-129130000D01*
X34200000Y-130530000D01*
X32280000Y-130530000D01*
X32280000Y-129130000D01*
X31970000Y-132250000D02*
X31970000Y-134920000D01*
X31970000Y-132250000D01*
%TO.C,R1*%
X52250000Y-142745000D02*
X52250000Y-143365000D01*
X53170000Y-141825000D02*
G75*
G02*
X51330000Y-141825000I-920000J0D01*
G01*
X51330000Y-141825000D02*
G75*
G02*
X53170000Y-141825000I920000J0D01*
G01*
%TO.C,J2*%
X20815000Y-91305000D02*
X20815000Y-97875000D01*
X26005000Y-91305000D02*
X20815000Y-91305000D01*
X26005000Y-91305000D02*
X26005000Y-97875000D01*
X26005000Y-97875000D02*
X20815000Y-97875000D01*
X28545000Y-91305000D02*
X31195000Y-91305000D01*
X31195000Y-91305000D02*
X31195000Y-94590000D01*
%TO.C,R4*%
X33250000Y-142745000D02*
X33250000Y-143365000D01*
X34170000Y-141825000D02*
G75*
G02*
X32330000Y-141825000I-920000J0D01*
G01*
X32330000Y-141825000D02*
G75*
G02*
X34170000Y-141825000I920000J0D01*
G01*
%TO.C,J6*%
X88770000Y-136785000D02*
X88770000Y-133500000D01*
X91420000Y-136785000D02*
X88770000Y-136785000D01*
X93960000Y-130215000D02*
X104230000Y-130215000D01*
X93960000Y-136785000D02*
X93960000Y-130215000D01*
X93960000Y-136785000D02*
X104230000Y-136785000D01*
X104230000Y-136785000D02*
X104230000Y-130215000D01*
%TO.C,J5*%
X20815000Y-108125000D02*
X20815000Y-114695000D01*
X26005000Y-108125000D02*
X20815000Y-108125000D01*
X26005000Y-108125000D02*
X26005000Y-114695000D01*
X26005000Y-114695000D02*
X20815000Y-114695000D01*
X28545000Y-108125000D02*
X31195000Y-108125000D01*
X31195000Y-108125000D02*
X31195000Y-111410000D01*
%TO.C,J7*%
X20815000Y-116535000D02*
X20815000Y-123105000D01*
X26005000Y-116535000D02*
X20815000Y-116535000D01*
X26005000Y-116535000D02*
X26005000Y-123105000D01*
X26005000Y-123105000D02*
X20815000Y-123105000D01*
X28545000Y-116535000D02*
X31195000Y-116535000D01*
X31195000Y-116535000D02*
X31195000Y-119820000D01*
%TO.C,J4*%
X88770000Y-145195000D02*
X88770000Y-141910000D01*
X91420000Y-145195000D02*
X88770000Y-145195000D01*
X93960000Y-138625000D02*
X104230000Y-138625000D01*
X93960000Y-145195000D02*
X93960000Y-138625000D01*
X93960000Y-145195000D02*
X104230000Y-145195000D01*
X104230000Y-145195000D02*
X104230000Y-138625000D01*
%TO.C,R2*%
X45750000Y-142745000D02*
X45750000Y-143365000D01*
X46670000Y-141825000D02*
G75*
G02*
X44830000Y-141825000I-920000J0D01*
G01*
X44830000Y-141825000D02*
G75*
G02*
X46670000Y-141825000I920000J0D01*
G01*
%TD*%
M02*
