M48
; DRILL file KiCad 10.0.4 date 2026-07-11T11:01:54
; FORMAT={-:-/ absolute / metric / decimal}
; #@! TF.CreationDate,2026-07-11T11:01:54+05:30
; #@! TF.GenerationSoftware,Kicad,Pcbnew,10.0.4
; #@! TF.FileFunction,Plated,1,2,PTH
FMAT,2
METRIC
; #@! TA.AperFunction,Plated,PTH,ViaDrill
T1C0.300
; #@! TA.AperFunction,Plated,PTH,ComponentDrill
T2C0.700
; #@! TA.AperFunction,Plated,PTH,ComponentDrill
T3C0.800
; #@! TA.AperFunction,Plated,PTH,ComponentDrill
T4C0.900
; #@! TA.AperFunction,Plated,PTH,ComponentDrill
T5C1.020
; #@! TA.AperFunction,Plated,PTH,ComponentDrill
T6C1.270
; #@! TA.AperFunction,Plated,PTH,ComponentDrill
T7C1.500
; #@! TA.AperFunction,Plated,PTH,ComponentDrill
T8C1.750
%
G90
G05
T1
X22.5Y-76.5
X24.5Y-80.0
X54.0Y-97.5
X54.0Y-97.5
X54.0Y-104.0
X55.6Y-97.4
X56.75Y-101.75
X58.0Y-100.0
X58.5Y-91.5
X59.5Y-100.0
X60.5Y-91.5
X61.0Y-100.0
X62.5Y-91.0
X67.17Y-100.0
X67.5Y-88.5
T2
X33.25Y-141.825
X33.25Y-144.365
X39.75Y-141.825
X39.75Y-144.365
X45.75Y-141.825
X45.75Y-144.365
X52.25Y-141.825
X52.25Y-144.365
T3
X23.352Y-66.0
X23.352Y-68.0
X23.352Y-70.0
X29.797Y-66.0
X29.797Y-68.0
X29.797Y-70.0
X36.242Y-66.0
X36.242Y-68.0
X36.242Y-70.0
T4
X31.97Y-136.0
X34.51Y-136.0
X37.98Y-136.0
X40.52Y-136.0
X43.99Y-136.0
X46.53Y-136.0
X50.0Y-136.0
X52.54Y-136.0
T5
X63.69Y-81.125
X66.23Y-81.125
X68.77Y-81.125
X71.31Y-81.125
T6
X75.33Y-126.61
X75.33Y-129.15
X75.33Y-131.69
X75.33Y-134.23
X75.33Y-136.77
X75.33Y-139.31
X75.33Y-141.85
X75.33Y-144.39
T7
X23.352Y-63.9
X23.352Y-72.1
X29.797Y-63.9
X29.797Y-72.1
X36.242Y-63.9
X36.242Y-72.1
T8
X23.465Y-94.59
X23.465Y-103.0
X23.465Y-111.41
X23.465Y-119.82
X28.545Y-94.59
X28.545Y-103.0
X28.545Y-111.41
X28.545Y-119.82
X91.42Y-116.68
X91.42Y-125.09
X91.42Y-133.5
X91.42Y-141.91
X96.5Y-116.68
X96.5Y-125.09
X96.5Y-133.5
X96.5Y-141.91
X101.58Y-116.68
X101.58Y-125.09
X101.58Y-133.5
X101.58Y-141.91
X102.0Y-66.1
X102.0Y-71.18
X102.0Y-76.26
X102.0Y-81.34
X102.0Y-86.42
X102.0Y-91.5
X102.0Y-96.58
X102.0Y-101.66
M30
