%TF.GenerationSoftware,KiCad,Pcbnew,10.0.4*%
%TF.CreationDate,2026-07-11T11:01:38+05:30*%
%TF.ProjectId,Kratos_intro,4b726174-6f73-45f6-996e-74726f2e6b69,rev?*%
%TF.SameCoordinates,Original*%
%TF.FileFunction,Soldermask,Top*%
%TF.FilePolarity,Negative*%
%FSLAX46Y46*%
G04 Gerber Fmt 4.6, Leading zero omitted, Abs format (unit mm)*
G04 Created by KiCad (PCBNEW 10.0.4) date 2026-07-11 11:01:38*
%MOMM*%
%LPD*%
G01*
G04 APERTURE LIST*
G04 Aperture macros list*
%AMRoundRect*
0 Rectangle with rounded corners*
0 $1 Rounding radius*
0 $2 $3 $4 $5 $6 $7 $8 $9 X,Y pos of 4 corners*
0 Add a 4 corners polygon primitive as box body*
4,1,4,$2,$3,$4,$5,$6,$7,$8,$9,$2,$3,0*
0 Add four circle primitives for the rounded corners*
1,1,$1+$1,$2,$3*
1,1,$1+$1,$4,$5*
1,1,$1+$1,$6,$7*
1,1,$1+$1,$8,$9*
0 Add four rect primitives between the rounded corners*
20,1,$1+$1,$2,$3,$4,$5,0*
20,1,$1+$1,$4,$5,$6,$7,0*
20,1,$1+$1,$6,$7,$8,$9,0*
20,1,$1+$1,$8,$9,$2,$3,0*%
G04 Aperture macros list end*
%ADD10C,2.800000*%
%ADD11R,2.800000X2.800000*%
%ADD12RoundRect,0.375000X0.625000X0.375000X-0.625000X0.375000X-0.625000X-0.375000X0.625000X-0.375000X0*%
%ADD13RoundRect,0.500000X0.500000X1.400000X-0.500000X1.400000X-0.500000X-1.400000X0.500000X-1.400000X0*%
%ADD14C,2.109000*%
%ADD15C,3.200000*%
%ADD16O,2.500000X1.500000*%
%ADD17R,2.500000X1.500000*%
%ADD18O,3.500000X2.200000*%
%ADD19R,1.800000X1.800000*%
%ADD20C,1.800000*%
%ADD21RoundRect,0.050000X0.050000X-0.350000X0.050000X0.350000X-0.050000X0.350000X-0.050000X-0.350000X0*%
%ADD22RoundRect,0.050000X0.350000X-0.050000X0.350000X0.050000X-0.350000X0.050000X-0.350000X-0.050000X0*%
%ADD23R,4.000000X4.000000*%
%ADD24C,1.400000*%
%ADD25C,1.734000*%
G04 APERTURE END LIST*
D10*
%TO.C,J9*%
X101580000Y-116680000D03*
X96500000Y-116680000D03*
D11*
X91420000Y-116680000D03*
%TD*%
D12*
%TO.C,U1*%
X50500000Y-97700000D03*
D13*
X44200000Y-100000000D03*
D12*
X50500000Y-100000000D03*
X50500000Y-102300000D03*
%TD*%
D14*
%TO.C,U3*%
X75330000Y-134230000D03*
X75330000Y-131690000D03*
X75330000Y-144390000D03*
X75330000Y-136770000D03*
X75330000Y-139310000D03*
X75330000Y-126610000D03*
X75330000Y-141850000D03*
X75330000Y-129150000D03*
D15*
X63570000Y-127440000D03*
X63570000Y-143560000D03*
%TD*%
D16*
%TO.C,SW1*%
X23352500Y-66000000D03*
X23352500Y-68000000D03*
D17*
X23352500Y-70000000D03*
D18*
X23352500Y-63900000D03*
X23352500Y-72100000D03*
%TD*%
D16*
%TO.C,SW2*%
X29797500Y-66000000D03*
X29797500Y-68000000D03*
D17*
X29797500Y-70000000D03*
D18*
X29797500Y-63900000D03*
X29797500Y-72100000D03*
%TD*%
D16*
%TO.C,SW3*%
X36242500Y-66000000D03*
X36242500Y-68000000D03*
D17*
X36242500Y-70000000D03*
D18*
X36242500Y-63900000D03*
X36242500Y-72100000D03*
%TD*%
D19*
%TO.C,D2*%
X46530000Y-136000000D03*
D20*
X43990000Y-136000000D03*
%TD*%
D19*
%TO.C,D3*%
X40520000Y-136000000D03*
D20*
X37980000Y-136000000D03*
%TD*%
D21*
%TO.C,U2*%
X64570000Y-103450000D03*
X64970000Y-103450000D03*
X65370000Y-103450000D03*
X65770000Y-103450000D03*
X66170000Y-103450000D03*
X66570000Y-103450000D03*
X66970000Y-103450000D03*
X67370000Y-103450000D03*
X67770000Y-103450000D03*
X68170000Y-103450000D03*
X68570000Y-103450000D03*
X68970000Y-103450000D03*
X69370000Y-103450000D03*
X69770000Y-103450000D03*
D22*
X70620000Y-102600000D03*
X70620000Y-102200000D03*
X70620000Y-101800000D03*
X70620000Y-101400000D03*
X70620000Y-101000000D03*
X70620000Y-100600000D03*
X70620000Y-100200000D03*
X70620000Y-99800000D03*
X70620000Y-99400000D03*
X70620000Y-99000000D03*
X70620000Y-98600000D03*
X70620000Y-98200000D03*
X70620000Y-97800000D03*
X70620000Y-97400000D03*
D21*
X69770000Y-96550000D03*
X69370000Y-96550000D03*
X68970000Y-96550000D03*
X68570000Y-96550000D03*
X68170000Y-96550000D03*
X67770000Y-96550000D03*
X67370000Y-96550000D03*
X66970000Y-96550000D03*
X66570000Y-96550000D03*
X66170000Y-96550000D03*
X65770000Y-96550000D03*
X65370000Y-96550000D03*
X64970000Y-96550000D03*
X64570000Y-96550000D03*
D22*
X63720000Y-97400000D03*
X63720000Y-97800000D03*
X63720000Y-98200000D03*
X63720000Y-98600000D03*
X63720000Y-99000000D03*
X63720000Y-99400000D03*
X63720000Y-99800000D03*
X63720000Y-100200000D03*
X63720000Y-100600000D03*
X63720000Y-101000000D03*
X63720000Y-101400000D03*
X63720000Y-101800000D03*
X63720000Y-102200000D03*
X63720000Y-102600000D03*
D23*
X67170000Y-100000000D03*
%TD*%
D11*
%TO.C,J3*%
X28545000Y-103000000D03*
D10*
X23465000Y-103000000D03*
%TD*%
D11*
%TO.C,J8*%
X91420000Y-125090000D03*
D10*
X96500000Y-125090000D03*
X101580000Y-125090000D03*
%TD*%
D19*
%TO.C,D1*%
X52540000Y-136000000D03*
D20*
X50000000Y-136000000D03*
%TD*%
D11*
%TO.C,J1*%
X102000000Y-101660000D03*
D10*
X102000000Y-96580000D03*
X102000000Y-91500000D03*
X102000000Y-86420000D03*
X102000000Y-81340000D03*
X102000000Y-76260000D03*
X102000000Y-71180000D03*
X102000000Y-66100000D03*
%TD*%
D24*
%TO.C,R3*%
X39750000Y-141825000D03*
X39750000Y-144365000D03*
%TD*%
D25*
%TO.C,U4*%
X71310000Y-81125000D03*
X68770000Y-81125000D03*
X66230000Y-81125000D03*
X63690000Y-81125000D03*
%TD*%
D19*
%TO.C,D4*%
X34510000Y-136000000D03*
D20*
X31970000Y-136000000D03*
%TD*%
D24*
%TO.C,R1*%
X52250000Y-141825000D03*
X52250000Y-144365000D03*
%TD*%
D11*
%TO.C,J2*%
X28545000Y-94590000D03*
D10*
X23465000Y-94590000D03*
%TD*%
D24*
%TO.C,R4*%
X33250000Y-141825000D03*
X33250000Y-144365000D03*
%TD*%
D11*
%TO.C,J6*%
X91420000Y-133500000D03*
D10*
X96500000Y-133500000D03*
X101580000Y-133500000D03*
%TD*%
D11*
%TO.C,J5*%
X28545000Y-111410000D03*
D10*
X23465000Y-111410000D03*
%TD*%
D11*
%TO.C,J7*%
X28545000Y-119820000D03*
D10*
X23465000Y-119820000D03*
%TD*%
D11*
%TO.C,J4*%
X91420000Y-141910000D03*
D10*
X96500000Y-141910000D03*
X101580000Y-141910000D03*
%TD*%
D24*
%TO.C,R2*%
X45750000Y-141825000D03*
X45750000Y-144365000D03*
%TD*%
M02*
